<svg xmlns="http://www.w3.org/2000/svg" width="19.773" height="20" viewBox="0 0 19.773 20"><defs><style>.a{fill:#ffc220;fill-rule:evenodd;}</style></defs><path class="a" d="M85.155,6.245l.461-5.232c0-.517-.6-.942-1.362-.942s-1.359.425-1.359.942l.46,5.232a1.005,1.005,0,0,0,1.8,0ZM81.407,7.374,77.127,4.357c-.445-.258-1.112.053-1.491.712s-.313,1.4.131,1.655l4.74,2.218a.857.857,0,0,0,.933-.506l0,0A.858.858,0,0,0,81.407,7.374ZM88,8.942l4.741-2.218c.446-.258.51-1,.133-1.654s-1.05-.971-1.493-.712L87.1,7.373a.862.862,0,0,0-.03,1.064l0,0A.854.854,0,0,0,88,8.941ZM85.155,13.9l.461,5.232c0,.518-.6.942-1.362.942s-1.359-.424-1.359-.942l.46-5.232a1.006,1.006,0,0,1,1.8,0ZM88,11.2l4.741,2.214c.446.259.51,1,.133,1.656s-1.05.97-1.493.712L87.1,12.769a.865.865,0,0,1-.03-1.066.849.849,0,0,1,.93-.5Zm-6.594,1.569-4.281,3.014c-.445.257-1.112-.055-1.491-.712s-.313-1.4.131-1.656l4.74-2.214a.851.851,0,0,1,.933.5h0a.859.859,0,0,1-.031,1.064Zm12.863,2.663h.1c.107,0,.2-.033.2-.126,0-.076-.046-.127-.186-.127a.569.569,0,0,0-.112.009v.244Zm0,.44h-.144v-.782a1.512,1.512,0,0,1,.27-.024.39.39,0,0,1,.247.061.2.2,0,0,1-.076.352v.009a.234.234,0,0,1,.131.189.6.6,0,0,0,.056.2h-.149a.54.54,0,0,1-.06-.206c-.019-.084-.07-.122-.182-.122h-.094v.328Zm.131-1.026a.617.617,0,0,0,.009,1.232.585.585,0,0,0,.584-.614.593.593,0,0,0-.588-.618h0Zm.009-.13a.75.75,0,1,1,0,1.5.75.75,0,1,1,0-1.5Z" transform="translate(-75.388 -0.07)"/></svg>