<svg xmlns="http://www.w3.org/2000/svg" xmlns:xlink="http://www.w3.org/1999/xlink" width="96" height="56" viewBox="0 0 96 56">
  <defs>
    <clipPath id="clip-path">
      <rect id="Rectángulo_2407" data-name="Rectángulo 2407" width="96" height="56" transform="translate(264 496)" fill="#fff" stroke="#707070" stroke-width="1"/>
    </clipPath>
  </defs>
  <g id="Grupo_3601" data-name="Grupo 3601" transform="translate(-264 -496)">
    <g id="Enmascarar_grupo_31" data-name="Enmascarar grupo 31" clip-path="url(#clip-path)">
      <ellipse id="Elipse_146" data-name="Elipse 146" cx="76.5" cy="47.5" rx="76.5" ry="47.5" transform="translate(264 456)" fill="#0075c9"/>
    </g>
    <g id="Grupo_3600" data-name="Grupo 3600" transform="translate(58.359 21)">
      <path id="Trazado_7335" data-name="Trazado 7335" d="M539.589,285.886c1.364-.049,1.81.366,1.835,1.082s-.813,1.4-2.1,1.441-1.673-.587-1.689-1.015.45-1.455,1.954-1.508" transform="translate(-261.016 203.715)" fill="#fff"/>
      <path id="Trazado_7336" data-name="Trazado 7336" d="M519.953,304l1.44.075s-.878,5.433-16.82,9.228c-12.528,2.919-26.2.058-26.2.058l1.869-1.994a64.854,64.854,0,0,0,16.415,1.507c6.163-.22,13.841-2.253,17.576-4.313a20.491,20.491,0,0,0,5.716-4.56" transform="translate(-243.577 198.382)" fill="#fff"/>
      <path id="Trazado_7337" data-name="Trazado 7337" d="M531.662,288.134a8.48,8.48,0,0,0-3.354,2.558c-.953,1.544-1.287,4.139-3.868,4.231s-4.195-2.867-4.283-5.3,2.09-3.877,5.386-3.995,5.557.878,6.119,2.507" transform="translate(-255.872 203.793)" fill="#fa880d"/>
      <path id="Trazado_7338" data-name="Trazado 7338" d="M533.16,283.38c-2.15-1.862-4.414-.993-5.416-.957s-2.457-.412-2.488-1.275c-.072-2,3.286-4.424,8.3-4.6,2.8-.1,4.254.5,4.314,2.146s-2.285,4.241-4.71,4.689" transform="translate(-257.372 206.465)" fill="#fa880d"/>
      <path id="Trazado_7339" data-name="Trazado 7339" d="M543.558,283.245c-.151-4.233,1.422-6.437,4.789-6.557s6.042,2.437,6.112,4.372c.033.932-.232,1.37-1.38,1.411s-3.331-.737-4.832-.684a8.912,8.912,0,0,0-4.689,1.458" transform="translate(-262.756 206.422)" fill="#fa880d"/>
      <path id="Trazado_7340" data-name="Trazado 7340" d="M543.481,288.226c1.158-1.693,2.5-2.528,6.146-2.658s6.647,1.2,6.748,3.992-4.189,5.315-5.837,5.373-2.43-1.775-3.126-3.041-2.276-3.365-3.932-3.666" transform="translate(-262.736 203.808)" fill="#fa880d"/>
      <path id="Trazado_7341" data-name="Trazado 7341" d="M537.2,290.374c3.228-.115,6.575,3.209,6.678,6.074.08,2.225-4.06,2.874-5.854,2.939s-7.843-.658-7.922-2.876c-.11-3.082,5.018-6.061,7.1-6.137" transform="translate(-258.799 202.392)" fill="#fa880d"/>
    </g>
  </g>
</svg>
