<svg xmlns="http://www.w3.org/2000/svg" width="24" height="24" viewBox="0 0 24 24"><defs><style>.a{fill:none;}.b{fill:#0075C9;}</style></defs><rect class="a" width="24" height="24"/><g transform="translate(3.75 2.25)"><path class="b" d="M11.357,2A8.358,8.358,0,0,0,3,10.357v6.5a1.863,1.863,0,0,0,1.857,1.857H6.714a1.863,1.863,0,0,0,1.857-1.857V13.143a1.863,1.863,0,0,0-1.857-1.857H4.857v-.929a6.5,6.5,0,0,1,13,0v.929H16a1.863,1.863,0,0,0-1.857,1.857v3.714A1.863,1.863,0,0,0,16,18.714h1.857v.929H12.286a.929.929,0,1,0,0,1.857h5.571a1.863,1.863,0,0,0,1.857-1.857V10.357A8.358,8.358,0,0,0,11.357,2Z" transform="translate(-3 -2)"/></g></svg>