<svg xmlns="http://www.w3.org/2000/svg" width="24" height="24" viewBox="0 0 24 24"><defs><style>.a,.b{fill:none;}.b,.c{stroke:#0075C9;}.b{stroke-width:1.8px;}.c{fill:#0075C9;stroke-width:0.5px;}.d{stroke:none;}</style></defs><path class="a" d="M0,0H24V24H0Z"/><g transform="translate(2 4)"><g class="b"><rect class="d" width="20" height="15.385" rx="3"/><rect class="a" x="0.9" y="0.9" width="18.2" height="13.585" rx="2.1"/></g><path class="c" d="M4.6-4.576c0-1.15-1-1.677-1.872-2.018C2.021-6.858,1.7-7.14,1.7-7.54c0-.332.263-.585.76-.585a2.289,2.289,0,0,1,1.219.468A.245.245,0,0,0,4-7.764l.361-.517A.2.2,0,0,0,4.3-8.564a3.216,3.216,0,0,0-1.414-.565l.078-.926c.01-.156-.185-.3-.419-.293s-.429.136-.419.293l.078.916A1.7,1.7,0,0,0,.5-7.472c0,1.043.839,1.58,1.677,1.911.741.283,1.111.595,1.111,1.033a.711.711,0,0,1-.79.653A2.1,2.1,0,0,1,1.172-4.41a.208.208,0,0,0-.312.058l-.341.566a.16.16,0,0,0,.049.253A2.931,2.931,0,0,0,2.2-2.85l-.068.9c-.01.156.185.3.419.293s.429-.137.419-.293L2.888-2.86A1.821,1.821,0,0,0,4.6-4.576Z" transform="translate(7.648 14.223)"/></g></svg>