<svg xmlns="http://www.w3.org/2000/svg" width="24" height="24" viewBox="0 0 24 24"><defs><style>.a{fill:none;}.b{fill:#0075C9;}.c,.d{stroke:none;}.d{fill:#0075C9;}</style></defs><path class="a" d="M0,0H24V24H0Z"/><g class="b" transform="translate(0.25 0.5)"><path class="c" d="M 19.54999923706055 18.74030303955078 L 3.950000047683716 18.74030303955078 C 2.819629907608032 18.74030303955078 1.899999976158142 17.87449264526367 1.899999976158142 16.81026268005371 L 1.909749984741211 5.829952239990234 C 1.909749984741211 4.747772216796875 2.805929899215698 3.900002241134644 3.950000047683716 3.900002241134644 L 19.54999923706055 3.900002241134644 C 20.68037033081055 3.900002241134644 21.60000038146973 4.765812397003174 21.60000038146973 5.830042362213135 L 21.60000038146973 16.81026268005371 C 21.60000038146973 17.87449264526367 20.68037033081055 18.74030303955078 19.54999923706055 18.74030303955078 Z M 3.374886274337769 10.25314235687256 L 3.400929927825928 16.38830184936523 C 3.400929927825928 16.83812141418457 3.793450117111206 17.20374298095703 4.275929927825928 17.20374298095703 L 19.33877944946289 17.20374298095703 C 19.82126045227051 17.20374298095703 20.21377944946289 16.83812141418457 20.21377944946289 16.38872146606445 L 20.1877326965332 10.25314235687256 L 3.374886274337769 10.25314235687256 Z M 3.374459981918335 7.560072422027588 L 20.18730926513672 7.560072422027588 L 20.18730926513672 5.930042266845703 L 3.374459981918335 5.930042266845703 L 3.374459981918335 7.560072422027588 Z"/><path class="d" d="M 3.950000762939453 4.000001907348633 C 2.86775016784668 4.000001907348633 2.009750366210938 4.814361572265625 2.009750366210938 5.830041885375977 L 2 16.81026268005371 C 2 17.82593154907227 2.86775016784668 18.64030265808105 3.950000762939453 18.64030265808105 L 19.54999923706055 18.64030265808105 C 20.63224983215332 18.64030265808105 21.5 17.82593154907227 21.5 16.81026268005371 L 21.5 5.830041885375977 C 21.5 4.814361572265625 20.63224983215332 4.000001907348633 19.54999923706055 4.000001907348633 L 3.950000762939453 4.000001907348633 M 20.28730964660645 7.660072326660156 L 3.274459838867188 7.660072326660156 L 3.274459838867188 5.830041885375977 L 20.28730964660645 5.830041885375977 L 20.28730964660645 7.660072326660156 M 3.274459838867188 10.15314197540283 L 20.28730964660645 10.15314197540283 L 20.31377983093262 16.38872146606445 C 20.31377983093262 16.89198303222656 19.87503051757812 17.30374145507812 19.33877944946289 17.30374145507812 L 4.275930404663086 17.30374145507812 C 3.739679336547852 17.30374145507812 3.300930023193359 16.89198303222656 3.300930023193359 16.38872146606445 L 3.274459838867188 10.15314197540283 M 3.950000762939453 3.800003051757812 L 19.54999923706055 3.800003051757812 C 20.73550987243652 3.800003051757812 21.70000076293945 4.710672378540039 21.70000076293945 5.830041885375977 L 21.70000076293945 16.81026268005371 C 21.70000076293945 17.92963218688965 20.73550987243652 18.84030151367188 19.54999923706055 18.84030151367188 L 3.950000762939453 18.84030151367188 C 2.764490127563477 18.84030151367188 1.799999237060547 17.92963218688965 1.799999237060547 16.81026268005371 L 1.809749603271484 5.829862594604492 C 1.809749603271484 5.282672882080078 2.032390594482422 4.770822525024414 2.436660766601562 4.388782501220703 C 2.838430404663086 4.009101867675781 3.375879287719727 3.800003051757812 3.950000762939453 3.800003051757812 Z M 20.08731079101562 6.03004264831543 L 3.474460601806641 6.03004264831543 L 3.474460601806641 7.46007251739502 L 20.08731079101562 7.46007251739502 L 20.08731079101562 6.03004264831543 Z M 20.08815574645996 10.35314273834229 L 3.475313186645508 10.35314273834229 L 3.500930786132812 16.38787269592285 C 3.500930786132812 16.78298187255859 3.848590850830078 17.1037425994873 4.275930404663086 17.1037425994873 L 19.33877944946289 17.1037425994873 C 19.76612091064453 17.1037425994873 20.1137809753418 16.78298187255859 20.1137809753418 16.38872146606445 L 20.08815574645996 10.35314273834229 Z"/></g></svg>