<svg xmlns="http://www.w3.org/2000/svg" width="24" height="24" viewBox="0 0 24 24"><defs><style>.a{fill:none;}.b{fill:#0075C9;stroke:#0075C9;stroke-width:0.6px;}</style></defs><path class="a" d="M0,0H24V24H0Z"/><g transform="translate(1 5.002)"><path class="b" d="M156.885,286.176h-6.692a.694.694,0,0,1,0-1.389h6v-9.922a.232.232,0,0,0-.231-.231h-10.75a.232.232,0,0,0-.231.231v9.69a.232.232,0,0,0,.231.231h1.263a.694.694,0,1,1,0,1.389h-1.263a1.623,1.623,0,0,1-1.62-1.62v-9.69a1.623,1.623,0,0,1,1.62-1.62h10.75a1.622,1.622,0,0,1,1.62,1.62v10.616A.7.7,0,0,1,156.885,286.176Z" transform="translate(-143.588 -273.245)"/><g transform="translate(12.602 2.591)"><path class="b" d="M164.976,286.383h-1.218a.694.694,0,1,1,0-1.389h1.218a.232.232,0,0,0,.231-.231v-2.842a1.155,1.155,0,0,0-.294-.771l-2.98-3.332a1.162,1.162,0,0,0-.863-.385h-2.482v7.563h1.45a.694.694,0,1,1,0,1.389h-2.144a.7.7,0,0,1-.694-.694v-8.951a.7.7,0,0,1,.694-.694h3.177a2.55,2.55,0,0,1,1.9.848l2.981,3.332a2.537,2.537,0,0,1,.648,1.7v2.842A1.622,1.622,0,0,1,164.976,286.383Z" transform="translate(-157.199 -276.043)"/></g><g transform="translate(14.747 9.681)"><path class="b" d="M162.07,288.811a2.555,2.555,0,1,1,2.555-2.555A2.557,2.557,0,0,1,162.07,288.811Zm0-3.721a1.166,1.166,0,1,0,1.167,1.167A1.167,1.167,0,0,0,162.07,285.09Z" transform="translate(-159.515 -283.701)"/></g><g transform="translate(2.189 9.681)"><path class="b" d="M148.507,288.811a2.555,2.555,0,1,1,2.555-2.555A2.558,2.558,0,0,1,148.507,288.811Zm0-3.721a1.166,1.166,0,1,0,1.167,1.167A1.167,1.167,0,0,0,148.507,285.09Z" transform="translate(-145.952 -283.701)"/></g></g></svg>