<svg xmlns="http://www.w3.org/2000/svg" width="24" height="24" viewBox="0 0 24 24"><defs><style>.a{fill:none;}.b{fill:#0075C9;}</style></defs><path class="a" d="M0,0H24V24H0Z"/><g transform="translate(2.03 2.226)"><path class="b" d="M13.02,20.77h0a1,1,0,0,0,1.21.99,10.012,10.012,0,0,0,3.12-1.3,1.006,1.006,0,0,0,.16-1.55h0a.987.987,0,0,0-1.21-.16,7.839,7.839,0,0,1-2.53,1.05A.978.978,0,0,0,13.02,20.77Z" transform="translate(-2.03 -2.226)"/><path class="b" d="M4.03,12a8.008,8.008,0,0,1,6.2-7.79.985.985,0,0,0,.75-.96h0a1,1,0,0,0-1.22-.98,10,10,0,0,0,0,19.47,1,1,0,0,0,1.22-.98h0a.977.977,0,0,0-.75-.96A8.028,8.028,0,0,1,4.03,12Z" transform="translate(-2.03 -2.226)"/><path class="b" d="M20.79,11h0a1,1,0,0,0,.99-1.21,10.113,10.113,0,0,0-1.3-3.12,1,1,0,0,0-1.55-.16h0a.972.972,0,0,0-.15,1.21,7.659,7.659,0,0,1,1.05,2.53A.959.959,0,0,0,20.79,11Z" transform="translate(-2.03 -2.226)"/><path class="b" d="M17.35,3.55a10.113,10.113,0,0,0-3.12-1.3,1,1,0,0,0-1.21.98h0a.968.968,0,0,0,.74.96,7.971,7.971,0,0,1,2.53,1.05.972.972,0,0,0,1.21-.16h0A.972.972,0,0,0,17.35,3.55Z" transform="translate(-2.03 -2.226)"/><path class="b" d="M18.92,17.49h0a1,1,0,0,0,1.55-.16,10.012,10.012,0,0,0,1.3-3.12A1,1,0,0,0,20.79,13h0a.968.968,0,0,0-.96.74,7.971,7.971,0,0,1-1.05,2.53A.97.97,0,0,0,18.92,17.49Z" transform="translate(-2.03 -2.226)"/><path class="b" d="M16,11.1a4,4,0,1,0-8,0q0,2.265,3.31,5.3a1.017,1.017,0,0,0,1.38,0C14.9,14.37,16,12.61,16,11.1ZM12,12a1.07,1.07,0,1,1,1.07-1.07A1.071,1.071,0,0,1,12,12Z" transform="translate(-2.03 -2.226)"/></g></svg>