<svg xmlns="http://www.w3.org/2000/svg" width="282.877" height="66.977" viewBox="0 0 282.877 66.977"><defs><style>.a{fill:#fff;}.a,.b{fill-rule:evenodd;}.b{fill:#ffc220;}</style></defs><path class="a" d="M155.925,33.4a5.157,5.157,0,0,1-5.495,5.311,3.591,3.591,0,0,1-3.9-3.86c0-4.012,4.4-5.121,9.4-5.1Zm7.849-6.989c0-6.619-2.814-12.438-12.318-12.438a22.449,22.449,0,0,0-10.869,2.6l1.546,5.317a15.9,15.9,0,0,1,7.926-2.236c4.822-.014,5.613,2.742,5.613,4.506v.42c-10.513-.017-17.157,3.638-17.157,11.093,0,4.547,3.383,8.811,9.266,8.811a10.508,10.508,0,0,0,8.455-3.773h.178s1.2,5.047,7.82,3.115a42.839,42.839,0,0,1-.46-7.035ZM0,4.963S6.869,33.242,7.964,37.832c1.279,5.357,3.587,7.328,10.231,6L22.486,26.3C23.572,21.942,24.3,18.838,25,14.407h.124a116.184,116.184,0,0,0,2.084,11.907s1.744,7.958,2.641,12.137,3.391,6.811,9.9,5.38L49.969,4.963H41.718l-3.489,16.8c-.94,4.891-1.79,8.714-2.446,13.188h-.115c-.6-4.432-1.356-8.1-2.311-12.867L29.725,4.96h-8.6l-3.886,16.7c-1.1,5.072-2.132,9.168-2.788,13.49h-.115c-.672-4.069-1.566-9.217-2.535-14.128,0,0-2.308-11.941-3.118-16.057H0M65.569,33.4a5.157,5.157,0,0,1-5.5,5.311,3.59,3.59,0,0,1-3.9-3.86c0-4.012,4.4-5.121,9.4-5.1Zm7.846-6.989c0-6.619-2.811-12.438-12.315-12.438a22.44,22.44,0,0,0-10.869,2.6l1.543,5.317A15.906,15.906,0,0,1,59.7,19.657c4.828-.014,5.616,2.742,5.616,4.506v.42C54.8,24.566,48.158,28.222,48.158,35.676c0,4.547,3.383,8.811,9.26,8.811a10.519,10.519,0,0,0,8.461-3.773h.178s1.2,5.047,7.817,3.115a43.159,43.159,0,0,1-.46-7.035V26.411Zm13.1,9.168V4.963H78.656V43.83h7.854V35.579M189.291,4.963V33.636c0,3.952.741,6.722,2.325,8.415a8.69,8.69,0,0,0,6.394,2.437,18.623,18.623,0,0,0,5.685-.845l-.1-6.167a11.892,11.892,0,0,1-2.983.356c-2.676,0-3.575-1.724-3.575-5.274V21.591h6.84V14.154h-6.84V4.963h-7.745" transform="translate(0 9.093)"/><path class="a" d="M109.017,10.784v29.2h8.1V25.032a11.218,11.218,0,0,1,.172-2.155,6.128,6.128,0,0,1,6.409-5.133,14.7,14.7,0,0,1,2.337.207V10.307a7.772,7.772,0,0,0-1.785-.181,8.56,8.56,0,0,0-7.909,6.167h-.221V10.784h-7.1l61.272-3.771M32.016,10.784v29.2h7.9V22.86a6.822,6.822,0,0,1,.374-2.391,5.343,5.343,0,0,1,4.8-3.739c3.187,0,4.679,2.7,4.679,6.61V39.983h7.889V22.653a8.174,8.174,0,0,1,.328-2.368,4.983,4.983,0,0,1,4.739-3.555c3.23,0,4.779,2.658,4.779,7.254v16h7.895v-17.2c0-9.067-4.581-12.66-9.757-12.66A10.455,10.455,0,0,0,59.9,11.712a12.247,12.247,0,0,0-3.681,3.636h-.115a8.293,8.293,0,0,0-8.013-5.222,9.136,9.136,0,0,0-8.464,4.627h-.115V10.786h-7.5" transform="translate(59.995 12.941)"/><path class="b" d="M108.1,20.748l1.543-17.522c0-1.733-2.02-3.156-4.561-3.156s-4.552,1.423-4.552,3.156l1.54,17.522c.172,1.055,1.457,1.868,3.015,1.868s2.839-.813,3.015-1.868ZM95.546,24.53l-14.335-10.1c-1.489-.865-3.725.178-4.992,2.385s-1.049,4.676.44,5.541l15.873,7.426c.994.371,2.342-.342,3.124-1.7l-.006.009C96.431,26.734,96.371,25.208,95.546,24.53Zm22.083,5.251L133.5,22.354c1.494-.865,1.707-3.334.445-5.538s-3.515-3.253-5-2.385l-14.335,10.1c-.819.678-.879,2.2-.1,3.564l-.006-.009c.782,1.356,2.127,2.069,3.121,1.7ZM108.1,46.369l1.543,17.522c0,1.736-2.02,3.156-4.561,3.156s-4.552-1.42-4.552-3.156l1.54-17.522c.172-1.052,1.457-1.865,3.015-1.865s2.839.813,3.015,1.868Zm9.533-9.024L133.5,44.759c1.494.868,1.707,3.337.445,5.547s-3.515,3.248-5,2.385L114.614,42.6c-.819-.687-.879-2.213-.1-3.569s2.121-2.061,3.115-1.687ZM95.546,42.6,81.211,52.692c-1.489.862-3.725-.184-4.992-2.385s-1.049-4.679.44-5.547l15.873-7.415c.994-.376,2.342.328,3.124,1.687h-.006c.782,1.354.721,2.88-.1,3.564Zm43.077,8.918h.328c.359,0,.672-.109.672-.422,0-.253-.155-.425-.624-.425a1.905,1.905,0,0,0-.374.032v.816Zm0,1.474h-.483V50.372a5.062,5.062,0,0,1,.905-.08,1.306,1.306,0,0,1,.828.2.664.664,0,0,1-.253,1.178V51.7a.785.785,0,0,1,.44.632,2.022,2.022,0,0,0,.187.655h-.5a1.807,1.807,0,0,1-.2-.69c-.063-.282-.236-.408-.609-.408h-.313v1.1Zm.44-3.437a2.065,2.065,0,0,0,.029,4.127,1.959,1.959,0,0,0,1.954-2.055,1.986,1.986,0,0,0-1.969-2.069h-.014Zm.029-.437a2.51,2.51,0,1,1-.014,5.021,2.511,2.511,0,1,1,0-5.021Z" transform="translate(141.271 -0.07)"/></svg>