<svg xmlns="http://www.w3.org/2000/svg" xmlns:xlink="http://www.w3.org/1999/xlink" width="418" height="127" viewBox="0 0 418 127"><defs><style>.a,.d{fill:#fff;}.a{stroke:#707070;}.b{clip-path:url(#a);}.c{fill:#0075c9;}.e{fill:#ff9e19;}</style><clipPath id="a"><rect class="a" width="418" height="127" transform="translate(264 472)"/></clipPath></defs><g transform="translate(-80 -376.186)"><g class="b" transform="translate(-184 -95.814)"><ellipse class="c" cx="209" cy="129.5" rx="209" ry="129.5" transform="translate(264 340)"/></g><g transform="translate(139 395.186)"><path class="d" d="M541.544,285.89c2.728-.1,3.62.732,3.67,2.164s-1.626,2.79-4.2,2.882-3.346-1.174-3.379-2.03.9-2.91,3.908-3.016" transform="translate(-252.394 -272.689)"/><path class="d" d="M561.531,304l2.879.15s-1.757,10.867-33.641,18.456c-25.056,5.839-52.392.116-52.392.116l3.738-3.989c12.568,2.4,20.507,3.455,32.83,3.015s27.683-4.505,35.152-8.627A40.983,40.983,0,0,0,561.531,304" transform="translate(-276.775 -265.233)"/><path class="e" d="M543.17,290.651s-4.809,2.04-6.708,5.117-2.574,8.278-7.736,8.462-8.39-5.733-8.566-10.6,4.181-7.755,10.772-7.99,11.114,1.756,12.238,5.015" transform="translate(-259.586 -272.798)"/><path class="e" d="M541.066,290.226c-4.3-3.723-8.829-1.986-10.833-1.914s-4.915-.824-4.975-2.549c-.144-4.006,6.573-8.848,16.6-9.207,5.6-.2,8.508.992,8.628,4.292s-4.57,8.483-9.42,9.378" transform="translate(-257.487 -276.535)"/><path class="e" d="M543.568,289.807c-.3-8.466,2.844-12.874,9.578-13.115s12.085,4.874,12.225,8.744c.066,1.865-.464,2.74-2.761,2.823s-6.662-1.475-9.664-1.368a17.824,17.824,0,0,0-9.378,2.916" transform="translate(-249.961 -276.474)"/><path class="e" d="M543.481,290.893c2.316-3.386,4.991-5.056,12.292-5.317,7.321-.263,13.3,2.392,13.5,7.985s-8.378,10.63-11.674,10.747-4.86-3.55-6.251-6.082-4.552-6.731-7.864-7.332" transform="translate(-249.988 -272.822)"/><path class="e" d="M544.3,290.377c6.456-.23,13.151,6.418,13.356,12.148.16,4.449-8.121,5.749-11.708,5.879s-15.685-1.317-15.843-5.753c-.22-6.164,10.037-12.123,14.195-12.274" transform="translate(-255.493 -270.842)"/><path class="d" d="M357.142,314.8h-3.57L348.4,298.429l-7.753,24.025h-5.1l11.524-35.706h3.571l6.743,21.78,20.8-21.78h3.57l-11.524,35.706h-5.1l7.755-24.025Z" transform="translate(-335.545 -272.332)"/><path class="d" d="M386.6,302.708a5.94,5.94,0,0,0-5.732-3.417c-4.642,0-8.9,3.722-10.254,7.906-1.383,4.284.764,7.907,5.406,7.907a11.847,11.847,0,0,0,7.684-3.419Zm-4.456,14.282a14.66,14.66,0,0,1-8.27,2.7,9.626,9.626,0,0,1-5.509-1.581c-2.93-2.143-4.144-6.122-2.6-10.916a19.393,19.393,0,0,1,9.712-10.967,14.282,14.282,0,0,1,6.359-1.53,8.263,8.263,0,0,1,6.627,2.7l.707-2.195h4.693l-7.738,23.974h-4.693Z" transform="translate(-323.387 -269.061)"/><path class="d" d="M386.637,312.808a8.516,8.516,0,0,0,6.234,2.652c2.092,0,4.545-1.122,5.155-3.009.888-2.755-3.042-2.908-6.181-4.082-2.6-.968-4.6-2.8-3.517-6.172,1.663-5.151,7.009-7.5,11.3-7.5,3.519,0,5.708,1.122,7.1,2.652l-3.619,3.469a6.212,6.212,0,0,0-4.543-1.887c-2.346,0-4.7,1.121-5.307,3.009-.526,1.632,1.18,2.193,3.379,2.8,3.462.97,7.867,2.654,6.27,7.6-1.465,4.541-6.6,7.345-11.3,7.345-3.826,0-6.662-1.173-8.624-3.316Z" transform="translate(-316.025 -269.061)"/><path class="e" d="M410.493,310.057l-9.376,8.978h-5.764l13.147-12.6-4.542-11.376h5.712l3.161,7.753,8.164-7.753h5.713l-11.884,11.376,5.014,12.6h-5.764Z" transform="translate(-310.936 -268.913)"/><path class="d" d="M426.576,295.208l-.741,2.3a14.337,14.337,0,0,1,7.945-2.806c3.52,0,5.968,1.581,7.183,3.979,2.9-2.193,6.079-3.979,10.415-3.979,3.419,0,6.035,1.53,7.22,4.03.885,1.836.843,4.182-.457,8.212l-3.952,12.243h-4.847l4.2-13.008c.792-2.448.71-3.774.172-4.795a4.1,4.1,0,0,0-3.815-2.09c-3.468,0-6.289,1.784-8.4,3.417a20.911,20.911,0,0,1-.957,4.233l-3.951,12.243h-4.847l4.2-13.008c.789-2.448.709-3.774.169-4.795a4.293,4.293,0,0,0-3.968-2.09c-2.958,0-5.932,1.784-7.836,3.417l-5.317,16.476h-4.845l7.738-23.975Z" transform="translate(-303.204 -269.061)"/><path class="d" d="M453.714,304.136h13.057a4.527,4.527,0,0,0-4.647-5.2,10.414,10.414,0,0,0-8.411,5.2m-1.726,4.08c-1.046,4.03,1.234,7.244,5.416,7.244a12.224,12.224,0,0,0,7.941-3.265l2.191,3.009a17.522,17.522,0,0,1-11.548,4.488c-6.988,0-10.683-5.3-8.363-12.5s8.932-12.5,15.717-12.5c6.68,0,9.783,5.407,7.495,12.5a10.76,10.76,0,0,1-.381,1.02Z" transform="translate(-289.714 -269.061)"/><path class="d" d="M475.345,297.5a14.172,14.172,0,0,1,8.1-2.806c3.52,0,6.155,1.632,7.355,4.233.9,1.939.932,4.388-.4,8.52l-3.786,11.732h-4.847l3.869-11.987c.988-3.06.889-4.488.367-5.56a4.4,4.4,0,0,0-4.191-2.346,12.608,12.608,0,0,0-7.99,3.417L468.5,319.183h-4.846l7.736-23.975h4.695Z" transform="translate(-282.833 -269.061)"/><path class="d" d="M494.871,315.1c4.439,0,8.688-3.52,10.1-7.907s-.56-7.906-5-7.906-8.686,3.52-10.1,7.906.559,7.907,5,7.907m6.586-20.4c7.09,0,10.666,5.356,8.363,12.5s-9.34,12.5-16.429,12.5-10.666-5.355-8.363-12.5,9.34-12.5,16.429-12.5" transform="translate(-274.325 -269.061)"/><path class="d" d="M504.843,312.808a8.521,8.521,0,0,0,6.236,2.652c2.092,0,4.545-1.122,5.153-3.009.889-2.755-3.04-2.908-6.18-4.082-2.6-.968-4.6-2.8-3.516-6.172,1.661-5.151,7.009-7.5,11.295-7.5,3.52,0,5.708,1.122,7.1,2.652l-3.618,3.469a6.213,6.213,0,0,0-4.545-1.887c-2.346,0-4.7,1.121-5.306,3.009-.528,1.632,1.178,2.193,3.379,2.8,3.462.97,7.866,2.654,6.27,7.6-1.465,4.541-6.606,7.345-11.3,7.345-3.825,0-6.661-1.173-8.623-3.316Z" transform="translate(-267.388 -269.061)"/></g></g></svg>