<svg xmlns="http://www.w3.org/2000/svg" width="24" height="24" viewBox="0 0 24 24"><defs><style>.a,.c{fill:none;}.b{fill:#FF9E19;stroke-width:0.5px;}.b,.c{stroke:#FF9E19;}.c{stroke-width:2px;}.d{stroke:none;}</style></defs><g transform="translate(-1 0.002)"><path class="a" d="M0,0H24V24H0Z" transform="translate(1 -0.002)"/><g transform="translate(11 6.998)"><path class="b" d="M5.227-3.7c0-1.324-1.156-1.93-2.155-2.323-.819-.3-1.19-.628-1.19-1.089,0-.382.3-.673.875-.673a2.635,2.635,0,0,1,1.4.539.282.282,0,0,0,.37-.123l.415-.595a.234.234,0,0,0-.067-.325,3.7,3.7,0,0,0-1.627-.651l.09-1.066c.011-.18-.213-.348-.483-.337s-.494.157-.483.337l.09,1.055A1.961,1.961,0,0,0,.5-7.038c0,1.2.965,1.818,1.93,2.2.853.325,1.279.685,1.279,1.19A.819.819,0,0,1,2.8-2.9a2.42,2.42,0,0,1-1.526-.617.24.24,0,0,0-.359.067L.525-2.8A.184.184,0,0,0,.581-2.5a3.374,3.374,0,0,0,1.874.786L2.377-.686c-.011.18.213.348.483.337s.494-.157.483-.337l-.09-1.044A2.1,2.1,0,0,0,5.227-3.7Z" transform="translate(-0.477 10.349)"/></g><g class="c" transform="translate(2 0.998)"><circle class="d" cx="11" cy="11" r="11"/><circle class="a" cx="11" cy="11" r="10"/></g></g></svg>