<svg xmlns="http://www.w3.org/2000/svg" width="24" height="24" viewBox="0 0 24 24"><defs><style>.a{fill:none;}.b{fill:#FF9E19;}</style></defs><path class="a" d="M0,0H24V24H0Z"/><g transform="translate(3 2)"><path class="b" d="M14,9H10A1,1,0,0,1,9,8H9a1,1,0,0,1,1-1h4a1,1,0,0,1,1,1h0A1,1,0,0,1,14,9Z" transform="translate(-3 -2)"/><path class="b" d="M14,12H10a1,1,0,0,1-1-1H9a1,1,0,0,1,1-1h4a1,1,0,0,1,1,1h0A1,1,0,0,1,14,12Z" transform="translate(-3 -2)"/><path class="b" d="M19.5,3.5,18,2,16.5,3.5,15,2,13.5,3.5,12,2,10.5,3.5,9,2,7.5,3.5,6,2V16H4a1,1,0,0,0-1,1v2a3,3,0,0,0,3,3H18a3,3,0,0,0,3-3V2ZM15,20H6a1,1,0,0,1-1-1V18H15Zm4-1a1,1,0,1,1-2,0V17a1,1,0,0,0-1-1H8V5H19Z" transform="translate(-3 -2)"/><circle class="b" cx="1" cy="1" r="1" transform="translate(13 5)"/><circle class="b" cx="1" cy="1" r="1" transform="translate(13 8)"/></g></svg>