<svg xmlns="http://www.w3.org/2000/svg" width="24" height="24" viewBox="0 0 24 24"><defs><style>.a{fill:none;}.b{fill:#FF9E19;}</style></defs><rect class="a" width="24" height="24"/><g transform="translate(2 2)"><path class="b" d="M15,10a1,1,0,1,1,1,1A1,1,0,0,1,15,10ZM8,9h5V7H8ZM22,7.5v6.97l-2.82.94L17.5,21H12V19H10v2H4.5S2,12.54,2,9.5A5.5,5.5,0,0,1,7.5,4h5a5,5,0,0,1,4-2A1.5,1.5,0,0,1,18,3.5a1.4,1.4,0,0,1-.12.58,4.834,4.834,0,0,0-.32,1.15L19.83,7.5Zm-2,2H19L15.5,6a7.213,7.213,0,0,1,.26-1.91A3.016,3.016,0,0,0,13.67,6H7.5A3.5,3.5,0,0,0,4,9.5c0,1.88,1.22,6.65,2.01,9.5H8V17h6v2h2.01l1.55-5.15L20,13.03Z" transform="translate(-2 -2)"/></g></svg>