<svg xmlns="http://www.w3.org/2000/svg" width="24" height="24" viewBox="0 0 24 24">
    <g fill="none" fill-rule="evenodd">
        <g fill="#333">
            <g>
                <path d="M12 1.5C6.201 1.5 1.5 6.201 1.5 12S6.201 22.5 12 22.5 22.5 17.799 22.5 12c0-2.785-1.106-5.455-3.075-7.425C17.455 2.606 14.785 1.5 12 1.5zM12 5c2.413 0 4.37 1.957 4.37 4.37 0 2.413-1.957 4.37-4.37 4.37-2.413 0-4.37-1.957-4.37-4.37-.007-1.161.452-2.276 1.273-3.097C9.723 5.452 10.839 4.993 12 5zm5.775 13.565c-3.301 2.917-8.259 2.917-11.56 0-.181-.148-.293-.364-.309-.597-.016-.233.065-.462.224-.633.97-1.099 2.227-1.907 3.63-2.335h.055c1.377.717 3.018.717 4.395 0h-.025c1.428.4 2.704 1.216 3.665 2.345.176.162.27.396.253.635-.017.24-.141.458-.338.595l.01-.01z" transform="translate(-1241 -52) translate(1241 52)"/>
            </g>
        </g>
    </g>
</svg>
