<svg xmlns="http://www.w3.org/2000/svg" width="98" height="52" viewBox="0 0 98 52">
    <g fill="none" fill-rule="evenodd">
        <g>
            <g>
                <g>
                    <g>
                        <g>
                            <path fill="#A5A5A5" d="M10.641 19.616L15.768 25.047 54.843 8.947z" transform="translate(-422 -2818) translate(0 2734) translate(420 80) translate(2 4) rotate(-4 121.417 -563.339)"/>
                            <path fill="#FFF" d="M8.877 6.717L11.455 12.404 5.671 13.396 0.559 24.715 55.81 7.853 12.691 0.915z" transform="translate(-422 -2818) translate(0 2734) translate(420 80) translate(2 4) rotate(-4 121.417 -563.339)"/>
                            <path fill="#A5A5A5" d="M10.919 12.455L8.361 6.855 38.059 8.246z" transform="translate(-422 -2818) translate(0 2734) translate(420 80) translate(2 4) rotate(-4 121.417 -563.339)"/>
                        </g>
                        <path fill="#A5A5A5" d="M34.188 50.15c1.428.63 2.938 1.176 4.488 1.624.137.04.249.12.324.224h-3.335c-.679-.251-1.345-.522-1.995-.81-.305-.134-.436-.476-.293-.763.143-.289.51-.41.811-.276zm-7.959-5.014c1.176 1.017 2.446 1.957 3.775 2.792.28.176.356.533.169.797-.117.165-.31.255-.508.255-.117 0-.233-.031-.338-.097-1.382-.868-2.702-1.844-3.923-2.902-.249-.214-.264-.578-.036-.811.228-.234.615-.248.861-.034zm-5.967-7.05c.79 1.303 1.696 2.563 2.694 3.743.209.249.165.61-.098.808-.112.084-.246.124-.38.124-.178 0-.356-.074-.477-.216-1.037-1.227-1.979-2.535-2.8-3.891-.166-.275-.064-.627.229-.784.293-.154.665-.06.832.215zm-3.358-8.433c.3 1.452.743 2.913 1.315 4.342.119.297-.04.628-.355.74-.072.025-.144.037-.216.037-.246 0-.478-.142-.57-.372-.596-1.489-1.058-3.012-1.371-4.526-.065-.311.15-.613.481-.674.334-.064.651.142.716.453zM15.658 20c.336.01.6.276.59.593-.017.49-.027.978-.029 1.465v.23c0 .986.031 1.949.093 2.863.022.317-.233.59-.57.61h-.04c-.318 0-.586-.234-.607-.537-.063-.939-.095-1.927-.095-2.935v-.233c.002-.5.012-1 .029-1.5.01-.31.28-.556.61-.556h.019zM18.715 19.756c1.528.04 3.104.043 4.73.013.368-.02.597.259.603.593.007.335-.253.611-.58.617-.715.014-1.42.021-2.116.021-.904 0-1.794-.011-2.668-.034-.327-.008-.585-.285-.577-.62.008-.33.272-.59.592-.59h.016zm14.832.03c.029.333-.212.627-.538.657-1.618.146-3.22.265-4.765.353h-.034c-.312 0-.573-.248-.59-.57-.019-.334.231-.62.558-.639 1.531-.089 3.122-.206 4.727-.35.317-.035.614.216.642.55zm-24.245-.798c1.49.218 3.07.394 4.692.522.326.027.57.318.545.652-.025.318-.285.558-.59.558H13.9c-1.647-.132-3.251-.311-4.766-.533-.324-.048-.549-.354-.502-.685.046-.33.353-.555.67-.514zm33.692-.36c.046.331-.179.638-.502.685-1.609.235-3.186.445-4.734.63l-.07.003c-.296 0-.552-.227-.587-.535-.038-.333.195-.633.52-.671 1.538-.185 3.106-.393 4.703-.626.325-.052.624.184.67.514zM.138 16.854c.423.143.853.282 1.29.415 1.03.313 2.12.602 3.238.858.32.074.52.398.449.724-.063.282-.306.474-.578.474-.043 0-.086-.005-.13-.015-1.145-.263-2.26-.559-3.316-.88-.37-.113-.733-.23-1.092-.349L0 16.824c.046.004.092.014.138.03zm16.201-6.709c.12 1.565.18 3.149.18 4.708v.214c0 .335-.265.606-.592.606-.326 0-.591-.271-.591-.606v-.214c0-1.528-.06-3.079-.179-4.613-.025-.333.22-.625.545-.651.314-.03.61.222.637.556zM14.672.436c.432 1.504.794 3.124 1.078 4.817.055.33-.162.643-.484.7-.035.006-.067.008-.101.008-.283 0-.533-.208-.583-.503-.275-1.648-.627-3.222-1.046-4.68-.092-.32.087-.658.401-.752.315-.098.643.089.735.41z" transform="translate(-422 -2818) translate(0 2734) translate(420 80) translate(2 4)"/>
                    </g>
                </g>
            </g>
        </g>
    </g>
</svg>
