<svg xmlns="http://www.w3.org/2000/svg" width="313" height="72" viewBox="0 0 313 72">
    <g fill="none" fill-rule="evenodd">
        <g>
            <g>
                <g fill="#FE1D00">
                    <path d="M0 0h313v55c0 9.389-7.611 17-17 17H17C7.611 72 0 64.389 0 55V0z" transform="translate(-1043 -536) translate(1043 536)"/>
                </g>
                <text fill="#FFF" font-family="SourceSansPro-Semibold, Source Sans Pro" font-size="20" font-weight="500" transform="translate(-1043 -536) translate(1043 536)">
                    <tspan x="64" y="60">+10% adicional</tspan> <tspan x="195.04" y="60" font-family="SourceSansPro-Bold, Source Sans Pro" font-size="16" font-weight="bold"> </tspan> <tspan x="201.44" y="60" font-size="14" text-decoration="underline">Ver más</tspan>
                </text>
                <g fill="#FEDD00">
                    <path d="M181.409 8.733c1.239 0 2.313.509 3.056 1.272.826.763 1.24 2.374 1.24 4.663v2.544l.002.261c.033 1.531.367 2.39 1.071 2.791l-.076.14c-.161.27-.384.478-.667.623l-.15.05c-.2.065-.412.12-.676.12h-.166l-.154-.008c-.36-.036-.703-.194-.92-.416l-.116-.096c-.255-.225-.4-.466-.544-.837l-.114.163c-.31.42-.694.704-1.208.855l-.22.09c-.524.204-1.102.334-1.68.334h-.33c-1.074 0-1.983-.424-2.727-1.018l-.148-.16c-.574-.65-.925-1.444-.925-2.384v-.423c0-1.187.578-2.374 1.486-3.053l.236-.158c1.039-.663 2.343-1.029 3.647-1.029h.496l.247.01c.328.024.645.092.91.16 0-1.442-.91-2.12-2.644-2.12h-.165c-.661 0-1.322.17-1.9.34l-.413.169h-.083s-.826-2.035 1.156-2.629h-.082c.66-.17 1.322-.254 1.982-.254zm-39.617 0c.072.004.153.024.295.17 1.487 0 2.891.593 3.883 1.526l.18.194c.88.993 1.39 2.27 1.39 3.621v.17l-.006.222c-.02.453-.101.94-.243 1.304h-8.343l.008.21c.062.764.453 1.45.983 1.994l.178.125c.55.364 1.226.639 1.97.639l.602-.001c.24-.003.439-.016.637-.084l.166-.078c.277-.118.564-.177.908-.177.165 0 .413 0 .578.085l.137.078c.263.166.465.395.607.685l.098.103c.13.138.249.287.315.49l-.27.17c-1.09.657-2.317 1.018-3.613 1.018h-.826c-1.487 0-2.891-.594-3.883-1.611l-.18-.196c-.88-1.002-1.39-2.364-1.39-3.874v-.678c0-1.696.662-3.222 1.736-4.324l.179-.19c.978-.99 2.314-1.59 3.869-1.59zm-17.19 0c.076.002.174.019.468.17 1.487 0 2.808.593 3.8 1.526l.18.194c.88.983 1.39 2.19 1.39 3.621v.17l-.05.313c-.067.426-.133.874-.199 1.213h-8.343l.032.252c.119.747.439 1.418.96 1.952l.177.125c.55.364 1.226.639 1.97.639l.602-.001c.24-.003.439-.016.637-.084l.166-.078c.277-.118.564-.177.908-.177.165 0 .413 0 .578.085l.137.078c.263.166.465.395.607.685l.098.103c.13.138.249.287.315.49l-.27.17c-1.09.657-2.317 1.018-3.613 1.018h-.826c-1.57 0-2.974-.594-3.965-1.611l-.181-.196c-.88-1.002-1.389-2.364-1.389-3.874v-.678c0-1.696.661-3.222 1.735-4.324l.18-.19c.977-.99 2.313-1.59 3.868-1.59zm39.376-3.476v3.476h3.222v2.205h-3.222v5.765c0 .509.165 1.102.413 1.526.248.34.744.594 1.074.594h.165l.22-.007c.586-.033 1.157-.2 1.598-.502v2.544h.082c-.826.254-1.652.339-2.478.339h-.495c-.91 0-1.735-.424-2.396-1.018l-.14-.192c-.491-.713-.769-1.503-.769-2.436v-6.529h-3.304l1.982-2.289h1.405V6.274l2.643-1.017zM103.674 15.94s1.156 4.494 4.709 2.459l2.065.678v2.035l-1.487-.34-.661-.169-.217.095c-.507.22-1.022.414-1.6.414l-.188-.018c-1.243-.157-2.31-1.064-2.704-2.356l-.089-.254c-.106-.34-.159-.679-.159-1.018 0-.593.166-1.102.33-1.526zm67.822-7.207v1.357l.137-.165c.667-.749 1.675-1.192 2.754-1.192h.165c.744 0 1.487.17 2.065.424l-.117.085c-.183.143-.31.297-.378.509-.165.339-.248.763-.165 1.271 0 .255 0 .424.082.679l-.171-.11c-.472-.283-1.068-.484-1.729-.484l-.22.033c-.654.121-1.234.442-1.68.9l-.129.145c-.41.502-.614 1.196-.614 1.89v7.037h-2.644V8.733h2.644zm-20.57-6.19v11.023l4.13-4.833h3.305l-4.13 4.748 4.873 7.631h-2.643l-.135-.01c-.35-.047-.627-.273-.774-.499-.165-.17-3.304-5.087-3.304-5.087l-1.322 1.441v4.155h-2.643V3.815l2.643-1.271zm-48.326.085l.26.066c1.371.384 2.51 1.281 3.21 2.478 1.156 2.12 1.404 4.409-.744 6.613l.096.23c.341.755.88 1.428 1.556 1.89l.159.091c.378.203.812.333 1.246.333.908 0 1.652-.424 2.147-1.102l.131-.145c.422-.503.696-1.196.696-1.89 0-.17-.083-.34-.083-.509l2.809-.509v-.084c.082.593.165 1.271.165 1.95 0 .848-.083 1.61-.248 2.289l-.165.204c-.91 1.06-2.24 1.666-3.718 1.746-2.313 0-4.378-.933-5.121-3.985l-.149-.041c-.198-.044-.397-.044-.595-.044-.743 0-1.322.255-1.9.51l-.146.106c-.672.527-1.176 1.402-1.176 2.352 0 .424 0 .763.166 1.102l.082.21c.35.825.973 1.427 1.735 1.74l-.991 2.883h-.083c-1.239-.509-2.396-1.272-3.387-2.204l-.096-.255c-.174-.51-.234-1.03-.234-1.61 0-.933.248-1.866.66-2.63 1.157-2.204 2.975-3.56 5.866-2.712l.151-.19c.485-.644.765-1.43.84-2.354l-.005-.179c-.078-1.36-1.041-2.456-2.308-2.619l-.149-.041c-.198-.044-.396-.044-.594-.044-.661 0-1.322.255-1.818.679l-1.9-2.29.295-.248c.991-.806 2.063-1.401 3.34-1.787zm31.804-.084v14.753c.083 1.44.413 2.289 1.322 2.628l-.072.133c-.368.61-1.14 1.054-1.91 1.054h-.166c-1.239 0-1.817-.848-1.817-2.628V3.9l2.643-1.356zM82.691 6.698c3.721 0 6.73 3.008 6.853 6.795l.004.242c0 3.9-3.14 7.038-6.857 7.038h-.495c-3.721 0-6.73-3.008-6.853-6.795l-.004-.243c0-3.9 3.057-7.037 6.857-7.037h.495zm-72.117.085c2.058 0 3.889 1.012 5.056 2.59l.148.208-2.726 2.12c-.617-.87-1.521-1.446-2.647-1.588l-.244-.023c-1.735.084-3.14 1.526-3.14 3.306v.51c0 1.718 1.31 3.2 2.962 3.3l.178.006c1.166 0 2.186-.601 2.784-1.45l.107-.161 2.726 2.035c-1.239 1.865-3.221 3.052-5.452 3.052H9.83c-3.634 0-6.608-3.052-6.608-6.783.082-.17.082-.254.082-.254 0-3.816 3.057-6.868 6.774-6.868h.496zm30.978.17v3.221h-6.939v2.035h6.278v2.968h-6.278v2.12h7.022v3.221H30.978V6.953h10.574zm19.991 0v13.48H57.91V6.954h3.634zm-37.339 0c1.388 0 2.632.517 3.598 1.275l.202.166c.744.763 1.157 1.78 1.157 2.967v.424c0 1.707-.986 3.18-2.45 3.896l-.194.09 3.14 4.663h-4.214l-2.643-4.07h-1.57v4.07h-3.634l-.083-13.481h6.691zm24.37 0c4.613 0 7.323 2.684 7.431 6.38l.004.233c0 3.9-2.726 6.783-7.435 6.783h-4.957V6.953h4.957zm26.104 0v3.221h-3.965V20.35h-3.635l.083-10.09h-3.965V6.953h11.482zm107.309 8.309c-2.148 0-3.222.678-3.222 2.12 0 1.102.578 1.61 1.818 1.61h.33c1.157 0 2.148-1.017 2.148-2.204V15.43c-.33-.085-.661-.17-1.074-.17zm-99.626-5.088c-1.818 0-3.304 1.527-3.304 3.392v.254c0 1.885 1.389 3.374 3.198 3.472l.188.005c1.818 0 3.305-1.527 3.305-3.392v-.254c0-1.885-1.39-3.374-3.199-3.472l-.188-.005zm-33.704.17H47.17v6.868l1.487-.085c2.076 0 3.534-1.188 3.63-3.182l.004-.21c0-2.12-1.404-3.391-3.634-3.391zm93.347.678h-.247c-1.57 0-2.479.848-2.892 2.629h5.7l-.005-.165c-.084-1.366-1.205-2.464-2.556-2.464zm-17.182 0h-.248c-1.57 0-2.478.848-2.891 2.629h5.7l-.005-.165c-.085-1.366-1.206-2.464-2.556-2.464zm-101.279-.848h-2.395v3.222l2.395.085c1.24 0 1.983-.593 1.983-1.61v-.086c0-1.102-.743-1.61-1.983-1.61zm75.835-2.967c.248 0 .496 0 .744.085l.208.045c.826.204 1.565.692 2.022 1.396 0 0-4.378-1.187-4.378 3.052l-1.404 1.527-1.735-1.018.991-1.187.413-.509.04-.29c.092-.578.243-1.139.456-1.575l.092-.161c.52-.84 1.463-1.365 2.551-1.365zm10.574-4.663l.413 1.441.165.678.187.117c.482.319.841.712 1.135 1.24l.09.163c.197.39.323.844.323 1.363 0 .933-.33 1.696-.908 2.29l-.112.142c-.503.606-1.281 1.05-2.202 1.13l.006-.002c.22-.16 2.981-3.264.01-5.386l-.18-.124-.662-2.035 1.735-1.017zm-73.026.424l3.387 1.102-2.809 2.035h-2.643l2.065-3.137z" transform="translate(-1043 -536) translate(1043 536) translate(62 10)"/>
                </g>
            </g>
        </g>
    </g>
</svg>
