<svg xmlns="http://www.w3.org/2000/svg" width="89" height="27" viewBox="0 0 89 27">
    <g fill="none" fill-rule="evenodd">
        <g>
            <g>
                <g>
                    <g>
                        <g>
                            <g>
                                <g>
                                    <path stroke="#333" stroke-width="2.3" d="M8.498-1.149c.462 0 .924.168 1.287.504 1.715 1.672 3.76 2.421 6.43 2.423.502-.006.983.19 1.338.545.354.354.55.836.545 1.337 0 .487 0 .975.023 1.485.061 3.227.081 7.088-1.72 10.357-1.29 2.342-3.487 4.415-7.286 5.728-4.736-1.299-7.05-3.366-8.41-5.695-1.914-3.278-1.894-7.147-1.833-10.34.024-.56.024-1.048.024-1.535-.005-.5.191-.983.545-1.337.355-.354.837-.55 1.337-.545 2.674-.002 4.716-.752 6.412-2.403.384-.356.846-.524 1.308-.524z" transform="translate(-741 -1543) translate(0 1527) translate(442 17) translate(302) translate(0 2.3) translate(.058) translate(.153)"/>
                                    <path fill="#F7F7F7" fill-rule="nonzero" d="M16.972 5.197c-.024-.531-.024-1.038-.024-1.545.003-.193-.072-.38-.208-.516-.137-.136-.323-.212-.516-.208-3.019 0-5.313-.87-7.22-2.729-.285-.264-.726-.264-1.012 0C6.082 2.06 3.79 2.928.77 2.928.577 2.924.391 3 .254 3.136c-.136.137-.211.323-.208.516 0 .506 0 1.012-.024 1.545-.097 5.071-.241 12.025 8.234 14.946l.242.048.241-.048c8.45-2.921 8.33-9.851 8.233-14.946z" transform="translate(-741 -1543) translate(0 1527) translate(442 17) translate(302) translate(0 2.3) translate(.058) translate(.153)"/>
                                    <g>
                                        <path fill="#333" d="M3.158 3.024c.003-.05.014-.201.036-.298.1-.428.376-1.146 1.124-1.146h.31c.747 0 1.024.718 1.123 1.147.023.095.034.246.036.285v1.681H3.159v-1.67zm4.985 1.67h-.787l-.001-2.238c-.002-.03-.02-.3-.08-.506C7.102 1.364 6.509 0 4.734 0h-.52C2.44 0 1.846 1.364 1.674 1.95c-.061.206-.08.476-.082.522v2.221H.795c-.44 0-.795.356-.795.795v4.72c0 .438.356.794.795.794h7.348c.438 0 .794-.356.794-.795V5.488c0-.439-.356-.795-.794-.795z" transform="translate(-741 -1543) translate(0 1527) translate(442 17) translate(302) translate(0 2.3) translate(.058) translate(.153) translate(3.93 3.68)"/>
                                        <path fill="#F7F7F7" d="M4.86 7.938l-.02.076V9.45h-.722V8.009l-.022-.08-.329-1.203c.036-.356.337-.635.702-.635.36 0 .663.278.7.641l-.31 1.206z" transform="translate(-741 -1543) translate(0 1527) translate(442 17) translate(302) translate(0 2.3) translate(.058) translate(.153) translate(3.93 3.68)"/>
                                    </g>
                                </g>
                            </g>
                        </g>
                        <g>
                            <text fill="#333" font-family="SourceSansPro-Semibold, Source Sans Pro" font-size="7.36" font-weight="500" transform="translate(-741 -1543) translate(0 1527) translate(442 17) translate(302) translate(22.54)">
                                <tspan x="0" y="8">Tu compra</tspan>
                            </text>
                            <path fill="#FE1D00" d="M0 10.12L62.56 10.12 55.66 22.08 0 22.08z" transform="translate(-741 -1543) translate(0 1527) translate(442 17) translate(302) translate(22.54)"/>
                            <text fill="#FFF" font-family="SourceSansPro-Bold, Source Sans Pro" font-size="8.28" font-weight="bold" transform="translate(-741 -1543) translate(0 1527) translate(442 17) translate(302) translate(22.54)">
                                <tspan x="4.14" y="18.12">100% segura</tspan>
                            </text>
                        </g>
                    </g>
                </g>
            </g>
        </g>
    </g>
</svg>
