<svg xmlns="http://www.w3.org/2000/svg" width="72" height="16.202" viewBox="0 0 72 16.202"><defs><style>.a{fill:#1c1c1c;}</style></defs><path class="a" d="M547.685,61.464H545.16V50.2h2.525Z" transform="translate(-491.872 -45.301)"/><path class="a" d="M6.13,52.239a2.8,2.8,0,0,0-2.085.891,3.351,3.351,0,0,0-.851,2.427,3.4,3.4,0,0,0,.861,2.456,2.838,2.838,0,0,0,2.114.9,2.594,2.594,0,0,0,1.791-.607,2.985,2.985,0,0,0,.891-1.37l2.231.812a5.065,5.065,0,0,1-1.7,2.456,4.914,4.914,0,0,1-3.21,1.028,5.264,5.264,0,0,1-3.934-1.625,6,6,0,0,1-.02-8.1,5.233,5.233,0,0,1,3.895-1.6A5,5,0,0,1,9.37,50.928,4.7,4.7,0,0,1,11,53.4l-2.28.832a2.862,2.862,0,0,0-.842-1.409A2.491,2.491,0,0,0,6.13,52.239Z" transform="translate(-0.65 -45.03)"/><path class="a" d="M118.124,57.984a3.034,3.034,0,0,0,4.306.01,3.382,3.382,0,0,0,.881-2.486,3.3,3.3,0,0,0-.881-2.447,3.072,3.072,0,0,0-4.306,0,3.3,3.3,0,0,0-.881,2.447A3.389,3.389,0,0,0,118.124,57.984Zm2.153-8.084a5.44,5.44,0,1,1-4.022,1.585A5.48,5.48,0,0,1,120.277,49.9Z" transform="translate(-103.503 -45.03)"/><path class="a" d="M239.4,49.963v2.574a5.96,5.96,0,0,0-.832-.069c-1.918,0-2.867.939-2.867,3.024v5.657H233.16V49.924h2.476v1.8a2.813,2.813,0,0,1,1.2-1.341,3.63,3.63,0,0,1,1.889-.489A3.1,3.1,0,0,1,239.4,49.963Z" transform="translate(-210.406 -45.024)"/><path class="a" d="M306.388,54.359h5.666a2.343,2.343,0,0,0-.773-1.673,2.926,2.926,0,0,0-2.075-.675,2.786,2.786,0,0,0-1.987.7A2.491,2.491,0,0,0,306.388,54.359Zm5.97,2.76,2.319.675a4.792,4.792,0,0,1-1.859,2.407,5.705,5.705,0,0,1-3.357.949,6.032,6.032,0,0,1-4.179-1.546,5.29,5.29,0,0,1-1.722-4.14,5.23,5.23,0,0,1,1.673-4,6.122,6.122,0,0,1,8.093-.078,5.4,5.4,0,0,1,1.5,4.016,2.438,2.438,0,0,1-.068.8h-8.436a2.672,2.672,0,0,0,.959,1.977,3.26,3.26,0,0,0,2.192.783A2.738,2.738,0,0,0,312.358,57.119Z" transform="translate(-273.916 -45.027)"/><path class="a" d="M426.744,16.3H424.16V.14h2.6V6.648a3.107,3.107,0,0,1,1.351-1.135,4.82,4.82,0,0,1,2.153-.46,4.75,4.75,0,0,1,3.787,1.566,5.872,5.872,0,0,1,1.36,4,5.887,5.887,0,0,1-1.429,4.071,4.838,4.838,0,0,1-3.807,1.585,3.741,3.741,0,0,1-3.435-1.683Zm5.157-3.2a3.5,3.5,0,0,0,.832-2.466,3.474,3.474,0,0,0-.822-2.447,2.805,2.805,0,0,0-2.173-.891,2.835,2.835,0,0,0-2.153.891,3.4,3.4,0,0,0-.842,2.447,3.5,3.5,0,0,0,.842,2.456,3,3,0,0,0,4.316.01Z" transform="translate(-382.714 -0.14)"/><path class="a" d="M589.214,61.454H578.077V59.243l7.036-6.811H577.96V50.2h11.235v2.147l-7.125,6.87h7.144v2.237Z" transform="translate(-521.462 -45.301)"/><path class="a" d="M698.9,130.376a1.788,1.788,0,0,1-.538-1.311,1.809,1.809,0,0,1,.538-1.321,1.745,1.745,0,0,1,1.311-.548,1.871,1.871,0,0,1,1.869,1.869,1.744,1.744,0,0,1-.548,1.311,1.825,1.825,0,0,1-1.321.538,1.788,1.788,0,0,1-1.311-.538Z" transform="translate(-630.076 -114.761)"/></svg>