<svg xmlns="http://www.w3.org/2000/svg" width="31" height="23" viewBox="0 0 31 23">
    <defs>
        <linearGradient id="y115d4fusa" x1="50%" x2="50%" y1="0%" y2="100%">
            <stop offset="0%" stop-color="#F6026D"/>
            <stop offset="100%" stop-color="#FE5E02"/>
        </linearGradient>
    </defs>
    <g fill="none" fill-rule="evenodd">
        <g fill-rule="nonzero">
            <g>
                <g>
                    <g transform="translate(-17 -601) translate(10 536) translate(7 65) translate(.086 .2)">
                        <path fill="url(#y115d4fusa)" d="M28.174 21.6H1.654C.741 21.6 0 20.86 0 19.946V1.654C0 .741.74 0 1.654 0h26.52c.439 0 .86.174 1.17.485.31.31.485.73.485 1.17v18.29c0 .914-.741 1.655-1.655 1.655"/>
                        <path fill="#E4D6B6" d="M23.657 6.171c0 1.705-1.381 3.086-3.086 3.086-1.704 0-3.085-1.381-3.085-3.086 0-1.704 1.381-3.085 3.085-3.085 1.705 0 3.086 1.381 3.086 3.085"/>
                        <path fill="#F0C41B" d="M27.257 6.171c0 1.248-.752 2.374-1.905 2.851-1.153.478-2.48.214-3.363-.669-.882-.882-1.146-2.21-.668-3.362.477-1.153 1.602-1.905 2.85-1.905 1.705 0 3.086 1.381 3.086 3.085"/>
                        <path fill="#E4D6B6" d="M7.2 3.6H2.571c-.284 0-.514.23-.514.514 0 .284.23.515.514.515H7.2c.284 0 .514-.23.514-.515 0-.284-.23-.514-.514-.514M14.4 4.114c0-.284-.23-.514-.514-.514H9.257c-.284 0-.514.23-.514.514 0 .284.23.515.514.515h4.629c.284 0 .514-.23.514-.515M3.086 6.171H2.57c-.284 0-.514.23-.514.515 0 .284.23.514.514.514h.515c.284 0 .514-.23.514-.514 0-.284-.23-.515-.514-.515M6.171 6.171H5.143c-.284 0-.514.23-.514.515 0 .284.23.514.514.514H6.17c.284 0 .515-.23.515-.514 0-.284-.23-.515-.515-.515M8.743 6.171h-.514c-.284 0-.515.23-.515.515 0 .284.23.514.515.514h.514c.284 0 .514-.23.514-.514 0-.284-.23-.515-.514-.515M11.829 6.171H10.8c-.284 0-.514.23-.514.515 0 .284.23.514.514.514h1.029c.284 0 .514-.23.514-.514 0-.284-.23-.515-.514-.515M13.526 6.32c-.098.097-.154.228-.155.366.001.136.055.267.15.365.147.148.369.193.562.113.193-.08.318-.27.317-.478-.001-.135-.055-.264-.15-.36-.201-.195-.52-.197-.724-.005"/>
                        <rect width="4.629" height="3.086" x="2.571" y="14.914" fill="#E4D6B6" rx="1.543"/>
                        <rect width="4.629" height="3.086" x="9.257" y="14.914" fill="#E4D6B6" rx="1.543"/>
                        <rect width="4.629" height="3.086" x="15.943" y="14.914" fill="#E4D6B6" rx="1.543"/>
                        <rect width="4.629" height="3.086" x="22.629" y="14.914" fill="#E4D6B6" rx="1.543"/>
                    </g>
                </g>
            </g>
        </g>
    </g>
</svg>
