<svg xmlns="http://www.w3.org/2000/svg" width="56" height="64" viewBox="0 0 56 64">
    <g fill="none" fill-rule="evenodd">
        <g>
            <g>
                <g>
                    <g>
                        <g>
                            <g>
                                <path fill="#A9A9AB" d="M13.418 45.611L7.208 42.092 17.514 35.836 28.668 30.044 29.03 49.778z" transform="translate(-785 -298) translate(0 132) translate(173 85) translate(520 72) translate(80 1) translate(12.444 8.889)"/>
                                <path fill="#B76F3F" d="M29.03 49.778L14.562 41.425 14.562 26.328 29.03 34.681z" transform="translate(-785 -298) translate(0 132) translate(173 85) translate(520 72) translate(80 1) translate(12.444 8.889)"/>
                                <path fill="#8C4320" d="M14.562 26.328L14.562 41.425 29.03 49.778 14.982 41.187z" transform="translate(-785 -298) translate(0 132) translate(173 85) translate(520 72) translate(80 1) translate(12.444 8.889)"/>
                                <path fill="#9C480C" d="M20.641 44.983L20.641 29.837 22.938 31.164 22.938 46.439z" transform="translate(-785 -298) translate(0 132) translate(173 85) translate(520 72) translate(80 1) translate(12.444 8.889)"/>
                                <path fill="#EFD995" d="M29.03 34.681L14.562 26.328 29.03 17.975 43.498 26.328z" transform="translate(-785 -298) translate(0 132) translate(173 85) translate(520 72) translate(80 1) translate(12.444 8.889)"/>
                                <path fill="#FFEDB4" d="M42.431 26.328L29.072 34.015 14.562 26.328 29.03 34.681 43.498 26.328 29.03 17.975z" transform="translate(-785 -298) translate(0 132) translate(173 85) translate(520 72) translate(80 1) translate(12.444 8.889)"/>
                                <path fill="#AB774D" d="M21.022 22.647L37.801 32.283 40.343 30.839 21.087 22.582z" transform="translate(-785 -298) translate(0 132) translate(173 85) translate(520 72) translate(80 1) translate(12.444 8.889)"/>
                                <path fill="#E6E1E4" d="M23.386 21.255L29.385 24.609 27.003 25.979 21.089 22.581zM40.409 30.774L37.866 32.216 29.408 27.358 31.857 25.993z" transform="translate(-785 -298) translate(0 132) translate(173 85) translate(520 72) translate(80 1) translate(12.444 8.889)"/>
                                <path fill="#C39055" d="M22.743 31.073L37.698 22.738 37.661 22.959 22.938 31.164z" transform="translate(-785 -298) translate(0 132) translate(173 85) translate(520 72) translate(80 1) translate(12.444 8.889)"/>
                                <path fill="#F9F9F9" d="M31.857 25.993L29.408 27.358 27.003 25.979 29.385 24.609z" transform="translate(-785 -298) translate(0 132) translate(173 85) translate(520 72) translate(80 1) translate(12.444 8.889)"/>
                                <path fill="#F1F1F1" d="M27.003 25.979L29.408 27.358 22.741 31.075 20.444 29.744zM37.7 22.737L31.857 25.993 29.385 24.609 35.157 21.296z" transform="translate(-785 -298) translate(0 132) translate(173 85) translate(520 72) translate(80 1) translate(12.444 8.889)"/>
                                <path fill="#B3A4AD" d="M20.445 44.892L20.445 29.746 22.743 31.073 22.743 46.348z" transform="translate(-785 -298) translate(0 132) translate(173 85) translate(520 72) translate(80 1) translate(12.444 8.889)"/>
                                <path fill="#D9AF6A" d="M29.03 49.778L43.498 41.425 43.498 26.328 29.03 34.681z" transform="translate(-785 -298) translate(0 132) translate(173 85) translate(520 72) translate(80 1) translate(12.444 8.889)"/>
                                <path fill="#9D6F40" d="M29.03 49.778L43.498 41.425 43.498 41.166 29.03 49.519z" transform="translate(-785 -298) translate(0 132) translate(173 85) translate(520 72) translate(80 1) translate(12.444 8.889)"/>
                                <path fill="#9C480C" d="M29.887 39.056L34.009 36.675 34.009 33.231 29.964 35.394 29.887 35.613zM37.966 44.611L37.966 29.52 35.487 30.951 35.487 46.042z" transform="translate(-785 -298) translate(0 132) translate(173 85) translate(520 72) translate(80 1) translate(12.444 8.889)"/>
                                <path fill="#D6D6D6" d="M38.06 44.668L38.06 29.464 35.581 30.894 35.581 46.098z" transform="translate(-785 -298) translate(0 132) translate(173 85) translate(520 72) translate(80 1) translate(12.444 8.889)"/>
                                <path fill="#A45823" d="M15.865 32.615l2.742 1.585v-4.233l-2.742-1.585v4.233zm3.051 2.12l-3.36-1.941v-4.947l3.36 1.941v4.947z" transform="translate(-785 -298) translate(0 132) translate(173 85) translate(520 72) translate(80 1) translate(12.444 8.889)"/>
                                <path fill="#A45823" d="M16.596 32.324L17.738 32.983 17.738 31.627 16.596 30.968z" transform="translate(-785 -298) translate(0 132) translate(173 85) translate(520 72) translate(80 1) translate(12.444 8.889)"/>
                                <path fill="#A45823" d="M16.039 30.657L18.297 31.96 17.168 29.6z" transform="translate(-785 -298) translate(0 132) translate(173 85) translate(520 72) translate(80 1) translate(12.444 8.889)"/>
                                <path fill="#FEFEFE" d="M30.049 35.459L34.169 33.077 34.086 33.012 29.964 35.393z" transform="translate(-785 -298) translate(0 132) translate(173 85) translate(520 72) translate(80 1) translate(12.444 8.889)"/>
                                <path fill="#8B8B8B" d="M29.964 38.837L30.049 38.902 30.049 35.459 29.964 35.394z" transform="translate(-785 -298) translate(0 132) translate(173 85) translate(520 72) translate(80 1) translate(12.444 8.889)"/>
                                <path fill="#D6D6D6" d="M30.049 38.902L34.169 36.521 34.169 33.077 30.049 35.459z" transform="translate(-785 -298) translate(0 132) translate(173 85) translate(520 72) translate(80 1) translate(12.444 8.889)"/>
                                <path fill="#6F6F6F" d="M30.279 35.928L33.939 33.812 33.939 33.594 30.279 35.71z" transform="translate(-785 -298) translate(0 132) translate(173 85) translate(520 72) translate(80 1) translate(12.444 8.889)"/>
                                <path fill="#8E8E8E" d="M31.793 36.015L33.939 34.779 33.939 34.561 31.793 35.797zM30.293 38.333L31.411 37.688 31.411 35.836 30.293 36.481zM31.793 36.489L33.939 35.253 33.939 35.035 31.793 36.272zM31.793 36.964L33.939 35.728 33.939 35.509 31.793 36.746zM31.793 37.438L33.939 36.202 33.939 35.983 31.793 37.22z" transform="translate(-785 -298) translate(0 132) translate(173 85) translate(520 72) translate(80 1) translate(12.444 8.889)"/>
                                <path fill="#F1F1F1" d="M36.085 28.357L37.747 29.464 35.581 30.715 35.581 30.894 38.059 29.464z" transform="translate(-785 -298) translate(0 132) translate(173 85) translate(520 72) translate(80 1) translate(12.444 8.889)"/>
                                <g fill="#FF3650">
                                    <path d="M51.889 46.441c-3.37 6.784-9.176 11.856-16.355 14.276-3.022 1.025-6.096 1.505-9.118 1.505-11.422 0-22.086-6.93-26.416-18.178l4.325-1.667C8.904 54.28 21.958 60.405 34.052 56.329c6.01-2.02 10.872-6.27 13.686-11.949 2.813-5.68 3.253-12.117 1.227-18.126-3.59-10.64-14.253-17.223-25.149-16.001l2.68 5.552-17.5-1.291L18.862 0l2.836 5.876c13.558-2.321 27.186 5.656 31.655 18.901 2.42 7.18 1.9 14.874-1.464 21.664" transform="translate(-785 -298) translate(0 132) translate(173 85) translate(520 72) translate(80 1) translate(12.444 8.889)"/>
                                </g>
                            </g>
                        </g>
                    </g>
                </g>
            </g>
        </g>
    </g>
</svg>
