<svg xmlns="http://www.w3.org/2000/svg" xmlns:xlink="http://www.w3.org/1999/xlink" width="80" height="80" viewBox="0 0 80 80">
    <defs>
        <path id="u71c9w2zsa" d="M30.391.653L3.038 16.349l-2.344-1.34-.01 2.753v.011l.001-.001c.007.038.036.077.089.109l4.832 2.807c.056.032.128.05.198.053h.03c.056-.002.108-.014.148-.038L35.626 3.695c.047-.027.066-.063.064-.1h.002l.01-2.725-3.275.763-1.658-.964c-.062-.035-.14-.053-.214-.053-.062 0-.12.012-.164.037"/>
        <path id="s6ljcrkorc" d="M29.712.679L.068 17.688c-.098.056-.085.153.026.218l4.832 2.806c.111.065.28.073.376.017l29.643-17.01c.098-.055.086-.152-.026-.217L30.088.695c-.06-.035-.14-.054-.214-.054-.06 0-.12.012-.162.038"/>
        <linearGradient id="tlmtyiwlnd" x1="23.706%" x2="59.079%" y1="26.506%" y2="58.112%">
            <stop offset="0%" stop-color="#C0C0F8"/>
            <stop offset="100%" stop-color="#E9E9FE"/>
        </linearGradient>
    </defs>
    <g fill="none" fill-rule="evenodd">
        <g>
            <g>
                <g transform="translate(-236 -171) translate(171 160) translate(65 11)">
                    <rect width="80" height="80" fill="#FFF" rx="8"/>
                    <g>
                        <path fill="#000" fill-opacity=".3" d="M0 32.547L40.74 58.159 54.148 54.736 42.427 40.129 16.596 22.133z" transform="translate(3 9)"/>
                        <path fill="#0F044C" d="M34.882 14.256c.448 1.278-2.567 3.496-6.731 4.953-4.166 1.457-7.905 1.603-8.352.326-.447-1.278 2.567-3.495 6.732-4.952 4.165-1.459 7.905-1.604 8.351-.327" transform="translate(3 9)"/>
                        <path fill="#F78301" d="M24.389 8.293L24.336 9.607 24.888 8.16 24.694 7.523z" transform="translate(3 9)"/>
                        <g>
                            <path fill="#FFD94E" d="M13.933 7.784l.052-1.29s-1.09 1.088-1.091 1.115c0 .026 1.039.175 1.039.175" transform="translate(3 9) translate(24.198 2.074)"/>
                            <path fill="#FFD94E" d="M6.942 11.609C3.133 11.518.11 9.58.19 6.219.272 2.856 3.424.205 7.233.296c3.81.092 6.831 2.89 6.75 6.254-.08 3.362-3.233 5.15-7.041 5.059" transform="translate(3 9) translate(24.198 2.074)"/>
                            <path fill="#FFD94E" d="M6.89 13.786C3.08 13.695.058 10.895.139 7.533.219 4.171 3.372 1.519 7.18 1.61c3.81.091 6.831 2.89 6.75 6.253-.08 3.363-3.233 6.015-7.041 5.923" transform="translate(3 9) translate(24.198 2.074)"/>
                            <path fill="#F78301" d="M2.222 3.312C.971 4.382.18 5.87.14 7.532c-.08 3.363 2.941 6.163 6.75 6.254 1.885.046 3.607-.581 4.878-1.633L2.222 3.312z" transform="translate(3 9) translate(24.198 2.074)"/>
                            <path fill="#FFC00C" d="M6.896 13.515C3.257 13.428.37 10.753.446 7.54c.077-3.212 3.09-5.745 6.728-5.658 3.639.087 6.527 2.761 6.45 5.973-.077 3.213-3.089 5.747-6.728 5.66" transform="translate(3 9) translate(24.198 2.074)"/>
                            <path fill="#FFB600" d="M6.923 12.368c-2.921-.07-5.239-2.217-5.177-4.796.062-2.58 2.48-4.613 5.4-4.543 2.922.07 5.24 2.217 5.178 4.796-.061 2.579-2.48 4.613-5.4 4.543" transform="translate(3 9) translate(24.198 2.074)"/>
                            <path fill="#FFD94E" d="M12.324 7.825c.003-.107 0-.213-.006-.318-.243 2.426-2.579 4.292-5.38 4.225-2.8-.067-5.044-2.043-5.171-4.478-.01.105-.019.21-.021.318-.062 2.578 2.256 4.726 5.177 4.796 2.921.07 5.34-1.965 5.401-4.543" transform="translate(3 9) translate(24.198 2.074)"/>
                            <path fill="#FFD94E" d="M8.05 8.092L6.966 7.087c-1.046.237-2.993.68-4.548 1.046.386 1.163 1.33 2.124 2.562 2.633l3.07-2.674zM6.343 11.122c.172.02.348.035.525.039 1.276.031 2.446-.389 3.316-1.092l-1.771-1.64-2.07 2.693zM5.801 6.01L3.758 4.115c-.688.6-1.302 1.262-1.467 2.147l3.51-.254z" transform="translate(3 9) translate(24.198 2.074)"/>
                            <path fill="#F78301" d="M6.87 3.587c2.922.07 5.24 2.218 5.178 4.796-.013.522-.123 1.022-.314 1.487.36-.613.572-1.306.59-2.045.062-2.579-2.256-4.726-5.177-4.796-2.33-.056-4.337 1.226-5.087 3.056.9-1.526 2.726-2.547 4.81-2.498M.19 6.22c-.01.5-.057.861.06 1.33.152-.494.481-1.97.481-1.97l.526-1.171.437-.361.74-.54.061-1.69C1.117 2.895.234 4.46.191 6.218M13.538 6.046l.029-.346c.001-.05.04-.09.086-.088h.027c.046.002.083.043.082.093l-.03.346c0 .05-.039.09-.086.088h-.026c-.046-.001-.083-.043-.082-.093M12.932 4.718l.036-.622c.001-.057.045-.102.098-.1l.06.001c.054 0 .096.048.095.105l-.036.623c-.002.056-.045.101-.098.1l-.061-.002c-.053-.001-.095-.048-.094-.105M12.092 3.56l.036-.603c.001-.064.05-.115.111-.114l.105.003c.06.002.108.055.107.118l-.036.605c-.001.063-.05.114-.111.112l-.107-.002c-.059-.001-.107-.054-.105-.119M10.835 2.625l.038-.732c.002-.063.051-.114.112-.113l.105.003c.06.002.107.054.106.118l-.039.733c0 .063-.05.114-.11.113l-.107-.003c-.06-.001-.107-.054-.105-.119M9.57 2.012l.04-.844c.002-.063.052-.115.112-.113l.105.003c.06 0 .107.054.106.118l-.04.843c-.002.064-.052.115-.112.114l-.106-.003c-.06-.002-.107-.054-.106-.118M8.299 1.637l.04-.81C8.34.762 8.39.712 8.45.713l.106.003c.06.001.107.055.105.118l-.04.81c0 .065-.05.115-.11.114l-.107-.003c-.06-.001-.107-.054-.105-.118M7.022 1.51l.04-.823c.002-.065.052-.115.112-.114l.105.002c.06.002.107.056.106.12l-.04.822c-.002.064-.051.115-.111.113l-.106-.002c-.06-.002-.108-.055-.106-.119M5.741 1.536l.04-.77C5.782.7 5.83.65 5.892.651l.105.003c.06.001.108.054.106.118l-.039.772c-.001.063-.051.114-.111.112l-.106-.003c-.06 0-.107-.053-.106-.118M4.454 1.816l.04-.746c.001-.064.051-.114.111-.113L4.71.96c.06.002.107.055.106.12l-.038.746c-.002.063-.051.114-.111.112l-.107-.002c-.06-.002-.107-.054-.106-.119M3.16 2.445l.04-.808c.002-.064.051-.115.112-.114l.105.003c.06.002.107.055.105.12l-.039.807c-.002.064-.051.114-.111.113l-.107-.003c-.06-.001-.107-.054-.106-.118" transform="translate(3 9) translate(24.198 2.074)"/>
                        </g>
                        <g transform="translate(3 9) translate(39.407 41.481)">
                            <mask id="fl4rg61kbb" fill="#fff">
                                <use xlink:href="#u71c9w2zsa"/>
                            </mask>
                            <path d="M30.391.653L3.038 16.349l-2.344-1.34-.01 2.753v.011l.001-.001c.007.038.036.077.089.109l4.832 2.807c.056.032.128.05.198.053h.03c.056-.002.108-.014.148-.038L35.626 3.695c.047-.027.066-.063.064-.1h.002l.01-2.725-3.275.763-1.658-.964c-.062-.035-.14-.053-.214-.053-.062 0-.12.012-.164.037" mask="url(#fl4rg61kbb)"/>
                        </g>
                        <g transform="translate(3 9) translate(40.099 38.716)">
                            <mask id="1ujqw6m9ge" fill="#fff">
                                <use xlink:href="#s6ljcrkorc"/>
                            </mask>
                            <path fill="url(#tlmtyiwlnd)" d="M29.712.679L.068 17.688c-.098.056-.085.153.026.218l4.832 2.806c.111.065.28.073.376.017l29.643-17.01c.098-.055.086-.152-.026-.217L30.088.695c-.06-.035-.14-.054-.214-.054-.06 0-.12.012-.162.038" mask="url(#1ujqw6m9ge)"/>
                        </g>
                        <g>
                            <path fill="#230E6C" d="M68.738 43.494L45.444 56.615c-.172-.924-.44-1.86-.797-2.783L67.9 40.49c.384.997.668 2.009.838 3.004" transform="translate(3 9)"/>
                            <path fill="#230E6C" d="M70.837 40.968L42.885 57.007c-.066.038-.058.105.018.148l1.214.706c.076.044.191.05.257.01l27.952-16.038c.066-.038.058-.104-.018-.149l-1.213-.705c-.076-.044-.192-.05-.258-.011" transform="translate(3 9)"/>
                            <path fill="#4739A2" d="M72.326 41.833l-.568.326-.655-.38c-.076-.045-.192-.05-.258-.012L43.46 57.48l-.559-.325c-.075-.043-.084-.11-.017-.148l27.952-16.039c.066-.039.181-.033.258.011l1.213.705c.076.045.085.11.018.149" transform="translate(3 9)"/>
                            <path fill="#ECECFD" d="M.374 13.343L23.628 0c-.011 4.167 2.9 9.24 6.502 11.334L62.178 29.95c4.234 2.459 7.656 8.423 7.643 13.32L46.567 56.616c.013-4.898-3.41-10.862-7.644-13.323L6.877 24.677C3.274 22.584.362 17.509.374 13.343" transform="translate(3 9)"/>
                            <path fill="#4739A2" d="M69.82 43.27L46.568 56.616c0-.216-.008-.433-.02-.652h.001l23.253-13.341c.012.218.02.435.02.649" transform="translate(3 9)"/>
                            <g fill="#4739A2">
                                <path d="M14.715 13.907L9.449 16.93 9.955 17.224 15.222 14.202zM17.417 12.358L15.52 13.445 16.027 13.74 17.923 12.652zM19.51 11.157L18.222 11.896 18.728 12.19 20.016 11.45zM11.161 14.611L8.291 16.257 8.798 16.552 11.667 14.905zM15.482 12.131L11.965 14.149 12.472 14.443 15.989 12.425zM17.576 10.93L16.287 11.669 16.794 11.963 18.082 11.224zM19.568 9.787L18.28 10.526 18.786 10.82 20.074 10.081zM9.21 14.393L7.133 15.585 7.639 15.879 9.716 14.688zM10.724 13.524L10.015 13.932 10.521 14.226 11.231 13.819zM12.818 12.323L11.529 13.062 12.036 13.357 13.324 12.618zM13.64 10.515L5.975 14.912 6.482 15.207 14.147 10.809zM16.341 8.964L14.445 10.053 14.952 10.347 16.848 9.259zM6.895 13.048L4.818 14.24 5.325 14.534 7.401 13.343zM11.768 10.252L7.699 12.587 8.206 12.881 12.274 10.546zM13.861 9.051L12.573 9.791 13.079 10.085 14.367 9.345zM7.909 11.13L3.661 13.567 4.168 13.862 8.416 11.424zM11.787 8.905L8.714 10.668 9.221 10.962 12.293 9.199zM14.667 7.251L12.591 8.443 13.097 8.737 15.174 7.546zM3.938 12.071L2.503 12.895 3.01 13.189 4.445 12.366zM6.639 10.522L4.743 11.61 5.25 11.905 7.146 10.816zM10.5 8.307L7.444 10.06 7.951 10.355 11.006 8.601zM5.741 9.7L1.346 12.222 1.852 12.517 6.248 9.995zM10.664 6.875L6.546 9.238 7.053 9.533 11.171 7.17zM12.758 5.674L11.469 6.413 11.975 6.708 13.264 5.969zM14.767 4.522L13.478 5.261 13.985 5.555 15.273 4.816zM2.822 10.039L.188 11.551.695 11.844 3.328 10.334zM25.399 7.777L29.051 5.682 29.558 5.976 25.906 8.071zM25.024 6.656L27.893 5.009 28.4 5.304 25.53 6.95zM24.66 5.528L26.736 4.337 27.243 4.631 25.166 5.822zM22.558 5.398L25.579 3.664 26.086 3.959 23.065 5.692zM22.345 4.184L24.421 2.992 24.928 3.286 22.851 4.478zM20.63 3.83L23.264 2.319 23.771 2.614 21.136 4.125zM20.671 2.47L22.106 1.647 22.613 1.941 21.178 2.765zM18.168 2.57L20.948.974 21.456 1.269 18.674 2.864zM17.157 1.813L19.792.302 20.298.596 17.664 2.108zM4.746 8.935L3.627 9.578 4.133 9.871 5.253 9.229zM8.072 7.027L5.551 8.473 6.058 8.767 8.579 7.321zM4.924 1.867L.67 4.308 1.176 4.603 5.43 2.162zM7.837.195L6.162 1.157 6.668 1.451 8.344.49z" transform="translate(3 9) translate(21.432 19.358)"/>
                            </g>
                            <path fill="#000" fill-opacity=".3" d="M50.945 28.608c.576 1.645-3.305 4.5-8.667 6.376-5.363 1.877-10.177 2.065-10.752.42-.576-1.645 3.305-4.5 8.667-6.376 5.363-1.877 10.177-2.065 10.752-.42" transform="translate(3 9)"/>
                            <path fill="#F78301" d="M37.367 22.623L37.435 20.931 37.829 19.94 38.078 20.76z" transform="translate(3 9)"/>
                            <path fill="#FFD94E" d="M55.127 22.945l.067-1.66s-1.405 1.401-1.406 1.436c0 .034 1.339.224 1.339.224" transform="translate(3 9)"/>
                            <path fill="#FFD94E" d="M46.126 27.87c-4.904-.118-8.795-2.61-8.69-6.94.102-4.328 4.161-7.742 9.065-7.624 4.904.117 8.795 3.72 8.69 8.05-.103 4.329-4.162 6.632-9.065 6.514" transform="translate(3 9)"/>
                            <path fill="#FFD94E" d="M46.059 30.673c-4.904-.117-8.795-3.722-8.691-8.05.103-4.33 4.162-7.743 9.066-7.626 4.903.118 8.794 3.722 8.69 8.051-.103 4.328-4.162 7.743-9.065 7.625" transform="translate(3 9)"/>
                            <path fill="#F78301" d="M40.05 17.188c-1.611 1.377-2.631 3.293-2.683 5.434-.103 4.33 3.788 7.934 8.691 8.051 2.426.058 4.644-.748 6.28-2.102L40.05 17.188z" transform="translate(3 9)"/>
                            <path fill="#FFC00C" d="M46.067 30.324c-4.685-.112-8.402-3.557-8.303-7.692.1-4.136 3.977-7.397 8.662-7.285 4.684.112 8.402 3.555 8.302 7.692-.099 4.135-3.977 7.397-8.661 7.285" transform="translate(3 9)"/>
                            <path fill="#FFB600" d="M46.102 28.847c-3.76-.09-6.745-2.855-6.665-6.175.08-3.32 3.193-5.938 6.953-5.848 3.76.09 6.745 2.854 6.666 6.174-.08 3.32-3.193 5.939-6.954 5.849" transform="translate(3 9)"/>
                            <path fill="#FFD94E" d="M53.055 22.998c.004-.137 0-.274-.007-.41-.313 3.124-3.32 5.527-6.926 5.44-3.605-.086-6.495-2.63-6.658-5.764-.014.135-.024.27-.027.408-.08 3.32 2.904 6.084 6.665 6.175 3.761.09 6.875-2.528 6.953-5.849" transform="translate(3 9)"/>
                            <path fill="#FFD94E" d="M47.552 23.342l-1.396-1.294c-1.345.305-3.852.876-5.854 1.346.498 1.5 1.712 2.735 3.298 3.39l3.952-3.442zM45.355 27.243c.221.027.447.044.676.05 1.644.04 3.149-.499 4.268-1.406l-2.28-2.112-2.664 3.468zM44.658 20.66l-2.632-2.436c-.884.773-1.675 1.624-1.888 2.764l4.52-.327z" transform="translate(3 9)"/>
                            <path fill="#F78301" d="M46.034 17.543c3.76.09 6.745 2.854 6.666 6.174-.017.673-.16 1.316-.405 1.915.465-.79.738-1.682.76-2.634.08-3.32-2.904-6.084-6.664-6.174-3-.072-5.585 1.579-6.55 3.934 1.157-1.964 3.51-3.28 6.193-3.215M37.435 20.93c-.015.645-.075 1.11.076 1.714.196-.635.62-2.535.62-2.535l.676-1.51.563-.463.953-.695.079-2.177c-1.774 1.39-2.913 3.402-2.967 5.667M54.618 20.709l.038-.447c.001-.063.05-.115.111-.113l.034.001c.06.001.107.055.106.118l-.038.447c-.002.064-.051.115-.112.113l-.033-.001c-.06-.001-.107-.054-.106-.118M53.838 19l.046-.803c.002-.073.058-.13.127-.13l.077.003c.07.001.123.062.121.135l-.045.802c-.002.073-.059.13-.128.129l-.077-.002c-.069-.002-.122-.062-.121-.135M52.757 17.508l.045-.777c.002-.083.066-.148.143-.146l.137.003c.077.002.137.07.135.153l-.045.778c0 .082-.066.147-.143.146l-.136-.004c-.077-.002-.138-.07-.136-.153M51.138 16.305l.049-.943c.002-.081.066-.147.143-.145l.136.003c.078.002.139.07.137.152l-.049.943c-.002.082-.067.147-.144.146l-.136-.004c-.077-.002-.138-.07-.136-.152M49.509 15.514l.052-1.085c.002-.083.067-.148.144-.146l.136.003c.078.002.139.07.137.152l-.053 1.086c-.002.083-.066.148-.143.146l-.137-.003c-.077-.002-.138-.07-.136-.153M47.873 15.032l.051-1.043c.002-.083.066-.148.144-.146l.136.003c.077.002.138.07.136.152l-.05 1.044c-.003.082-.067.148-.145.145l-.136-.003c-.077-.001-.138-.07-.136-.152M46.229 14.867l.052-1.059c.002-.082.066-.147.144-.146l.135.004c.077.002.139.07.137.152l-.052 1.06c-.002.082-.066.147-.144.145l-.136-.003c-.077-.002-.138-.07-.136-.153M44.58 14.902l.05-.992c.003-.083.067-.148.144-.146l.137.003c.076.001.138.07.136.153l-.05.993c-.003.082-.067.147-.144.146l-.137-.004c-.076-.002-.138-.07-.136-.153M42.924 15.263l.05-.961c.001-.082.066-.148.143-.146l.136.003c.078.002.138.07.136.153l-.049.961c-.002.082-.066.148-.144.146l-.136-.003c-.077-.002-.138-.07-.136-.153M41.257 16.072l.051-1.04c.002-.082.067-.148.144-.146l.136.003c.077.003.138.071.136.153l-.051 1.04c-.002.083-.067.148-.144.146l-.136-.003c-.077-.002-.138-.07-.136-.153" transform="translate(3 9)"/>
                            <path fill="#000" fill-opacity=".3" d="M19.185 50.43c.505 1.444-2.901 3.95-7.61 5.598-4.707 1.646-8.934 1.812-9.438.368-.506-1.444 2.9-3.95 7.609-5.599 4.707-1.647 8.934-1.812 9.439-.367" transform="translate(3 9)"/>
                            <path fill="#F78301" d="M7.265 45.175L7.324 43.69 7.67 42.819 7.889 43.54z" transform="translate(3 9)"/>
                            <path fill="#FFD94E" d="M22.856 45.458l.06-1.457s-1.233 1.23-1.234 1.26c0 .03 1.174.197 1.174.197" transform="translate(3 9)"/>
                            <path fill="#FFD94E" d="M14.954 49.781c-4.305-.103-7.72-2.29-7.63-6.092.091-3.8 3.654-6.798 7.96-6.694 4.305.103 7.72 3.267 7.63 7.068-.091 3.8-3.655 5.821-7.96 5.718" transform="translate(3 9)"/>
                            <path fill="#FFD94E" d="M14.895 52.242c-4.305-.102-7.721-3.267-7.63-7.067.091-3.8 3.655-6.798 7.96-6.695 4.304.103 7.72 3.268 7.63 7.068-.092 3.8-3.655 6.797-7.96 6.694" transform="translate(3 9)"/>
                            <path fill="#F78301" d="M9.62 40.404c-1.414 1.208-2.31 2.89-2.355 4.77-.091 3.801 3.325 6.966 7.63 7.068 2.13.052 4.076-.657 5.512-1.845L9.62 40.404z" transform="translate(3 9)"/>
                            <path fill="#FFC00C" d="M14.902 51.936c-4.112-.099-7.376-3.122-7.29-6.753.088-3.631 3.493-6.494 7.605-6.396 4.113.099 7.377 3.122 7.29 6.752-.087 3.631-3.492 6.495-7.605 6.397" transform="translate(3 9)"/>
                            <path fill="#FFB600" d="M14.933 50.639c-3.3-.079-5.921-2.506-5.851-5.421.07-2.915 2.803-5.214 6.104-5.135 3.302.08 5.922 2.506 5.852 5.421-.07 2.915-2.803 5.214-6.105 5.135" transform="translate(3 9)"/>
                            <path fill="#FFD94E" d="M21.038 45.504c.003-.12 0-.24-.007-.36-.275 2.743-2.916 4.853-6.08 4.777-3.165-.076-5.702-2.31-5.846-5.062-.011.12-.02.238-.023.36-.07 2.914 2.55 5.34 5.852 5.42 3.3.079 6.034-2.22 6.104-5.135" transform="translate(3 9)"/>
                            <path fill="#FFD94E" d="M16.207 45.806L14.98 44.67c-1.18.268-3.382.77-5.14 1.182.437 1.316 1.503 2.4 2.895 2.977l3.47-3.023zM14.277 49.231c.195.024.393.04.594.044 1.443.034 2.764-.439 3.747-1.235l-2-1.854-2.34 3.045zM13.666 43.452l-2.311-2.14c-.776.68-1.471 1.427-1.658 2.427l3.969-.287z" transform="translate(3 9)"/>
                            <path fill="#F78301" d="M14.873 40.715c3.302.079 5.922 2.506 5.852 5.42-.014.591-.139 1.156-.355 1.68.408-.69.648-1.475.668-2.31.07-2.915-2.55-5.343-5.852-5.421-2.632-.063-4.902 1.386-5.75 3.454 1.016-1.725 3.082-2.88 5.437-2.823M7.324 43.69c-.014.564-.067.974.067 1.503.172-.557.544-2.225.544-2.225l.593-1.326.495-.407.837-.61.069-1.911C8.37 39.934 7.372 41.7 7.324 43.69M22.41 43.494l.033-.39c.001-.057.045-.102.097-.1h.03c.053.002.095.047.092.104l-.032.392c-.001.056-.045.1-.098.099h-.029c-.053-.002-.094-.049-.093-.105M21.725 41.994l.04-.705c.002-.063.052-.115.112-.113l.068.002c.06.001.108.054.106.118l-.04.704c-.002.065-.052.115-.112.114l-.068-.002c-.06-.002-.108-.054-.106-.118M20.776 40.684l.04-.682c.002-.073.058-.13.126-.128l.118.003c.069.002.122.061.12.133l-.04.683c-.001.072-.057.13-.125.128l-.12-.002c-.068-.003-.12-.062-.12-.135M19.354 39.628l.043-.827c.002-.073.058-.13.127-.129l.119.004c.068.001.121.061.12.133l-.044.828c-.002.072-.058.13-.125.128l-.12-.004c-.068-.001-.122-.061-.12-.133M17.924 38.934l.046-.954c.002-.072.058-.128.127-.127l.12.002c.067.002.12.062.119.134l-.047.954c-.002.072-.058.129-.125.128l-.12-.004c-.068-.001-.122-.061-.12-.133M16.488 38.51l.045-.916c.002-.072.058-.129.126-.128l.12.003c.067.002.121.062.12.134l-.046.916c-.002.072-.058.13-.126.128l-.12-.003c-.068-.002-.12-.062-.12-.134M15.045 38.366l.045-.93c.002-.072.058-.13.126-.128l.12.003c.068.002.122.061.12.134l-.047.93c-.001.072-.058.13-.125.127l-.12-.003c-.067-.001-.121-.061-.12-.133M13.597 38.397l.045-.872c.001-.072.058-.13.125-.128l.12.004c.068.001.122.06.12.133l-.045.872c-.002.072-.058.13-.125.127l-.12-.003c-.068-.001-.122-.061-.12-.133M12.143 38.714l.044-.845c.001-.071.058-.129.125-.127l.12.003c.068.001.122.062.12.133l-.044.845c-.002.072-.058.129-.126.127l-.12-.003c-.067-.001-.12-.061-.119-.133M10.68 39.424l.044-.913c.002-.073.058-.13.127-.128l.12.003c.067 0 .12.061.119.133l-.046.914c-.002.072-.058.13-.125.127l-.12-.003c-.068-.001-.121-.061-.12-.133" transform="translate(3 9)"/>
                        </g>
                    </g>
                </g>
            </g>
        </g>
    </g>
</svg>
