<svg xmlns="http://www.w3.org/2000/svg" width="32" height="32" viewBox="0 0 32 32"><defs><style>.a{fill:#fff;}.a,.b{fill-rule:evenodd;}.b{fill:#0075C9;}</style></defs><path class="a" d="M32,16A16,16,0,1,0,13.5,31.806V20.625H9.438V16H13.5V12.475c0-4.01,2.389-6.225,6.043-6.225a24.6,24.6,0,0,1,3.582.313V10.5H21.107A2.312,2.312,0,0,0,18.5,13v3h4.438l-.709,4.625H18.5V31.806A16,16,0,0,0,32,16"/><path class="b" d="M314.791,214.375l.709-4.625h-4.437v-3a2.312,2.312,0,0,1,2.607-2.5h2.018v-3.937a24.6,24.6,0,0,0-3.582-.312c-3.655,0-6.043,2.215-6.043,6.225v3.525H302v4.625h4.063v11.181a16.175,16.175,0,0,0,5,0V214.375h3.728" transform="translate(-292.563 -193.75)"/></svg>