<svg xmlns="http://www.w3.org/2000/svg" xmlns:xlink="http://www.w3.org/1999/xlink" width="57" height="62" viewBox="0 0 57 62">
    <defs>
        <path id="1kjnc1cbra" d="M0 0.618L54.279 0.618 54.279 60.192 0 60.192z"/>
    </defs>
    <g fill="none" fill-rule="evenodd">
        <g>
            <g>
                <g>
                    <g>
                        <g>
                            <g>
                                <g fill="#000">
                                    <path fill-opacity=".2" d="M.044 13.583c.644 8.26 2.894 19.493 5.545 25.555 4.392 10.045 19.58 18.878 21.593 20.436 2.012-1.558 17.202-10.39 21.593-20.436 2.656-6.072 4.909-17.337 5.548-25.601L45.867 1.845C39.774.86 31.657 0 27.182 0 22.846 0 15.094.808 9.074 1.753l-9.03 11.83z" transform="translate(-785 -515) translate(0 132) translate(173 85) translate(520 288) translate(80 1) translate(12 9) translate(1.324 2.03)"/>
                                    <path d="M27.182 4.676c-2.915 0-7.903.422-12.894 1.063L5.371 17.15s1.171 7.631 1.998 11.164c.846 3.61 1.818 6.825 2.785 9.035 2.924 6.69 12.34 13.331 17.028 16.475.004-.004.011-.006.014-.01V4.676h-.014zM40.688 5.82c-5.157-.681-10.46-1.142-13.491-1.144V53.815c4.692-3.149 14.09-9.783 17.012-16.464.969-2.215 1.94-5.428 2.785-9.036.846-3.61 1.566-7.615 2.028-11.41L40.688 5.819z" transform="translate(-785 -515) translate(0 132) translate(173 85) translate(520 288) translate(80 1) translate(12 9) translate(1.324 2.03)"/>
                                </g>
                                <g transform="translate(-785 -515) translate(0 132) translate(173 85) translate(520 288) translate(80 1) translate(12 9) translate(0 .044)">
                                    <mask id="p88a45hjlb" fill="#fff">
                                        <use xlink:href="#1kjnc1cbra"/>
                                    </mask>
                                    <path fill="#268FEF" d="M0 14.2c.644 8.261 2.894 19.494 5.544 25.556C9.937 49.802 25.125 58.634 27.14 60.192c2.011-1.558 17.2-10.39 21.592-20.436 2.656-6.072 4.91-17.337 5.548-25.601L45.823 2.463C39.73 1.479 31.614.618 27.14.618c-4.337 0-12.089.808-18.108 1.753L0 14.2z" mask="url(#p88a45hjlb)"/>
                                </g>
                                <path fill="#6FBAFF" d="M27.139 5.338c-2.916 0-7.904.422-12.894 1.063L5.328 17.813s1.17 7.632 1.998 11.164c.846 3.61 1.817 6.824 2.784 9.035 2.925 6.69 12.34 13.332 17.029 16.475l.014-.01V5.338h-.014z" transform="translate(-785 -515) translate(0 132) translate(173 85) translate(520 288) translate(80 1) translate(12 9)"/>
                                <path fill="#4FACF0" d="M40.645 6.481c-5.158-.68-10.461-1.141-13.492-1.143v49.139c4.692-3.149 14.09-9.783 17.012-16.465.97-2.214 1.94-5.427 2.785-9.036.846-3.61 1.566-7.615 2.029-11.409L40.645 6.481z" transform="translate(-785 -515) translate(0 132) translate(173 85) translate(520 288) translate(80 1) translate(12 9)"/>
                                <path fill="#FFF" d="M24.56 38.95l-7.363-9.514c-.857-1.107-.654-2.697.453-3.554 1.106-.856 2.698-.653 3.554.453l3.356 4.336 10.385-13.42c.857-1.106 2.449-1.308 3.555-.453 1.106.857 1.31 2.448.453 3.554L24.56 38.951z" transform="translate(-785 -515) translate(0 132) translate(173 85) translate(520 288) translate(80 1) translate(12 9)"/>
                            </g>
                        </g>
                    </g>
                </g>
            </g>
        </g>
    </g>
</svg>
