<svg xmlns="http://www.w3.org/2000/svg" width="24" height="24" viewBox="0 0 24 24">
    <g fill="none" fill-rule="evenodd">
        <g fill="#03A322">
            <g>
                <g>
                    <g>
                        <path d="M7.8 18.3c1.16 0 2.1.94 2.1 2.1 0 1.16-.94 2.1-2.1 2.1-1.16 0-2.1-.94-2.1-2.1 0-1.16.94-2.1 2.1-2.1zm10.1 0c.557 0 1.091.221 1.485.615.394.394.615.928.615 1.485 0 1.157-.936 2.096-2.093 2.1-1.158.004-2.1-.93-2.107-2.087-.007-1.157.923-2.102 2.08-2.113zm-10.1.95c-.635 0-1.15.515-1.15 1.15 0 .635.515 1.15 1.15 1.15.635 0 1.15-.515 1.15-1.15 0-.635-.515-1.15-1.15-1.15zm10.08 0c-.635 0-1.15.515-1.15 1.15 0 .635.515 1.15 1.15 1.15.635 0 1.15-.515 1.15-1.15 0-.635-.515-1.15-1.15-1.15zM4.78 1.5c.422 0 .804.252.97.64l.66 1.46h15.04c.58 0 1.05.47 1.05 1.05l-.175.315L18.5 11.93l-.08.143c-.346.554-.954.898-1.615.902h-6.85l-.445 1v.105l.016.063c.032.078.106.135.194.142h9.63c.58 0 1.15.715 1.15 1.5s-.57 1.59-1.15 1.59H7.8c-1.16 0-2.1-.94-2.1-2.1l.025-.265c.034-.264.096-.524.185-.775l1.47-2.55L3.6 4.6H2.55C1.97 4.6 1.5 4 1.5 2.97c0-1.195.47-1.47 1.05-1.47zm0 .95H2.5c-.044.17-.061.345-.05.52-.02.238.032.477.15.685h1c.35 0 .673.192.84.5l3.745 7.06c.155.287.155.633 0 .92l-1.425 2.47c-.072.217-.115.442-.13.67.01.628.522 1.132 1.15 1.135h11.5c.168-.171.265-.4.27-.64.005-.213-.082-.417-.24-.56H9.625c-.563-.052-1.01-.497-1.065-1.06-.002-.03-.002-.06 0-.09v-.11c.002-.132.03-.263.08-.385l.445-1c.092-.205.25-.367.443-.464L7.305 4.55H6.41c-.33.001-.633-.168-.806-.442L5.545 4l-.66-1.465c-.02-.04-.045-.085-.105-.085zM10.489 12h1.523l.185-7.45H8.296L10.489 12zm6.415-7.45h-3.758L12.961 12h1.754l2.189-7.45zm4.566 0h-3.576L15.704 12h1.101c.322.01.624-.144.807-.403l.063-.102c.003-.012.003-.023 0-.035l3.795-6.91z" transform="translate(-251 -76) translate(0 64) translate(97 12) translate(154)"/>
                    </g>
                </g>
            </g>
        </g>
    </g>
</svg>
