<svg xmlns="http://www.w3.org/2000/svg" xmlns:xlink="http://www.w3.org/1999/xlink" width="42" height="42" viewBox="0 0 42 42">
    <defs>
        <path id="2ycaqs0sza" d="M0 0.079L32.936 0.079 32.936 41.067 0 41.067z"/>
        <path id="kj4jpm61pc" d="M0.018 0.102L19.991 0.102 19.991 18.614 0.018 18.614z"/>
    </defs>
    <g fill="none" fill-rule="evenodd">
        <g>
            <g>
                <g>
                    <g>
                        <g transform="translate(-985 -2582) translate(420 2574) translate(549) translate(16 8)">
                            <mask id="1l8p7eey3b" fill="#fff">
                                <use xlink:href="#2ycaqs0sza"/>
                            </mask>
                            <path fill="#333" d="M30.736 38.98H2.2V11.926h8.556v7.262l5.64-2.638 6.053 2.638v-7.262h8.287V38.98zM4.695 2.166h7.349l-1.178 7.674H2.532l2.163-7.674zm25.708 7.674h-8.035l-.873-7.674h6.746l2.162 7.674zm2.532 1.025l-.003-.043c-.001-.024-.003-.049-.006-.073l-.007-.038c-.004-.027-.01-.053-.017-.078l-.004-.02-2.75-9.76C30.02.396 29.584.08 29.086.08H3.85c-.498 0-.934.317-1.063.773l-2.75 9.76-.004.02c-.007.026-.012.051-.017.077l-.006.04-.007.07-.002.046-.001.017v29.142c0 .576.492 1.043 1.1 1.043h30.736c.607 0 1.1-.467 1.1-1.043V10.882l-.001-.018z" mask="url(#1l8p7eey3b)"/>
                        </g>
                        <g transform="translate(-985 -2582) translate(420 2574) translate(549) translate(16 8) translate(22 16.8)">
                            <mask id="ztm8jvfuod" fill="#fff">
                                <use xlink:href="#kj4jpm61pc"/>
                            </mask>
                            <path fill="#FE1D00" d="M19.99 9.358c0 5.112-4.47 9.256-9.986 9.256-5.515 0-9.986-4.144-9.986-9.256S4.489.102 10.004.102c5.516 0 9.987 4.144 9.987 9.256" mask="url(#ztm8jvfuod)"/>
                        </g>
                        <path fill="#FFF" d="M35.728 23.444h-6.746l.1-.087c.452-.392.498-1.073.103-1.522-.396-.448-1.083-.494-1.535-.102l-2.278 1.978c-.008.006-.014.013-.021.02-.017.015-.033.03-.049.047l-.03.033c-.015.017-.03.033-.043.05l-.026.036-.039.057-.02.035c-.013.02-.024.043-.035.065l-.015.032c-.011.024-.021.05-.03.075l-.01.028c-.01.027-.017.055-.024.084-.001.008-.004.016-.006.023-.006.03-.01.06-.014.091l-.004.021c-.004.038-.006.076-.006.114 0 .039.002.077.006.114 0 .007.003.014.004.021.003.03.008.061.014.091l.006.024.024.084.01.028c.01.025.019.05.03.074l.015.033c.01.022.022.043.034.064l.022.036.037.056.028.036.04.05.033.035c.014.015.03.03.046.044l.022.022 2.28 1.977c.205.179.46.267.715.267.302 0 .604-.125.819-.368.395-.449.349-1.13-.103-1.522l-.1-.087h6.746c.595 0 1.097.696 1.097 1.52 0 .825-.502 1.522-1.097 1.522H32c-.6 0-1.087.483-1.087 1.079 0 .595.487 1.078 1.087 1.078h3.728c1.804 0 3.272-1.65 3.272-3.678s-1.468-3.678-3.272-3.678" transform="translate(-985 -2582) translate(420 2574) translate(549) translate(16 8)"/>
                    </g>
                </g>
            </g>
        </g>
    </g>
</svg>
