<svg xmlns="http://www.w3.org/2000/svg" width="42" height="42" viewBox="0 0 42 42">
    <g fill="none" fill-rule="evenodd">
        <g>
            <g>
                <g>
                    <path d="M22.432 16.036l-7.35 7.35c-.287.287-.764.478-1.146.478-.381 0-.763-.191-1.145-.478l-2.864-2.768c-.572-.573-.572-1.623 0-2.195.668-.573 1.623-.573 2.291 0l1.718 1.718 6.205-6.205c.668-.572 1.623-.572 2.29 0 .669.478.669 1.528 0 2.1z" transform="translate(-444 -2582) translate(420 2574) translate(24 8)"/>
                    <path d="M0 0v42h42V0H0zm39.232 29.4c-.764-1.718-2.482-2.768-4.296-2.768-2.004 0-3.722 1.24-4.486 3.054h-1.432v-7.254h8.21c.858 0 1.717.573 2.004 1.336l.095 5.346c0 .095-.095.19-.095.286zm-4.296 4.868c-1.622 0-2.863-1.24-2.863-2.863s1.24-2.864 2.863-2.864c1.528 0 2.864 1.24 2.864 2.864 0 1.622-1.336 2.863-2.864 2.863zM8.782 31.405c0-1.623 1.24-2.864 2.863-2.864 1.528 0 2.864 1.24 2.864 2.864 0 1.622-1.24 2.863-2.864 2.863-1.622 0-2.863-1.24-2.863-2.863zm2.863-4.773c-2.004 0-3.722 1.24-4.486 3.054H4.295c-.286 0-.572-.286-.572-.572V9.259c0-.286.286-.573.572-.573h22.241c.287 0 .573.287.573.573v20.427H16.036c-.668-1.813-2.481-3.054-4.39-3.054zM35.51 13.84c0 .286-.286.573-.573.573h-5.918v-1.146h5.918c.287 0 .573.287.573.573zm.477 6.682h-6.968v-4.2h5.918l1.05 4.2z" transform="translate(-444 -2582) translate(420 2574) translate(24 8)"/>
                    <path fill="#333" fill-rule="nonzero" d="M37.99 20.618l-1.24-5.059c.477-.477.668-1.05.668-1.718 0-1.336-1.145-2.482-2.482-2.482h-5.918v-2.1c0-1.336-1.145-2.482-2.482-2.482H4.296c-1.337 0-2.482 1.146-2.482 2.482v19.855c0 1.336 1.145 2.481 2.481 2.481h2.578c.095 2.578 2.195 4.582 4.772 4.582 2.578 0 4.678-2.004 4.773-4.582H30.26c.096 2.578 2.196 4.582 4.773 4.582 2.673 0 4.773-2.1 4.773-4.772.954-.382 1.527-1.337 1.527-2.291v-4.582c-.096-1.91-1.527-3.532-3.341-3.914zm-26.345 13.65c-1.622 0-2.863-1.24-2.863-2.863s1.24-2.864 2.863-2.864c1.528 0 2.864 1.24 2.864 2.864-.095 1.622-1.336 2.863-2.864 2.863zm15.464-4.582H16.036c-.668-1.813-2.481-3.054-4.39-3.054-2.005 0-3.723 1.24-4.487 3.054H4.295c-.286 0-.572-.286-.572-.572V9.259c0-.286.286-.573.572-.573h22.241c.287 0 .573.287.573.573v20.427zm1.91-16.418h5.917c.287 0 .573.287.573.573s-.286.573-.573.573h-5.918v-1.146zm0 3.055h5.917l1.05 4.2h-6.968v-4.2zm5.917 17.945c-1.622 0-2.863-1.24-2.863-2.863s1.24-2.864 2.863-2.864c1.528 0 2.864 1.24 2.864 2.864 0 1.622-1.336 2.863-2.864 2.863zm4.296-4.868c-.764-1.718-2.482-2.768-4.296-2.768-2.004 0-3.722 1.24-4.486 3.054h-1.432v-7.254h8.21c.858 0 1.717.573 2.004 1.336l.095 5.346c0 .095-.095.19-.095.286z" transform="translate(-444 -2582) translate(420 2574) translate(24 8)"/>
                    <path fill="#FE1D00" d="M22.432 16.036l-7.35 7.35c-.287.287-.764.478-1.146.478-.381 0-.763-.191-1.145-.478l-2.864-2.768c-.572-.573-.572-1.623 0-2.195.668-.573 1.623-.573 2.291 0l1.718 1.718 6.205-6.205c.668-.572 1.623-.572 2.29 0 .669.478.669 1.528 0 2.1z" transform="translate(-444 -2582) translate(420 2574) translate(24 8)"/>
                </g>
            </g>
        </g>
    </g>
</svg>
