<svg xmlns="http://www.w3.org/2000/svg" width="24" height="24" viewBox="0 0 24 24">
    <g fill="none" fill-rule="evenodd">
        <g fill="#00BE32">
            <g>
                <g>
                    <g>
                        <path d="M12 1.5l.12.007c.08.01.16.029.235.058l9.5 3.64c.39.148.647.523.645.94v11.7c.002.417-.255.792-.645.94l-9.5 3.65c-.229.087-.481.087-.71 0l-9.5-3.65c-.39-.148-.647-.523-.645-.94V6.16c0-.421.264-.797.66-.94l9.5-3.655c.109-.041.224-.063.34-.065zM2.465 6.681v11.164c0 .024.014.045.035.055l9.025 3.458V10.526h-.02l.008-.124c-.037-.168-.153-.31-.313-.373l-.328-.125-.041-.015v-.003L7.5 8.61v4.875l-1-.5v-4.75l-.001-.008-4.034-1.546zm19.07 0l-8.367 3.205.001.003-.045.014-.328.127c-.109.04-.201.116-.262.215-.03.048-.052.1-.065.155.005.042.007.083.006.125v10.833l9.025-3.463c.014-.007.025-.018.03-.032l.005-.023V6.681zm-4.727-2.389L7.847 7.726l3.364 1.289.138.046c.474.138.98.122 1.447-.047l8.165-3.13-4.153-1.592zM12 2.45L3.057 5.891l3.748 1.436c.168-.225.396-.4.66-.502l7.947-3.067L12 2.45z" transform="translate(-1227 -76) translate(0 64) translate(1058 12) translate(169)"/>
                    </g>
                </g>
            </g>
        </g>
    </g>
</svg>
