<svg xmlns="http://www.w3.org/2000/svg" width="24" height="24" viewBox="0 0 24 24">
    <g fill="none" fill-rule="evenodd">
        <g fill="#00BE32">
            <g>
                <g>
                    <g>
                        <path d="M14.565 3.5c2.08 0 3.84 1.955 5.225 3.795.8 1.02 2.71 3.785 2.71 5.835v2.97l-.01.145c-.094.815-.767 1.453-1.6 1.49h-.79c-.056.555-.267 1.058-.586 1.471-.542.782-1.446 1.294-2.469 1.294-1.578 0-2.87-1.218-2.99-2.764L10 17.735c-.05.505-.226.969-.495 1.362-.53.843-1.47 1.403-2.54 1.403-1.578 0-2.87-1.218-2.99-2.764l-.805-.001c-.62 0-1.67-.325-1.67-1.925V12c0-.552.448-1 1-1H10v2.42c0 .075.025.075.055.075.047-.005.091-.026.125-.06l3.32-3.5c.03-.022.047-.056.047-.093 0-.036-.018-.07-.047-.092l-3.22-3.09s-.14-.14-.19-.14c-.05 0-.09.05-.09.215V9H2.5c-.552 0-1-.448-1-1V5c0-.828.672-1.5 1.5-1.5zm-7.6 12c-1.105 0-2 .895-2 2 0 .692.351 1.302.885 1.66.323.199.705.306 1.11.29h.155c.4-.015.771-.15 1.078-.371.47-.366.772-.937.772-1.579 0-1.105-.895-2-2-2zm10.08 0c-1.105 0-2 .895-2 2 0 .525.202 1.002.533 1.359.378.366.903.576 1.467.541.596.036 1.148-.203 1.529-.61.294-.348.471-.799.471-1.29 0-1.105-.895-2-2-2zm-2.48-11.05H3c-.148-.006-.292.05-.397.155-.105.104-.162.247-.158.395v3.035h6.63v-1.31c-.028-.295.068-.588.266-.81.197-.22.478-.35.774-.355.345.01.669.17.885.44l3.175 3.08.092.1c.17.212.254.481.233.755-.022.267-.141.516-.335.7l-3.31 3.46c-.209.215-.495.338-.795.34-.27 0-.528-.109-.716-.302-.188-.193-.29-.453-.284-.723v-1.44h-6.6v3.865c0 .675.22.975.72.975h.865c.311-1.324 1.5-2.31 2.92-2.31s2.609.986 2.92 2.31h4.24c.311-1.324 1.5-2.31 2.92-2.31s2.609.986 2.92 2.31h.87c.402-.003.727-.328.73-.73v-2.95c0-.6-.214-1.312-.532-2.03h-3.498c-.815 0-1.475-.66-1.475-1.475v-4.73c-.485-.278-.986-.445-1.495-.445zm2.445 1.136v4.039c0 .29.235.525.525.525h3.026c-.488-.89-1.062-1.717-1.496-2.27-.608-.793-1.304-1.64-2.055-2.294z" transform="translate(-945 -76) translate(0 64) translate(728 12) translate(217)"/>
                    </g>
                </g>
            </g>
        </g>
    </g>
</svg>
