<svg xmlns="http://www.w3.org/2000/svg" xmlns:xlink="http://www.w3.org/1999/xlink" width="38" height="42" viewBox="0 0 38 42">
    <defs>
        <path id="ar1gqn2spa" d="M0 0.03L37.935 0.03 37.935 33.201 0 33.201z"/>
    </defs>
    <g fill="none" fill-rule="evenodd">
        <g>
            <g>
                <g>
                    <g>
                        <g transform="translate(-711 -2582) translate(420 2574) translate(275) translate(16 8) translate(0 8.78)">
                            <mask id="l3s4dleiib" fill="#fff">
                                <use xlink:href="#ar1gqn2spa"/>
                            </mask>
                            <path fill="#333" d="M31.596 8.862c-.238-.193-.538-.282-.842-.25-.583.06-1.025.548-1.029 1.137 0 .243.022.488.065.727-.015.744-.316 1.44-.848 1.961-.532.523-1.234.81-1.98.81h-.028c-1.547-.016-2.804-1.288-2.8-2.837 0-.633-.515-1.148-1.148-1.15h-.065c-.633.002-1.147.517-1.147 1.152.008 1.56-1.254 2.836-2.814 2.844h-.015c-.75 0-1.456-.29-1.99-.819-.536-.531-.834-1.24-.838-1.998v-.028c0-.633-.515-1.148-1.147-1.148-.633 0-1.148.515-1.148 1.147-.001.756-.297 1.466-.832 2-.534.531-1.242.824-1.996.824h-.006c-1.537-.003-2.8-1.252-2.822-2.788l.012-.189c.021-.168.032-.34.032-.509 0-.306-.12-.594-.336-.811-.217-.217-.505-.337-.812-.337-.602 0-1.105.471-1.145 1.072l-.023.353c-.072.473-.323.89-.707 1.177-.387.29-.864.41-1.342.341-.885-.128-1.551-.9-1.55-1.794V8.258c0-.09.026-.178.077-.251l3.832-5.493c.083-.118.218-.189.362-.189h25.43c.157 0 .303.084.383.218l3.201 5.425c.04.068.06.146.06.227v1.554c.001.998-.81 1.812-1.809 1.813h-.001c-.84 0-1.58-.592-1.766-1.41l-.05-.518c-.032-.304-.18-.579-.418-.772zM4.92 13.777c.61-.123 1.176-.38 1.67-.753 1.334 2.261 4.207 3.17 6.619 2.017.683-.327 1.285-.801 1.761-1.386 1.65 2.025 4.608 2.503 6.824 1.024.443-.296.832-.653 1.161-1.066 1.641 2.04 4.603 2.54 6.836 1.074.648-.425 1.191-.992 1.589-1.654.484.364 1.04.614 1.635.737v17.136H24.57v-11.27c-.019-.64-.535-1.143-1.176-1.144h-8.901c-.63.007-1.135.524-1.128 1.155v11.259H4.92v-17.13zm10.74 17.129h6.615V20.787H15.66v10.119zM37.795 7.339h.078l-3.519-5.961C33.864.549 32.96.033 31.997.03H6.567C5.673.03 4.833.467 4.32 1.2L.491 6.694C.168 7.155-.002 7.698 0 8.261v1.49c.01 1.704 1.055 3.21 2.625 3.822v18.473c-.015.621.477 1.139 1.1 1.155h30.421c.628 0 1.15-.51 1.164-1.146V13.588c1.58-.613 2.625-2.125 2.625-3.84V8.193c-.002-.29-.05-.579-.14-.853z" mask="url(#l3s4dleiib)"/>
                        </g>
                        <path fill="#FE1D00" d="M27.342 8.377c0 4.626-3.75 8.377-8.375 8.377s-8.374-3.75-8.374-8.377C10.593 3.75 14.343 0 18.967 0c4.625 0 8.375 3.75 8.375 8.377" transform="translate(-711 -2582) translate(420 2574) translate(275) translate(16 8)"/>
                        <path fill="#FFF" d="M23.653 6.272l-5.559 5.56c-.231.232-.538.348-.845.348-.307 0-.614-.116-.846-.348l-2.12-2.122c-.465-.464-.465-1.22 0-1.691.463-.464 1.22-.464 1.69 0L17.257 9.3l4.705-4.72c.464-.465 1.221-.465 1.692 0 .463.47.463 1.227 0 1.691" transform="translate(-711 -2582) translate(420 2574) translate(275) translate(16 8)"/>
                    </g>
                </g>
            </g>
        </g>
    </g>
</svg>
