<svg xmlns="http://www.w3.org/2000/svg" width="24" height="24" viewBox="0 0 24 24">
    <g fill="none" fill-rule="evenodd">
        <g fill="#03A322">
            <g>
                <g>
                    <g>
                        <path d="M21.5 4c.552 0 1 .448 1 1v14c0 .552-.448 1-1 1h-19c-.552 0-1-.448-1-1V5c0-.552.448-1 1-1zM9.632 12.491L3.119 19.05h17.596l-6.467-6.514-2.283 2.11-2.333-2.155zM21.55 5.789l-6.604 6.102 6.604 6.651V5.789zm-19.101.064v12.523l6.484-6.531-6.484-5.992zm18.609-.903H2.871l9.094 8.403 9.093-8.403z" transform="translate(-581 -76) translate(0 64) translate(428 12) translate(153)"/>
                    </g>
                </g>
            </g>
        </g>
    </g>
</svg>
