<svg xmlns="http://www.w3.org/2000/svg" xmlns:xlink="http://www.w3.org/1999/xlink" width="37" height="42" viewBox="0 0 37 42">
    <defs>
        <path id="ezfq22gzpa" d="M0 0.104L35.966 0.104 35.966 41.866 0 41.866z"/>
    </defs>
    <g fill="none" fill-rule="evenodd">
        <g>
            <g>
                <g>
                    <g>
                        <g>
                            <g transform="translate(-1262 -2582) translate(420 2574) translate(826) translate(16 8) translate(0 .03)">
                                <mask id="ugl1dwgdpb" fill="#fff">
                                    <use xlink:href="#ezfq22gzpa"/>
                                </mask>
                                <path fill="#333" d="M17.72 39.16c.079.015.165.022.263.022.105 0 .195-.008.277-.025l.04-.008c.022-.004.071-.015.143-.041l.029-.011c3.57-1.248 6.509-2.984 8.734-5.159 1.939-1.896 3.421-4.206 4.405-6.865 1.818-4.938 1.716-10.506 1.634-14.98v-.046c-.015-.373-.03-.774-.038-1.218-.02-1.458-1.178-2.662-2.635-2.744-4.834-.263-8.585-1.85-11.801-4.991l-.008-.008c-.46-.404-1.116-.398-1.57.016l-.061.054c-3.2 3.098-6.932 4.667-11.738 4.936-1.458.078-2.613 1.278-2.634 2.733-.008.469-.016.858-.038 1.235l-.001.12c-.082 4.45-.184 9.989 1.628 14.902.974 2.651 2.455 4.957 4.403 6.855 2.234 2.177 5.176 3.913 8.743 5.16l.029.01c.038.015.12.034.197.053m.262 2.706c-.29 0-.56-.027-.823-.082l-.034-.007c-.148-.035-.333-.079-.53-.151-3.933-1.377-7.203-3.317-9.717-5.767-2.238-2.18-3.936-4.821-5.049-7.85C-.155 22.624-.049 16.806.037 12.131l.004-.193c.02-.337.028-.691.036-1.155.04-2.858 2.312-5.218 5.17-5.37 4.15-.233 7.352-1.58 10.073-4.239l.063-.061.054-.04c1.485-1.308 3.688-1.292 5.154.048l.06.058c2.722 2.657 5.923 4 10.07 4.226 2.86.162 5.129 2.526 5.17 5.382.006.422.02.798.037 1.178v.078c.086 4.699.193 10.547-1.8 15.96-1.123 3.036-2.82 5.678-5.046 7.854-2.505 2.45-5.773 4.39-9.71 5.769-.197.072-.394.127-.585.162-.257.052-.52.078-.804.078" mask="url(#ugl1dwgdpb)"/>
                            </g>
                            <path fill="#FE1D00" d="M25.529 17.005l-8.9 8.9c-.371.371-.862.557-1.354.557-.491 0-.983-.186-1.354-.557l-3.396-3.396c-.743-.743-.743-1.955 0-2.708.743-.743 1.955-.743 2.708 0l2.053 2.053 7.535-7.557c.742-.742 1.954-.742 2.708 0 .742.754.742 1.966 0 2.708" transform="translate(-1262 -2582) translate(420 2574) translate(826) translate(16 8)"/>
                        </g>
                    </g>
                </g>
            </g>
        </g>
    </g>
</svg>
