<svg xmlns="http://www.w3.org/2000/svg" width="24" height="24" viewBox="0 0 24 24"><defs><style>.a{fill:none;}.b{fill:#fff;}</style></defs><path class="a" d="M0,0H24V24H0Z"/><path class="b" d="M19,3H14.82A2.988,2.988,0,0,0,9.18,3H5A2.006,2.006,0,0,0,3,5V19a2.006,2.006,0,0,0,2,2H19a2.006,2.006,0,0,0,2-2V5A2.006,2.006,0,0,0,19,3Zm-7-.25a.75.75,0,1,1-.75.75A.755.755,0,0,1,12,2.75ZM13,17H8a1,1,0,0,1-1-1H7a1,1,0,0,1,1-1h5a1,1,0,0,1,1,1h0A1,1,0,0,1,13,17Zm3-4H8a1,1,0,0,1-1-1H7a1,1,0,0,1,1-1h8a1,1,0,0,1,1,1h0A1,1,0,0,1,16,13Zm0-4H8A1,1,0,0,1,7,8H7A1,1,0,0,1,8,7h8a1,1,0,0,1,1,1h0A1,1,0,0,1,16,9Z" transform="translate(0 1)"/></svg>