<svg xmlns="http://www.w3.org/2000/svg" width="20" height="20" viewBox="0 0 20 20"><defs><style>.a{fill:none;}.b{fill:#fff;}</style></defs><path class="a" d="M0,0H20V20H0Z"/><path class="b" d="M10.333,2a8.333,8.333,0,1,0,8.333,8.333A8.336,8.336,0,0,0,10.333,2Zm-.125,13.333a1.046,1.046,0,0,1-1.05-1.05,1.033,1.033,0,0,1,1.05-1.042,1.021,1.021,0,0,1,1.042,1.042A1.039,1.039,0,0,1,10.208,15.333Zm2.508-6.167c-.633.925-1.233,1.217-1.558,1.808a1.31,1.31,0,0,0-.158.492.765.765,0,0,1-.75.683h-.033a.749.749,0,0,1-.75-.817,1.962,1.962,0,0,1,.25-.833c.408-.725,1.183-1.158,1.633-1.8a1.237,1.237,0,0,0-1.142-1.942,1.443,1.443,0,0,0-1.258.708.742.742,0,0,1-1.233-.825,2.91,2.91,0,0,1,2.475-1.308A2.812,2.812,0,0,1,12.7,6.6,2.515,2.515,0,0,1,12.717,9.167Z" transform="translate(-0.334 -0.333)"/></svg>