<svg xmlns="http://www.w3.org/2000/svg" width="80" height="80" viewBox="0 0 80 80"><defs><style>.a{fill:none;}.b{fill:#cce6fe;}.c{fill:#0075C9;}</style></defs><rect class="a" width="80" height="80"/><g transform="translate(-185.305 -314.291)"><rect class="b" width="31" height="22" transform="translate(202.305 349.291)"/><g transform="translate(200.304 335.291)"><path class="c" d="M243.144,373.291h-36.5a6.343,6.343,0,0,1-6.337-6.335V341.625a6.343,6.343,0,0,1,6.337-6.334h36.5a6.342,6.342,0,0,1,6.335,6.334v25.331A6.342,6.342,0,0,1,243.144,373.291Zm-36.5-34.54a2.88,2.88,0,0,0-2.877,2.874v25.331a2.88,2.88,0,0,0,2.877,2.874h36.5a2.878,2.878,0,0,0,2.874-2.874V341.625a2.878,2.878,0,0,0-2.874-2.874Z" transform="translate(-200.304 -335.291)"/></g><g transform="translate(202.035 347.482)"><rect class="c" width="45.713" height="3.46"/></g><g transform="translate(211.838 358.657)"><path class="c" d="M213.639,348.88h-6.6a1.73,1.73,0,0,1,0-3.46h6.6a1.73,1.73,0,0,1,0,3.46Z" transform="translate(-205.304 -345.42)"/></g></g></svg>