<svg xmlns="http://www.w3.org/2000/svg" width="40" height="40" viewBox="0 0 40 40"><defs><style>.a,.c{fill:none;}.b{fill:#525252;stroke-width:0.8px;}.b,.c{stroke:#525252;}.c{stroke-linecap:round;stroke-linejoin:round;stroke-width:2.5px;}</style></defs><rect class="a" width="40" height="40"/><g transform="translate(2 1.502)"><path class="b" d="M23638.426,16630.5a2.143,2.143,0,1,1,2.143,2.143A2.141,2.141,0,0,1,23638.426,16630.5Zm-9.711,0a2.143,2.143,0,1,1,2.143,2.143A2.138,2.138,0,0,1,23628.715,16630.5Zm-2.658-9.828-.92-9.982-1.768-3.217a.74.74,0,0,0-.643-.332h-3.654a1.071,1.071,0,1,1,0-2.143h3.654a2.868,2.868,0,0,1,2.518,1.447l1.561,2.838h18.084a3.133,3.133,0,0,1,2.527,1.223,2.768,2.768,0,0,1,.486,2.434l-2.326,8.379a4.2,4.2,0,0,1-4.125,2.975h-11.109c-.068,0-.139,0-.207,0A4.106,4.106,0,0,1,23626.057,16620.672Zm2.1-.2a2.02,2.02,0,0,0,2.143,1.668h11.15a2.056,2.056,0,0,0,2.078-1.4l2.326-8.385a.631.631,0,0,0-.143-.547,1.067,1.067,0,0,0-.824-.379h-17.537Z" transform="translate(-23615 -16600)"/><path class="c" d="M14.779,23.766l-.619,4.352H29.365" transform="translate(-2 -1)"/></g></svg>