<svg xmlns="http://www.w3.org/2000/svg" width="20" height="20" viewBox="0 0 20 20"><defs><style>.a{fill:none;}.b{fill:#fff;}</style></defs><rect class="a" width="20" height="20"/><g transform="translate(2.999 2)"><path class="b" d="M10.071,2A7.072,7.072,0,0,0,3,9.071v5.5a1.576,1.576,0,0,0,1.571,1.571H6.143a1.576,1.576,0,0,0,1.571-1.571V11.429A1.576,1.576,0,0,0,6.143,9.857H4.571V9.071a5.5,5.5,0,0,1,11,0v.786H14a1.576,1.576,0,0,0-1.571,1.571v3.143A1.576,1.576,0,0,0,14,16.143h1.571v.786H10.857a.786.786,0,1,0,0,1.571h4.714a1.576,1.576,0,0,0,1.571-1.571V9.071A7.072,7.072,0,0,0,10.071,2Z" transform="translate(-3 -2)"/></g></svg>