<svg xmlns="http://www.w3.org/2000/svg" width="80" height="80" viewBox="0 0 80 80"><defs><style>.a{fill:none;}.b{fill:#cce6ff;}.c{fill:#0075C9;}</style></defs><rect class="a" width="80" height="80"/><g transform="translate(-131.59 -252.245)"><rect class="b" width="18" height="28" transform="translate(159.59 275.245)"/><g transform="translate(143.588 273.245)"><path class="c" d="M177.749,306.466H160.555a1.784,1.784,0,1,1,0-3.568h15.409v-25.49a.6.6,0,0,0-.595-.595H147.751a.6.6,0,0,0-.595.595v24.9a.6.6,0,0,0,.595.595H151a1.784,1.784,0,1,1,0,3.568h-3.245a4.169,4.169,0,0,1-4.163-4.163v-24.9a4.169,4.169,0,0,1,4.163-4.163H175.37a4.167,4.167,0,0,1,4.163,4.163v27.274A1.785,1.785,0,0,1,177.749,306.466Z" transform="translate(-143.588 -273.245)"/></g><g transform="translate(175.965 279.901)"><path class="c" d="M177.18,302.609h-3.128a1.784,1.784,0,1,1,0-3.568h3.128a.6.6,0,0,0,.595-.595v-7.3a2.967,2.967,0,0,0-.756-1.981l-7.657-8.561a2.985,2.985,0,0,0-2.217-.99h-6.377V299.04h3.725a1.784,1.784,0,0,1,0,3.568h-5.509a1.785,1.785,0,0,1-1.784-1.784v-23a1.785,1.785,0,0,1,1.784-1.784h8.161a6.55,6.55,0,0,1,4.874,2.179l7.659,8.561a6.519,6.519,0,0,1,1.665,4.36v7.3A4.167,4.167,0,0,1,177.18,302.609Z" transform="translate(-157.199 -276.043)"/></g><g transform="translate(181.474 298.117)"><path class="c" d="M166.078,296.829a6.564,6.564,0,1,1,6.565-6.563A6.57,6.57,0,0,1,166.078,296.829Zm0-9.56a3,3,0,1,0,3,3A3,3,0,0,0,166.078,287.269Z" transform="translate(-159.515 -283.701)"/></g><g transform="translate(149.211 298.117)"><path class="c" d="M152.515,296.829a6.564,6.564,0,1,1,6.565-6.563A6.571,6.571,0,0,1,152.515,296.829Zm0-9.56a3,3,0,1,0,3,3A3,3,0,0,0,152.515,287.269Z" transform="translate(-145.952 -283.701)"/></g></g></svg>