<svg xmlns="http://www.w3.org/2000/svg" width="32" height="32" viewBox="0 0 32 32"><defs><style>.a{fill:none;}.b{fill:#fff;}</style></defs><rect class="a" width="32" height="32"/><g transform="translate(2 2)"><path class="b" d="M21.369,18.867a2.834,2.834,0,0,0,2.45-1.579l4.97-9.875a1.726,1.726,0,0,0-.014-1.7A1.414,1.414,0,0,0,27.6,5.067H6.894L5.956,2.874A1.386,1.386,0,0,0,4.7,2H2.4A1.476,1.476,0,0,0,1,3.533H1A1.476,1.476,0,0,0,2.4,5.067H3.8L8.84,16.7,6.95,20.446C5.928,22.5,7.272,25,9.4,25H24.8a1.476,1.476,0,0,0,1.4-1.533h0a1.476,1.476,0,0,0-1.4-1.533H9.4l1.54-3.067Z" transform="translate(-1 -2)"/><circle class="b" cx="2" cy="2" r="2" transform="translate(6 24)"/><circle class="b" cx="2" cy="2" r="2" transform="translate(22 24)"/></g></svg>