<svg xmlns="http://www.w3.org/2000/svg" width="40" height="40" viewBox="0 0 40 40"><defs><style>.a{fill:none;}.b{fill:#525252;}</style></defs><rect class="a" width="40" height="40"/><path class="b" d="M16,1A15,15,0,1,0,31,16,15,15,0,0,0,16,1Zm0,27.273A13.147,13.147,0,0,1,8.9,25.99a9.545,9.545,0,0,1,14.206,0A12.5,12.5,0,0,1,16,28.273Zm9.128-4.1a12.245,12.245,0,0,0-18.256,0,12.273,12.273,0,1,1,18.256,0ZM16,7.818a5.455,5.455,0,1,0,5.455,5.455A5.455,5.455,0,0,0,16,7.818ZM16,16a2.727,2.727,0,1,1,2.727-2.727A2.727,2.727,0,0,1,16,16Z" transform="translate(4 4)"/></svg>