<svg xmlns="http://www.w3.org/2000/svg" width="40" height="40" viewBox="0 0 40 40"><defs><style>.a{fill:none;}.b{fill:#525252;stroke:#525252;stroke-width:0.3px;}</style></defs><rect class="a" width="40" height="40"/><g transform="translate(1.003 1.999)"><path class="b" d="M35.5,14.968l-4.735-4.674a1.591,1.591,0,0,0-1.081-.437H22.641V6.676A1.578,1.578,0,0,0,21.2,5H3.47A1.578,1.578,0,0,0,2,6.676V23.965A1.578,1.578,0,0,0,3.47,25.64h.959a3.327,3.327,0,0,0,0,.607,4.249,4.249,0,0,0,8.5,0,3.327,3.327,0,0,0,0-.607H25.069a3.327,3.327,0,0,0,0,.607,4.249,4.249,0,0,0,8.5,0,3.326,3.326,0,0,0,0-.607h.9A1.639,1.639,0,0,0,36,23.953v-7.77a1.7,1.7,0,0,0-.5-1.214Zm-26.82,13.1a1.821,1.821,0,0,1-1.821-1.821A1.809,1.809,0,0,1,7.8,24.669h0a1.991,1.991,0,0,1,.4-.17h0a1.918,1.918,0,0,1,.474-.073,1.821,1.821,0,0,1,0,3.642Zm2.962-4.857a4.225,4.225,0,0,0-5.925,0H4.429V7.428H20.213V23.212Zm19.5,3.035a1.821,1.821,0,1,1-1.821-1.821,1.542,1.542,0,0,1,.474.073,1.773,1.773,0,0,1,1.214,1.141,1.688,1.688,0,0,1,.134.607Zm2.428-3.035H32.281a4.225,4.225,0,0,0-5.913,0H22.641V12.285H29.4l4.164,4.286Z"/></g></svg>