<svg xmlns="http://www.w3.org/2000/svg" width="80" height="80" viewBox="0 0 80 80"><defs><style>.a{fill:none;}.b{fill:#cce6fe;}.c{fill:#0075C9;stroke:rgba(0,0,0,0);stroke-miterlimit:10;}</style></defs><rect class="a" width="80" height="80"/><g transform="translate(-75.988 -193.44)"><rect class="b" width="18" height="21" transform="translate(97.988 234.44)"/><path class="c" d="M22962.9,3364.44h-20.078a4.034,4.034,0,0,1-4.025-4.026v-16.272l-.162-.04a7.651,7.651,0,0,1-4.879-10.746l.035-.075,5.357-12.937a6.308,6.308,0,0,1,5.844-3.9h25.055a6.316,6.316,0,0,1,5.85,3.9l5.352,12.943a.428.428,0,0,1,.041.069,7.7,7.7,0,0,1,.5,5.4,7.6,7.6,0,0,1-5.377,5.347l-.16.04v16.272a4.034,4.034,0,0,1-4.027,4.026Zm9.32-3.449a.574.574,0,0,0,.572-.577v-16.22a7.509,7.509,0,0,1-4.025-2.312,21.087,21.087,0,0,0-16.854,2.48,7.587,7.587,0,0,1-5.631-2.486,7.5,7.5,0,0,1-4.037,2.321v16.217a.578.578,0,0,0,.576.577h7.592v-4.943a7.105,7.105,0,1,1,14.211,0v4.943Zm-11.045,0v-4.943a3.656,3.656,0,1,0-7.312,0v4.943Zm-20.525-20.078a4.2,4.2,0,0,0,3.979-2.97,1.729,1.729,0,0,1,3.3,0,4.164,4.164,0,0,0,7.959.052,1.724,1.724,0,0,1,3.283-.006,4.168,4.168,0,0,0,7.959-.023,1.723,1.723,0,0,1,3.287,0,4.22,4.22,0,0,0,4.1,2.942h.012a4.666,4.666,0,0,0,1.023-.144,4.174,4.174,0,0,0,2.9-2.89,4.309,4.309,0,0,0-.2-2.867,1.339,1.339,0,0,1-.115-.231l-5.426-13.11a2.873,2.873,0,0,0-2.66-1.777H22945a2.865,2.865,0,0,0-2.654,1.777l-5.432,13.11a1.207,1.207,0,0,1-.115.237,4.253,4.253,0,0,0-.2,2.861,4.153,4.153,0,0,0,2.9,2.89,4.648,4.648,0,0,0,.975.146h.051C22940.568,3340.907,22940.611,3340.91,22940.654,3340.913Z" transform="translate(-22841.998 -3107)"/></g></svg>