<svg xmlns="http://www.w3.org/2000/svg" width="80" height="80" viewBox="0 0 80 80"><defs><style>.a{fill:none;}.b{fill:#cce6fe;}.c{fill:#0075C9;stroke:rgba(0,0,0,0);stroke-miterlimit:10;}</style></defs><rect class="a" width="80" height="80"/><g transform="translate(-468.117 -192.624)"><path class="b" d="M0,11.829,19,0V45L3.994,31.138Z" transform="translate(487.117 210.624)"/><path class="c" d="M23229.992,3360.749c-10.668-6.21-17.713-17.783-18.852-30.968a6.256,6.256,0,0,1,3.98-6.356,53.535,53.535,0,0,0,14.211-8.439,6.257,6.257,0,0,1,7.793,0,53.37,53.37,0,0,0,14.223,8.445,6.239,6.239,0,0,1,3.969,6.338c-1.133,13.19-8.184,24.77-18.857,30.979a6.409,6.409,0,0,1-6.467,0Zm1.482-43.1a57.053,57.053,0,0,1-15.133,8.976,2.815,2.815,0,0,0-1.8,2.865c1.045,12.075,7.459,22.657,17.166,28.312a3.028,3.028,0,0,0,3.033,0c9.713-5.655,16.127-16.242,17.172-28.324a2.815,2.815,0,0,0-1.787-2.854,56.86,56.86,0,0,1-15.145-8.976,2.815,2.815,0,0,0-3.508,0Zm-1.424,25.306-5.078-5.078a1.708,1.708,0,1,1,2.422-2.41l3.863,3.864,7.816-7.815a1.708,1.708,0,0,1,2.416,2.416l-9.023,9.023a1.7,1.7,0,0,1-2.416,0Z" transform="translate(-22726.002 -3105)"/></g></svg>