<svg xmlns="http://www.w3.org/2000/svg" width="24" height="24" viewBox="0 0 24 24">
    <g fill="none" fill-rule="evenodd">
        <g fill="#333">
            <g>
                <path d="M7.8 18.3c1.16 0 2.1.94 2.1 2.1l-.005.15c-.077 1.09-.986 1.95-2.095 1.95-1.16 0-2.1-.94-2.1-2.1 0-1.16.94-2.1 2.1-2.1zm10.1 0c.557 0 1.091.221 1.485.615.394.394.615.928.615 1.485l-.005.15c-.077 1.087-.982 1.946-2.088 1.95-1.158.004-2.1-.93-2.107-2.087-.007-1.157.923-2.102 2.08-2.113zM4.28 1.5c.422 0 .804.252.97.64l.66 1.46h15.54c.58 0 1.05.47 1.05 1.05l-4 7.475-.081.142c-.347.552-.955.892-1.614.893h-7.85l-.945 1.805v.105l.016.063c.032.078.106.135.194.142h11.13c.58 0 1.05.47 1.05 1.05 0 .58-.47 1.05-1.05 1.05H7.8c-1.16 0-2.1-.94-2.1-2.1l.025-.265c.034-.264.096-.524.185-.775l1.47-2.55L3.6 3.6H2.55c-.58 0-1.05-.47-1.05-1.05 0-.58.47-1.05 1.05-1.05z" transform="translate(-1457 -54) translate(1457 54)"/>
            </g>
        </g>
    </g>
</svg>
