<svg xmlns="http://www.w3.org/2000/svg" width="159.643" height="30" viewBox="0 0 159.643 30"><defs><style>.a{fill:#fff;}.b{fill:#fa880d;}</style></defs><g transform="translate(-335.545 -276.535)"><g transform="translate(335.545 276.535)"><path class="a" d="M539.589,285.886c1.364-.049,1.81.366,1.835,1.082s-.813,1.4-2.1,1.441-1.673-.587-1.689-1.015.45-1.455,1.954-1.508" transform="translate(-395.014 -279.286)"/><path class="a" d="M519.955,304l1.44.075s-.879,5.433-16.82,9.228c-12.528,2.92-26.2.058-26.2.058l1.869-1.994a64.853,64.853,0,0,0,16.415,1.507c6.163-.22,13.841-2.253,17.576-4.313a20.492,20.492,0,0,0,5.717-4.56" transform="translate(-377.577 -284.618)"/><path class="b" d="M531.663,288.135a8.48,8.48,0,0,0-3.354,2.558c-.953,1.544-1.287,4.139-3.868,4.231s-4.195-2.867-4.283-5.3,2.09-3.877,5.386-4,5.557.878,6.119,2.507" transform="translate(-389.871 -279.208)"/><path class="b" d="M533.161,283.38c-2.15-1.862-4.414-.993-5.417-.957s-2.457-.412-2.488-1.275c-.072-2,3.287-4.424,8.3-4.6,2.8-.1,4.254.5,4.314,2.146s-2.285,4.241-4.71,4.689" transform="translate(-391.371 -276.535)"/><path class="b" d="M543.558,283.245c-.151-4.233,1.422-6.437,4.789-6.558s6.042,2.437,6.112,4.372c.033.932-.232,1.37-1.38,1.411s-3.331-.737-4.832-.684a8.912,8.912,0,0,0-4.689,1.458" transform="translate(-396.754 -276.579)"/><path class="b" d="M543.481,288.226c1.158-1.693,2.5-2.528,6.146-2.658s6.648,1.2,6.749,3.992-4.189,5.315-5.837,5.373-2.43-1.775-3.126-3.041-2.276-3.366-3.932-3.666" transform="translate(-396.735 -279.19)"/><path class="b" d="M537.2,290.374c3.228-.115,6.575,3.209,6.678,6.074.08,2.224-4.061,2.874-5.854,2.939s-7.843-.658-7.922-2.876c-.11-3.082,5.018-6.061,7.1-6.137" transform="translate(-392.798 -280.606)"/><path class="a" d="M346.343,300.776h-1.785l-2.587-8.187L338.1,304.6h-2.551l5.762-17.853h1.786l3.371,10.89,10.4-10.89h1.785L352.888,304.6h-2.551l3.878-12.013Z" transform="translate(-335.545 -279.54)"/><path class="a" d="M375.845,298.7a2.97,2.97,0,0,0-2.866-1.709,5.748,5.748,0,0,0-5.127,3.953c-.692,2.142.382,3.953,2.7,3.953a5.923,5.923,0,0,0,3.842-1.709Zm-2.228,7.141a7.33,7.33,0,0,1-4.135,1.351,4.813,4.813,0,0,1-2.754-.79c-1.465-1.071-2.072-3.061-1.3-5.458a9.7,9.7,0,0,1,4.856-5.483,7.141,7.141,0,0,1,3.179-.765,4.132,4.132,0,0,1,3.313,1.352l.354-1.1h2.347l-3.869,11.987h-2.347Z" transform="translate(-344.239 -281.88)"/><path class="a" d="M384.81,303.753a4.258,4.258,0,0,0,3.117,1.326,2.717,2.717,0,0,0,2.577-1.5c.444-1.378-1.521-1.454-3.09-2.041-1.3-.484-2.3-1.4-1.759-3.086A5.868,5.868,0,0,1,391.3,294.7a4.52,4.52,0,0,1,3.551,1.326l-1.81,1.735a3.106,3.106,0,0,0-2.272-.944,2.706,2.706,0,0,0-2.654,1.5c-.263.816.59,1.1,1.69,1.4,1.731.485,3.934,1.327,3.135,3.8-.733,2.27-3.3,3.673-5.648,3.673a5.551,5.551,0,0,1-4.312-1.658Z" transform="translate(-349.505 -281.88)"/><path class="b" d="M402.923,302.558l-4.688,4.489h-2.882l6.573-6.3-2.271-5.688h2.856l1.58,3.877,4.082-3.877h2.857l-5.942,5.688,2.507,6.3h-2.882Z" transform="translate(-353.145 -281.986)"/><path class="a" d="M420.36,294.954l-.371,1.148a7.168,7.168,0,0,1,3.973-1.4,3.779,3.779,0,0,1,3.591,1.989,8.32,8.32,0,0,1,5.208-1.989,3.776,3.776,0,0,1,3.61,2.015c.442.918.421,2.091-.229,4.106l-1.976,6.121h-2.424l2.1-6.5a2.976,2.976,0,0,0,.086-2.4,2.05,2.05,0,0,0-1.908-1.045,6.938,6.938,0,0,0-4.2,1.709,10.455,10.455,0,0,1-.478,2.117l-1.975,6.121h-2.423l2.1-6.5a2.978,2.978,0,0,0,.085-2.4,2.146,2.146,0,0,0-1.984-1.045,6.525,6.525,0,0,0-3.918,1.709l-2.658,8.238h-2.423l3.869-11.987Z" transform="translate(-358.675 -281.88)"/><path class="a" d="M450.323,299.417h6.529a2.264,2.264,0,0,0-2.323-2.6,5.207,5.207,0,0,0-4.205,2.6m-.863,2.04a2.684,2.684,0,0,0,2.708,3.622,6.112,6.112,0,0,0,3.97-1.632l1.1,1.5a8.761,8.761,0,0,1-5.774,2.244c-3.494,0-5.342-2.652-4.181-6.249s4.466-6.249,7.858-6.249c3.34,0,4.891,2.7,3.747,6.249a5.38,5.38,0,0,1-.191.51Z" transform="translate(-368.323 -281.88)"/><path class="a" d="M469.5,296.1a7.086,7.086,0,0,1,4.049-1.4,3.826,3.826,0,0,1,3.678,2.116c.452.97.466,2.194-.2,4.26l-1.893,5.866h-2.423l1.934-5.994c.494-1.53.445-2.244.183-2.78a2.2,2.2,0,0,0-2.1-1.173,6.3,6.3,0,0,0-4,1.709l-2.659,8.238h-2.423l3.868-11.987h2.347Z" transform="translate(-373.244 -281.88)"/><path class="a" d="M489.6,304.9a5.654,5.654,0,0,0,5.051-3.953c.708-2.193-.28-3.953-2.5-3.953a5.654,5.654,0,0,0-5.05,3.953c-.708,2.193.28,3.953,2.5,3.953m3.293-10.2c3.545,0,5.333,2.678,4.181,6.249a9.078,9.078,0,0,1-8.215,6.249c-3.545,0-5.333-2.678-4.181-6.249a9.079,9.079,0,0,1,8.215-6.249" transform="translate(-379.329 -281.88)"/><path class="a" d="M503.018,303.753a4.261,4.261,0,0,0,3.118,1.326,2.715,2.715,0,0,0,2.577-1.5c.445-1.378-1.52-1.454-3.09-2.041-1.3-.484-2.3-1.4-1.758-3.086a5.867,5.867,0,0,1,5.647-3.749,4.519,4.519,0,0,1,3.55,1.326l-1.809,1.735a3.106,3.106,0,0,0-2.272-.944,2.7,2.7,0,0,0-2.653,1.5c-.264.816.589,1.1,1.69,1.4,1.731.485,3.933,1.327,3.135,3.8-.732,2.27-3.3,3.673-5.649,3.673a5.55,5.55,0,0,1-4.311-1.658Z" transform="translate(-384.29 -281.88)"/></g></g></svg>