<svg xmlns="http://www.w3.org/2000/svg" width="83" height="16" viewBox="0 0 83 16">
    <g fill="none" fill-rule="evenodd">
        <g fill-rule="nonzero">
            <g>
                <g>
                    <g>
                        <g>
                            <g>
                                <g>
                                    <path fill="#B13034" d="M9.927 5.467C9.908 6.62 9.08 7.601 7.949 7.811c-1.133.21-2.256-.407-2.686-1.477-.43-1.07-.048-2.296.914-2.93.962-.634 2.237-.501 3.048.318.457.464.71 1.093.702 1.745" transform="translate(-532 -1344) translate(0 1337) translate(420) translate(112 7) translate(2.591 4.22) translate(.332 .184) translate(.228 .379)"/>
                                    <path fill="#006648" d="M10.663 0C9.51.199 8.38.51 7.29.932c-2.983 1.26-5.074 3.454-4.9 5.291.117 1.222.775 2.016 2.344 2.287C1.906 8.82.16 7.947.01 6.241-.202 4.188 2.568 1.687 6.205.544 6.735.39 7.272.267 7.816.174 8.76.05 9.712-.008 10.664.002" transform="translate(-532 -1344) translate(0 1337) translate(420) translate(112 7) translate(2.591 4.22) translate(.332 .184) translate(.228 .379)"/>
                                    <path fill="#006648" d="M4.31 0c1.153.198 2.283.51 3.374.931 2.983 1.26 5.074 3.454 4.9 5.291-.117 1.222-.775 2.016-2.344 2.287 2.828.31 4.573-.562 4.723-2.268.212-2.055-2.556-4.555-6.197-5.698C8.237.389 7.7.267 7.158.175 6.214.049 5.262-.01 4.309 0" transform="translate(-532 -1344) translate(0 1337) translate(420) translate(112 7) translate(2.591 4.22) translate(.332 .184) translate(.228 .379)"/>
                                    <path fill="#73757B" d="M19.65 4.692h.638c.717 0 1.143-.29 1.143-.736s-.426-.6-1.065-.6h-.446l-.27 1.336zm-.562 2.675h.445c.872 0 1.453-.252 1.453-.872s-.407-.66-1.182-.66h-.407l-.31 1.532zm-.62-5.233h2.866c.658 0 1.8.252 1.8 1.473-.038.91-.777 1.632-1.686 1.647.686.003 1.245.553 1.259 1.24 0 1.357-1.182 2.016-2.653 2.016l-2.924.04 1.338-6.416zM25.188 7.58c.647 0 1.186-.497 1.239-1.144h-.445c-.775-.02-1.356.253-1.356.676.022.289.273.505.562.484m1.104.33h-.02c-.372.523-.987.816-1.626.776-1.026 0-1.589-.466-1.589-1.396 0-.93 1.182-1.764 2.635-1.764.329 0 .674.04.89.058.015-.063.022-.129.02-.194 0-.349-.33-.62-.872-.62-.546-.012-1.086.115-1.57.369l.176-1.201c.566-.197 1.163-.288 1.762-.271 1.142 0 2.072.446 2.072 1.628 0 .756-.426 1.842-.6 3.276h-1.356l.078-.661zM29.119 5.021c.086-.416.15-.837.193-1.26h1.55l-.136.793h.02c.438-.58 1.131-.913 1.858-.892.42.007.82.188 1.103.5.282.312.423.728.388 1.148-.008.346-.053.69-.135 1.027l-.446 2.229H31.81l.465-2.249c.051-.236.084-.476.097-.717.008-.166-.06-.326-.184-.436-.125-.11-.292-.156-.456-.126-.643.144-1.134.666-1.239 1.318l-.464 2.21h-1.666l.756-3.545zM38.201 8.51c-.46.127-.936.185-1.413.175-.598.037-1.184-.179-1.615-.595-.43-.417-.667-.995-.651-1.595.009-.796.347-1.553.935-2.09.587-.536 1.371-.804 2.164-.74.517.02 1.027.124 1.51.31l-.368 1.163c-.333-.159-.696-.245-1.065-.252-.408-.024-.805.132-1.088.427-.283.294-.423.698-.384 1.105.001.294.126.574.343.773.216.198.506.297.799.273.367.012.731-.06 1.065-.213l-.232 1.26zM41.9 4.828c-.793 0-1.297.852-1.297 1.628 0 .775.349 1.086.91 1.066.806-.157 1.355-.91 1.259-1.727 0-.504-.213-.969-.872-.969m-.504 3.857c-1.782 0-2.498-.988-2.498-2.19 0-1.686 1.22-2.83 3.099-2.83 1.878 0 2.498.931 2.498 2.153 0 1.996-1.317 2.868-3.099 2.868M50.712 3.469h-.02l-1.355 2.52h1.665l-.29-2.52zM49.86 2.13h2.15l1.065 6.435h-1.743l-.175-1.376H48.66l-.756 1.376h-1.859l3.816-6.435zM53.462 7.328L56.077 4.982 54.024 4.982 54.276 3.761 58.343 3.761 58.091 5.02 55.457 7.366 57.647 7.366 57.396 8.567 53.232 8.567zM58.595 3.761h.949l.232-1.027 1.743-.465-.329 1.492h1.142l-.213 1.163H60.92l-.29 1.337c-.064.275-.11.553-.136.834-.012.147.041.292.146.396.104.105.249.158.396.147.186-.018.369-.064.542-.136l-.194 1.085c-.339.06-.682.093-1.026.097-.398.056-.8-.071-1.093-.346-.293-.275-.447-.668-.417-1.069.003-.334.048-.666.135-.989l.291-1.356h-.89l.21-1.163zM65.876 5.72c0-.526-.213-.95-.814-.95-.582-.01-1.095.384-1.239.95h2.053zm.445 2.694c-.547.168-1.114.259-1.685.271-1.607 0-2.479-.989-2.479-2.19-.031-.77.265-1.518.815-2.058.55-.539 1.303-.82 2.07-.772.585-.074 1.172.118 1.6.523.427.406.65.982.608 1.57-.015.3-.053.599-.116.892h-3.408c.02.526.29.93 1.297.93.515-.007 1.022-.119 1.491-.329l-.193 1.163zM71.337 8.51c-.46.127-.936.185-1.414.175-.596.034-1.18-.184-1.61-.6-.43-.415-.668-.992-.656-1.59.013-.795.352-1.55.939-2.086.587-.536 1.369-.805 2.16-.744.518.017 1.028.122 1.51.31L71.9 5.138c-.333-.16-.696-.246-1.066-.252-.407-.024-.804.132-1.087.427-.283.294-.424.698-.385 1.105.004.297.131.58.352.778.22.2.515.296.81.268.367.008.73-.065 1.065-.213l-.25 1.26zM74.107 7.58c.654.008 1.203-.491 1.259-1.144h-.446c-.794-.02-1.374.253-1.374.676.021.289.273.505.561.484m1.104.33h-.02c-.366.518-.973.811-1.607.776-1.026 0-1.607-.466-1.607-1.396 0-.93 1.182-1.764 2.654-1.764.329 0 .658.04.89.058.015-.063.022-.129.02-.194 0-.349-.349-.62-.89-.62-.54-.014-1.074.113-1.55.369l.155-1.201c.567-.193 1.164-.285 1.762-.271 1.143 0 2.092.446 2.092 1.628 0 .756-.426 1.842-.62 3.276h-1.356l.077-.661z" transform="translate(-532 -1344) translate(0 1337) translate(420) translate(112 7) translate(2.591 4.22) translate(.332 .184) translate(.228 .379)"/>
                                </g>
                            </g>
                        </g>
                    </g>
                </g>
            </g>
        </g>
    </g>
</svg>
