<svg xmlns="http://www.w3.org/2000/svg" width="46" height="25" viewBox="0 0 46 25">
    <g fill="none" fill-rule="evenodd">
        <g>
            <g>
                <g>
                    <g>
                        <g>
                            <path fill="#00529B" d="M15.289 0.398L13.368 11.303 16.438 11.303 18.361 0.398z" transform="translate(-659 -1341) translate(0 1337) translate(420) translate(239 4) translate(1 7)"/>
                            <g>
                                <path fill="#00529B" d="M27.581.482C26.972.261 26.02.024 24.828.024c-3.036 0-5.174 1.479-5.193 3.599-.017 1.566 1.527 2.44 2.692 2.962 1.196.534 1.598.875 1.593 1.353-.008.73-.955 1.064-1.839 1.064-1.23 0-1.882-.165-2.891-.572l-.396-.173-.431 2.44c.717.305 2.044.569 3.422.582 3.23 0 5.326-1.462 5.35-3.725.011-1.24-.807-2.184-2.58-2.962-1.074-.505-1.731-.842-1.724-1.352 0-.454.556-.938 1.759-.938 1.005-.015 1.732.197 2.3.418l.275.125.416-2.363M31.67 7.252c.255-.628 1.225-3.048 1.225-3.048-.018.03.252-.631.407-1.04l.208.94.711 3.148h-2.55zM35.46.224h-2.375c-.735 0-1.286.194-1.609.904l-4.562 9.993h3.226s.527-1.343.647-1.638l3.934.004c.092.382.374 1.634.374 1.634h2.85L35.46.224zM10.791.222L7.783 7.657l-.32-1.51c-.56-1.743-2.305-3.63-4.255-4.575l2.75 9.536 3.25-.003L14.046.222h-3.254" transform="translate(-659 -1341) translate(0 1337) translate(420) translate(239 4) translate(1 7) translate(0 .185)"/>
                                <path fill="#F3AA00" d="M4.993.215H.04L0 .442c3.854.902 6.404 3.084 7.463 5.704l-1.077-5.01C6.2.444 5.66.238 4.993.214" transform="translate(-659 -1341) translate(0 1337) translate(420) translate(239 4) translate(1 7) translate(0 .185)"/>
                            </g>
                        </g>
                    </g>
                </g>
            </g>
        </g>
    </g>
</svg>
