<svg xmlns="http://www.w3.org/2000/svg" width="33" height="24" viewBox="0 0 33 24">
    <g fill="none" fill-rule="evenodd">
        <g fill-rule="nonzero">
            <g>
                <g>
                    <g>
                        <g>
                            <path fill="#231F20" d="M23.024 10.6v.046h.043c.008 0 .016-.002.023-.006.006-.004.01-.01.009-.018 0-.007-.003-.014-.009-.018-.007-.004-.015-.006-.023-.006h-.043v.002zm.046-.034c.018-.001.037.004.052.015.012.01.019.026.018.042 0 .014-.005.027-.015.037-.011.01-.026.016-.04.017l.057.068h-.046l-.053-.067h-.017v.067h-.037v-.18h.081zm-.011.24c.02 0 .038-.003.056-.011.017-.008.033-.019.046-.032.013-.013.024-.03.03-.047.016-.037.016-.08 0-.117-.007-.017-.017-.033-.03-.047-.013-.013-.029-.024-.046-.031-.018-.008-.037-.012-.056-.012-.02 0-.04.004-.058.012-.017.007-.032.018-.045.031-.042.044-.054.11-.031.166.007.017.017.033.03.046.014.014.03.025.046.032.018.008.038.012.058.012m0-.343c.05 0 .1.02.137.057.054.055.07.139.04.21-.01.024-.023.044-.04.062-.018.017-.039.031-.061.041-.024.01-.049.016-.075.016-.025 0-.051-.006-.075-.016-.023-.01-.043-.023-.06-.041-.018-.018-.032-.04-.041-.063-.03-.072-.014-.156.04-.211.018-.018.039-.032.062-.041.023-.01.05-.016.075-.016M5.435 9.775c.018-.319.281-.565.593-.553.31.012.556.277.55.597-.005.32-.258.576-.57.577-.158.002-.31-.064-.419-.182-.109-.118-.165-.277-.154-.439m1.53 0v-.97h-.411v.234c-.142-.188-.365-.294-.597-.284-.53.026-.946.474-.946 1.018s.417.993.946 1.019c.232.01.455-.096.597-.285v.235h.41v-.97.003zm13.88 0c.018-.319.282-.565.593-.553.311.012.556.277.55.597-.005.32-.258.576-.57.577-.158.002-.31-.064-.419-.182-.108-.118-.164-.277-.154-.439m1.53 0V8.027h-.41V9.04c-.143-.188-.365-.294-.597-.284-.53.026-.946.474-.946 1.018s.416.992.946 1.018c.232.01.454-.095.597-.284v.234h.41v-.968zm-10.311-.64c.257-.006.47.203.478.468h-.98c.016-.27.238-.478.502-.468m.008-.378c-.535.026-.952.482-.945 1.031.007.55.437.994.972 1.005.283.01.559-.086.776-.272l-.201-.312c-.156.128-.349.2-.548.203-.282.024-.532-.186-.565-.475h1.403c.004-.052.008-.105.008-.162.024-.26-.06-.518-.23-.712-.17-.193-.412-.304-.667-.306m4.96 1.018c.018-.319.282-.565.593-.553.311.012.556.277.55.597-.004.32-.258.576-.57.577-.158.002-.31-.064-.418-.182-.11-.118-.165-.277-.154-.439m1.529 0v-.97h-.41v.235c-.143-.188-.365-.294-.598-.284-.529.026-.945.474-.945 1.018s.416.992.945 1.018c.233.01.455-.096.597-.284v.234h.41v-.97.003zm-3.85 0c-.01.276.093.544.285.738.192.194.454.296.723.28.247.013.489-.07.68-.231l-.198-.341c-.142.111-.316.173-.495.174-.321-.018-.573-.29-.573-.62s.252-.603.573-.621c.18.002.353.063.495.174l.197-.34c-.19-.162-.432-.244-.679-.232-.269-.015-.531.086-.723.28-.192.194-.296.462-.285.738m5.297-1.018c-.205-.006-.396.103-.499.284v-.234h-.406v1.94h.41V9.657c0-.32.134-.499.403-.499.088-.002.175.014.257.047l.127-.397c-.094-.035-.193-.053-.293-.053m-11.012.202c-.233-.141-.5-.212-.77-.202-.48 0-.787.234-.787.62 0 .316.228.511.652.572l.194.029c.225.032.331.094.331.203 0 .15-.15.234-.43.234-.226.006-.447-.065-.629-.203l-.193.328c.24.171.526.26.818.251.548 0 .862-.263.862-.632 0-.341-.248-.52-.66-.58l-.193-.03c-.178-.022-.32-.06-.32-.19 0-.14.134-.226.36-.226.207.003.41.06.589.166L9 8.958h-.002zm5.3-.202c-.203-.006-.395.103-.497.284v-.234h-.407v1.94h.41V9.657c0-.32.135-.499.404-.499.087-.002.175.014.256.047l.127-.397c-.094-.035-.193-.053-.293-.053m-3.505.047h-.672v-.589h-.415v.589h-.383v.385h.383v.884c0 .45.17.718.656.718.182 0 .36-.051.514-.15l-.119-.36c-.11.067-.236.105-.365.109-.205 0-.274-.13-.274-.325v-.876h.672l.003-.385zm-6.142 1.939V9.524c.014-.207-.06-.41-.202-.558-.142-.147-.34-.225-.542-.213-.266-.018-.52.115-.664.345-.13-.223-.37-.356-.624-.345-.22-.011-.431.099-.553.288v-.24h-.41v1.94h.414V9.664c-.019-.135.023-.27.112-.37.09-.1.218-.153.35-.145.274 0 .41.182.41.51v1.078h.416V9.66c-.017-.134.025-.269.114-.368.09-.1.217-.153.348-.147.28 0 .414.182.414.511v1.077l.417.009z" transform="translate(-884 -1341) translate(0 1337) translate(420) translate(464 4) translate(5 3)"/>
                            <path fill="#F79410" d="M23.658 4.617v-.605h-.12l-.138.416-.138-.416h-.12v.605h.085v-.456l.13.394h.088l.129-.395v.457h.084zm-.76 0v-.5h.152v-.1h-.392v.1h.152v.5H22.898z" transform="translate(-884 -1341) translate(0 1337) translate(420) translate(464 4) translate(5 3)"/>
                            <path fill="#FF5F00" d="M15.081 13.511L8.856 13.511 8.856 2.029 15.081 2.029z" transform="translate(-884 -1341) translate(0 1337) translate(420) translate(464 4) translate(5 3)"/>
                            <path fill="#EB001B" d="M9.25 7.77c-.001-2.24 1-4.357 2.718-5.74-2.918-2.356-7.11-2.015-9.63.784-2.518 2.799-2.518 7.114 0 9.913 2.52 2.798 6.712 3.14 9.63.784-1.718-1.383-2.72-3.5-2.718-5.74" transform="translate(-884 -1341) translate(0 1337) translate(420) translate(464 4) translate(5 3)"/>
                            <path fill="#F79E1B" d="M23.48 7.77c0 2.796-1.555 5.346-4.005 6.568-2.45 1.222-5.365.9-7.507-.827 1.716-1.385 2.717-3.5 2.717-5.74s-1.001-4.357-2.717-5.742C14.11.301 17.025-.02 19.475 1.202c2.45 1.222 4.006 3.773 4.006 6.568" transform="translate(-884 -1341) translate(0 1337) translate(420) translate(464 4) translate(5 3)"/>
                        </g>
                    </g>
                </g>
            </g>
        </g>
    </g>
</svg>
