<svg xmlns="http://www.w3.org/2000/svg" width="54" height="20" viewBox="0 0 54 20">
    <g fill="none" fill-rule="evenodd">
        <g fill-rule="nonzero">
            <g>
                <g>
                    <g>
                        <g>
                            <path fill="#2D3277" d="M18.545 5.738c0-3.145-4.149-5.708-9.266-5.708C4.16.03.012 2.594.012 5.738v.334c0 3.337 3.626 6.039 9.263 6.039 5.674 0 9.268-2.702 9.268-6.037.002-.119.002-.185.002-.336z" transform="translate(-982 -1343) translate(0 1337) translate(420) translate(562 6) translate(.964 3.857)"/>
                            <path fill="#009EE3" d="M18.19 5.733c0 2.965-3.988 5.369-8.91 5.369-4.923 0-8.911-2.404-8.911-5.369S4.357.365 9.279.365c4.923 0 8.911 2.404 8.911 5.368z" transform="translate(-982 -1343) translate(0 1337) translate(420) translate(562 6) translate(.964 3.857)"/>
                            <path fill="#FFF" d="M6.324 4.04c-.005.009-.094.096-.036.165.287.21.664.275 1.011.174.341-.128.654-.315.921-.552.311-.265.667-.478 1.053-.632.248-.086.518-.092.77-.018.255.09.491.22.7.384.61.431 3.06 2.447 3.483 2.795 1.262-.514 2.574-.912 3.918-1.188-.24-1.104-.903-2.086-1.864-2.758-1.518.694-3.284.721-4.825.075-.574-.245-1.194-.378-1.823-.392-.986.005-1.917.429-2.533 1.154l-.775.794z" transform="translate(-982 -1343) translate(0 1337) translate(420) translate(562 6) translate(.964 3.857)"/>
                            <path fill="#FFF" d="M14.126 6.576c-.028-.024-2.882-2.376-3.53-2.833-.224-.189-.5-.313-.798-.358-.128-.01-.256.002-.38.034-.382.135-.735.333-1.042.586-.293.26-.64.463-1.019.594-.382.074-.78.018-1.122-.159-.08-.046-.145-.112-.187-.19-.047-.125-.01-.263.094-.351l.788-.803c.092-.085.184-.172.278-.256-.243.034-.483.084-.718.15-.271.085-.553.135-.837.148-.286-.027-.57-.07-.852-.126-.782-.19-1.542-.448-2.272-.773C1.48 2.907.733 3.924.444 5.086c.16.04.42.115.529.136 2.533.53 3.321 1.078 3.465 1.191.17-.18.42-.278.676-.264.256.014.492.138.639.337.17-.13.384-.2.603-.2.124 0 .246.02.362.06.228.068.414.226.51.433.11-.046.23-.07.352-.07.146.001.29.031.422.088.38.168.586.56.498.947.033-.004.066-.006.1-.005.353 0 .68.174.862.46.18.285.19.64.022.933.262.15.564.226.871.22.155 0 .303-.06.408-.167.026-.034.054-.073.027-.1l-.714-.753s-.118-.104-.08-.146c.04-.041.114.018.165.06.364.286.807.718.807.718.008.005.038.059.203.086.198.033.402-.012.564-.124.046-.036.088-.076.125-.12l-.008.007c.103-.135.094-.318-.02-.444l-.834-.883s-.12-.104-.08-.146c.04-.041.114.019.166.06.267.208.64.56.996.891.244.155.566.144.798-.026.19-.099.304-.29.297-.493-.018-.125-.08-.24-.176-.328l-1.14-1.08s-.121-.097-.077-.146c.034-.041.113.018.164.06.364.286 1.347 1.135 1.347 1.135.236.144.543.138.773-.015.146-.082.24-.225.253-.385.009-.166-.06-.328-.19-.44l-.003.003z" transform="translate(-982 -1343) translate(0 1337) translate(420) translate(562 6) translate(.964 3.857)"/>
                            <path fill="#FFF" d="M8.595 7.947c-.134.017-.266.045-.395.083-.013-.009.01-.076.028-.114.018-.039.25-.698-.32-.927-.26-.132-.581-.087-.79.11-.023.025-.034.022-.036-.008-.008-.253-.185-.473-.441-.548-.364-.106-.757.026-.968.324-.038-.267-.266-.474-.55-.5-.285-.028-.552.133-.646.387-.093.255.01.536.252.681.24.145.556.115.761-.072.005.002.006.009.003.02-.087.374.13.751.511.885.202.073.43.04.6-.087.049-.032.057-.018.053.025-.03.272.155.523.436.59.22.1.482.054.648-.114.053-.05.07-.04.074.034.02.402.378.715.805.702.428-.013.765-.346.758-.748-.007-.403-.356-.726-.783-.725v.002z" transform="translate(-982 -1343) translate(0 1337) translate(420) translate(562 6) translate(.964 3.857)"/>
                            <path fill="#2D3277" d="M14.235 6.294c-.878-.723-2.91-2.386-3.46-2.774-.214-.17-.456-.302-.718-.394-.114-.033-.232-.05-.352-.05-.151.002-.302.026-.446.071-.386.15-.742.363-1.053.627l-.017.013c-.262.23-.566.413-.898.54-.11.022-.221.034-.333.034-.227.018-.452-.05-.624-.19-.016-.019-.006-.05.03-.093l.006-.006.773-.785c.606-.714 1.523-1.133 2.494-1.137h.065c.598.022 1.186.153 1.732.386.732.345 1.539.528 2.358.534.898-.015 1.782-.215 2.59-.585-.1-.08-.206-.157-.314-.234-.715.308-1.49.474-2.275.487-.767-.006-1.522-.177-2.208-.502-.592-.255-1.233-.397-1.884-.42h-.075c-.784-.01-1.546.245-2.147.719-.364.017-.724.08-1.071.183-.245.077-.499.122-.756.136-.097 0-.27-.009-.287-.009-.927-.153-1.836-.39-2.715-.709-.11.074-.218.15-.32.23.946.372 1.934.641 2.945.802.122.007.25.02.38.02.29-.014.576-.064.851-.15.164-.044.344-.091.536-.125-.054.046-.102.094-.153.142l-.786.802c-.121.103-.164.265-.106.409.045.089.117.164.207.216.254.135.542.205.834.2.112 0 .223-.01.333-.032.387-.132.74-.337 1.04-.602.304-.247.65-.442 1.023-.577.093-.024.188-.037.284-.038.024 0 .049.001.073.004.288.044.557.165.774.348.645.458 3.499 2.808 3.527 2.832.114.102.177.246.17.394-.01.144-.096.272-.228.344-.11.07-.24.107-.372.11-.118 0-.233-.032-.332-.091-.01-.008-.988-.852-1.348-1.136-.045-.045-.104-.075-.17-.085-.028-.001-.056.01-.074.032-.054.065.006.157.08.216l1.143 1.081c.086.078.142.18.16.292.006.185-.099.358-.271.446-.12.079-.26.123-.405.126-.116 0-.229-.033-.325-.093l-.164-.15c-.298-.278-.607-.565-.834-.742-.046-.044-.106-.073-.17-.083-.028 0-.054.01-.073.029-.025.026-.044.076.02.156.018.021.037.041.058.06l.832.88c.099.107.107.263.019.377l-.03.035c-.024.025-.05.048-.077.07-.118.082-.261.124-.407.122-.038 0-.076-.003-.113-.009-.06-.004-.118-.027-.164-.065l-.01-.01c-.046-.044-.466-.451-.813-.722-.043-.043-.099-.071-.16-.081-.029 0-.056.01-.075.03-.07.071.035.178.079.217l.712.737c-.007.017-.016.032-.027.046-.026.033-.112.114-.37.144-.032.004-.063.006-.095.005-.244-.014-.482-.081-.695-.195.155-.309.131-.671-.063-.96-.195-.289-.532-.464-.895-.464h-.04c.061-.39-.158-.773-.539-.938-.139-.058-.29-.09-.442-.092-.111 0-.221.019-.325.056-.107-.198-.294-.348-.519-.416-.122-.04-.25-.062-.38-.063-.212 0-.42.062-.592.179-.16-.188-.395-.302-.649-.316-.254-.013-.502.076-.682.245-.222-.16-1.099-.684-3.448-1.187-.113-.024-.373-.094-.535-.138-.027.12-.047.24-.06.363 0 0 .434.1.518.114 2.4.502 3.194 1.025 3.327 1.123-.116.261-.086.56.081.796.167.236.448.377.75.377.055 0 .11-.004.165-.013.072.34.33.621.678.737.102.038.21.058.32.058.068 0 .136-.008.202-.024.169.333.52.55.912.56.094.001.187-.014.275-.046.135.312.428.538.779.602.35.064.712-.044.96-.285.275.149.582.235.899.25.046 0 .092-.004.136-.007.236-.007.457-.11.607-.28.014-.019.027-.038.038-.059.093.027.19.042.287.043.21-.004.414-.073.58-.195.175-.108.298-.276.342-.469V8.65c.064.013.129.019.194.019.213-.003.42-.065.597-.179.27-.15.434-.426.426-.721.064.012.13.018.196.018.198-.002.392-.058.558-.162.223-.128.367-.35.388-.594.014-.169-.028-.337-.121-.48 1.199-.462 2.437-.827 3.701-1.092-.01-.122-.029-.243-.053-.362-1.336.284-2.64.687-3.895 1.203l-.006-.005zm-5.64 3.07c-.389.003-.71-.285-.725-.651 0-.031-.004-.115-.079-.115-.034.004-.066.02-.088.044-.093.093-.221.147-.357.15-.08-.002-.16-.02-.235-.05-.414-.157-.419-.425-.405-.534.008-.028.003-.057-.014-.081l-.026-.022h-.025c-.027.002-.052.011-.072.028-.101.073-.224.114-.351.118-.068-.001-.134-.014-.196-.038-.357-.126-.56-.48-.476-.83.006-.025-.003-.05-.024-.068l-.04-.03-.036.033c-.105.096-.245.15-.392.15-.304.003-.556-.222-.57-.508-.015-.287.213-.533.516-.558.304-.025.574.18.612.465l.02.143.08-.12c.15-.206.395-.332.659-.34.083.001.166.014.245.038.234.07.395.271.4.502.006.069.06.072.069.072.025-.001.049-.013.065-.032.108-.107.259-.167.416-.166.108.002.214.025.312.067.533.215.291.852.289.858-.045.106-.048.15-.004.179l.021.01H8.2c.035-.004.07-.012.103-.025.09-.034.186-.054.284-.06.399.004.722.308.726.685.003.376-.318.685-.718.689v-.002zM50.12 2.1c-.843-.79-2.205-.79-3.047 0-.67.83-.67 1.977 0 2.805.847.778 2.199.778 3.046 0 .67-.828.67-1.976 0-2.805zm-.83 2.263c-.174.193-.43.305-.699.305-.269 0-.524-.112-.698-.305-.328-.534-.328-1.193 0-1.728.174-.192.43-.303.698-.303.27 0 .524.11.7.303.323.536.323 1.193 0 1.728zM41.574 1.77c-.362-.167-.761-.25-1.164-.243-.53-.052-1.056.13-1.422.496-.182.235-.285.516-.294.807h1.003c.016-.125.067-.243.148-.343.141-.129.335-.192.53-.173.173-.01.346.021.505.088.118.065.185.189.172.317-.002.129-.093.241-.225.278-.134.045-.273.073-.415.085l-.355.041c-.32.025-.632.107-.919.242-.378.202-.6.59-.57 1-.02.31.11.612.354.822.255.191.571.294.897.29 2.268.095 2.243-1.127 2.263-1.38V2.693c.042-.376-.16-.738-.51-.921l.002-.001zm-.526 2.134c.025.258-.086.511-.298.677-.184.121-.403.186-.627.186-.132.003-.26-.037-.365-.112-.108-.092-.163-.226-.15-.362-.01-.172.086-.333.246-.415.15-.07.313-.115.48-.134l.237-.041c.095-.016.188-.039.279-.068.07-.025.139-.056.202-.094v.363h-.004zM36.398 2.366c.219-.017.433.067.573.226.085.111.14.24.16.377h1.118c-.009-.437-.226-.846-.593-1.114-.386-.224-.834-.333-1.286-.316-.543-.027-1.072.167-1.45.534-.373.416-.562.952-.526 1.495-.024.5.145.993.475 1.386.383.381.929.578 1.484.534.589.036 1.159-.204 1.523-.64.205-.242.33-.535.36-.843H37.12c-.014.175-.082.342-.196.48-.143.137-.344.205-.546.185-.33.02-.633-.171-.738-.466-.08-.211-.116-.435-.107-.659-.009-.234.027-.468.107-.69.106-.306.417-.507.759-.49zM34.091 1.539c-2.299 0-2.162 1.917-2.162 1.917v1.946h1.044V3.576c-.014-.227.027-.455.121-.665.175-.272.504-.422.84-.383.03 0 .072.001.124.004.053.002.107.006.175.013v-.999l-.09-.005-.052-.002zM30.26 4.385c-.039.057-.087.108-.142.15-.17.114-.378.168-.586.151-.194.011-.388-.033-.555-.126-.277-.17-.437-.467-.422-.779h2.886c.009-.247-.003-.495-.035-.74-.041-.277-.149-.54-.315-.772-.168-.241-.406-.433-.685-.552-.294-.12-.611-.179-.932-.174-.528-.02-1.04.167-1.417.516-.389.406-.586.943-.548 1.488-.055.56.17 1.113.608 1.495.394.302.888.464 1.396.458.557.03 1.1-.168 1.49-.545.17-.157.294-.352.362-.567l-1.104-.003zm-1.402-1.83c.165-.15.39-.227.618-.214.224-.007.444.064.615.2.175.153.274.366.276.59h-1.785c.025-.215.122-.416.276-.575v-.002zM27.095 5.402h-.953v-2.26c.021-.184-.044-.367-.18-.501-.134-.135-.325-.207-.52-.197-.197-.006-.387.067-.525.2-.137.132-.209.313-.198.498v2.26h-.954v-2.26c.024-.183-.04-.366-.174-.5-.133-.135-.323-.207-.518-.198-.197-.007-.388.065-.525.198-.138.133-.21.315-.197.5v2.26h-.954V3.165c-.03-.433.135-.856.454-1.168.32-.312.763-.483 1.222-.47.46-.01.897.183 1.183.52.29-.332.726-.523 1.184-.52.46-.019.905.15 1.222.465.317.314.475.742.431 1.174v2.237h.002zM46.26.358s-1.05-.106-1.05.689V2.1c-.112-.172-.268-.314-.455-.412-.195-.102-.415-.154-.638-.15-.485-.016-.949.188-1.248.547-.335.446-.5.985-.468 1.53-.022.491.147.974.474 1.357.402.353.939.536 1.487.507 1.92 0 1.898-1.552 1.898-1.552V.358zm-1.252 4.014c-.15.205-.404.322-.668.308-.262.016-.512-.103-.656-.31-.156-.26-.23-.555-.216-.852-.01-.281.064-.56.213-.803.142-.216.399-.34.668-.324.191-.003.378.06.523.178.27.27.403.635.367 1.003.014.283-.066.562-.229.8h-.002z" transform="translate(-982 -1343) translate(0 1337) translate(420) translate(562 6) translate(.964 3.857)"/>
                            <path fill="#009EE3" d="M29.012 11.64c.003.129-.053.254-.153.343-.097.093-.23.144-.368.142h-.521V8.709c-.045-.524.191-1.034.629-1.36.396-.267.878-.395 1.364-.363.514-.011 1.01.182 1.365.532.343.4.517.906.49 1.42.026.52-.137 1.033-.46 1.455-.28.348-.719.55-1.182.541-.232.005-.462-.04-.674-.128-.207-.098-.379-.252-.491-.443v1.277h.001zm1.748-2.658c.02-.301-.06-.6-.231-.855-.152-.2-.4-.313-.66-.301-.255-.01-.498.104-.645.3-.163.257-.237.555-.213.853-.023.287.058.574.23.812.15.2.4.314.66.301.25.008.487-.106.628-.3.167-.241.248-.526.231-.813M38.73 10.618v-.24c-.16.252-.424.432-.73.497-.303.067-.621.042-.91-.071-.322-.13-.594-.352-.776-.634-.232-.368-.345-.79-.324-1.218-.026-.508.123-1.01.425-1.43.34-.38.852-.584 1.378-.549.48-.04.96.093 1.34.371.434.331.665.843.617 1.367v2.009c.016.483-.19.95-.565 1.28-.375.33-.883.491-1.394.443-.807.023-1.521-.487-1.716-1.225h1.108c.182.277.525.42.865.363.18-.041.34-.139.452-.277.153-.2.235-.44.234-.687M37.018 8.98c0 .655.2 1.019.603 1.09.326.094.68-.01.89-.264.107-.145.174-.314.194-.49.04-.22.043-.443.008-.663-.031-.21-.116-.411-.248-.585-.132-.171-.348-.268-.573-.256-.287-.029-.563.113-.692.356-.125.254-.188.532-.181.813M35.096 7.244c-.362-.167-.761-.25-1.165-.244-.53-.052-1.055.131-1.421.496-.182.235-.285.517-.294.808h1.004c.015-.125.066-.244.148-.344.14-.127.333-.19.527-.172.173-.01.347.021.505.088.12.065.187.19.172.319-.002.129-.093.242-.224.278-.134.045-.274.073-.416.085l-.355.042c-.32.024-.631.106-.918.241-.378.202-.6.591-.57 1-.02.31.11.612.354.822.254.192.571.295.897.29 2.268.095 2.243-1.127 2.264-1.38V8.169c.042-.376-.16-.738-.51-.92m-.527 2.133c.026.258-.086.511-.298.677-.184.12-.403.185-.627.184-.132.004-.26-.036-.365-.112-.108-.091-.163-.226-.15-.362-.01-.171.086-.332.246-.415.15-.069.313-.114.48-.133l.235-.042c.095-.015.188-.037.278-.068.07-.024.139-.055.202-.094v.365zM43.698 7.554c-.843-.79-2.205-.79-3.048 0-.669.828-.669 1.975 0 2.803.848.778 2.2.778 3.048 0 .667-.829.667-1.975 0-2.803m-.83 2.262c-.165.205-.426.32-.698.306-.272.013-.534-.101-.7-.306-.327-.534-.327-1.192 0-1.727.175-.192.43-.303.699-.303.268 0 .523.11.698.303.323.535.323 1.192 0 1.727" transform="translate(-982 -1343) translate(0 1337) translate(420) translate(562 6) translate(.964 3.857)"/>
                        </g>
                    </g>
                </g>
            </g>
        </g>
    </g>
</svg>
