<svg xmlns="http://www.w3.org/2000/svg" width="326" height="265" viewBox="0 0 326 265">
    <g fill="none" fill-rule="evenodd">
        <g>
            <g>
                <g>
                    <path fill="#000" fill-rule="nonzero" d="M186.712 253.478L194.527 243.182 225.884 226.128 260.015 219.291 264.768 208.995 291.451 193.924 259.361 166.622 167.429 225.653z" opacity=".05" transform="translate(-770 -152) translate(247 152) translate(523)"/>
                    <path fill="#DFBA92" fill-rule="nonzero" d="M0 184.781L163 265 163 261.022 0 180.803z" transform="translate(-770 -152) translate(247 152) translate(523)"/>
                    <path fill="#C5A482" fill-rule="nonzero" d="M163 265L186.918 253.043 186.918 249.047 163 261.004z" transform="translate(-770 -152) translate(247 152) translate(523)"/>
                    <path fill="#E7D1A0" fill-rule="nonzero" d="M0 181.191L163.031 261.455 186.918 249.545 23.888 169.281z" transform="translate(-770 -152) translate(247 152) translate(523)"/>
                    <path fill="#C5A482" fill-rule="nonzero" d="M44.293 180.666L22.147 191.438 22.147 177.378 44.293 166.622z" transform="translate(-770 -152) translate(247 152) translate(523)"/>
                    <path fill="#D5BB9D" fill-rule="nonzero" d="M0 180.555L0 166.179 22.147 177.258 22.147 191.438z" transform="translate(-770 -152) translate(247 152) translate(523)"/>
                    <path fill="#DFB96B" fill-rule="nonzero" d="M44.293 166.179L22.147 177.258 0 166.163 22.147 155.1z" transform="translate(-770 -152) translate(247 152) translate(523)"/>
                    <path fill="#C5A482" fill-rule="nonzero" d="M114.277 215.74L92.13 226.89 92.13 212.337 114.277 201.187z" transform="translate(-770 -152) translate(247 152) translate(523)"/>
                    <path fill="#D5BB9D" fill-rule="nonzero" d="M92.13 226.89L69.984 215.74 69.984 201.187 92.13 212.353z" transform="translate(-770 -152) translate(247 152) translate(523)"/>
                    <path fill="#DFB96B" fill-rule="nonzero" d="M114.277 201.614L92.13 212.709 69.984 201.614 92.13 190.552z" transform="translate(-770 -152) translate(247 152) translate(523)"/>
                    <path fill="#C5A482" fill-rule="nonzero" d="M185.147 249.797L163 260.569 163 246.509 185.147 235.753z" transform="translate(-770 -152) translate(247 152) translate(523)"/>
                    <path fill="#D5BB9D" fill-rule="nonzero" d="M163 260.569L140.853 249.797 140.853 235.753 163 246.524z" transform="translate(-770 -152) translate(247 152) translate(523)"/>
                    <path fill="#F2DBAB" fill-rule="nonzero" d="M185.147 236.196L163 247.274 140.853 236.18 163 225.117z" transform="translate(-770 -152) translate(247 152) translate(523)"/>
                    <path fill="#DFBA92" fill-rule="nonzero" d="M0 166.169L163 246.388 163 242.41 0 162.191z" transform="translate(-770 -152) translate(247 152) translate(523)"/>
                    <path fill="#C5A482" fill-rule="nonzero" d="M186.918 235.317L186.918 230.917 163 242.41 163 247.274z" transform="translate(-770 -152) translate(247 152) translate(523)"/>
                    <path fill="#E7D1A0" fill-rule="nonzero" d="M0 162.579L163.031 242.843 186.918 230.917 23.888 150.669z" transform="translate(-770 -152) translate(247 152) translate(523)"/>
                    <path fill="#B29576" fill-rule="nonzero" d="M302.082 198.528L302.082 194.097 139.082 114.331 139.082 118.309z" transform="translate(-770 -152) translate(247 152) translate(523)"/>
                    <path fill="#C5A482" fill-rule="nonzero" d="M326 186.572L326 182.187 302.082 194.097 302.082 198.528z" transform="translate(-770 -152) translate(247 152) translate(523)"/>
                    <path fill="#E7D1A0" fill-rule="nonzero" d="M139.082 113.833L302.112 194.097 326 182.187 162.969 101.923z" transform="translate(-770 -152) translate(247 152) translate(523)"/>
                    <path fill="#C5A482" fill-rule="nonzero" d="M183.375 113.308L161.228 124.08 161.228 110.036 183.375 99.264z" transform="translate(-770 -152) translate(247 152) translate(523)"/>
                    <path fill="#D5BB9D" fill-rule="nonzero" d="M161.228 124.08L139.082 113.308 139.082 99.264 161.228 110.036z" transform="translate(-770 -152) translate(247 152) translate(523)"/>
                    <path fill="#DFB96B" fill-rule="nonzero" d="M183.375 98.821L161.236 109.9 139.082 98.805 161.236 87.742z" transform="translate(-770 -152) translate(247 152) translate(523)"/>
                    <path fill="#C5A482" fill-rule="nonzero" d="M253.359 147.874L231.212 158.645 231.212 144.601 253.359 133.829z" transform="translate(-770 -152) translate(247 152) translate(523)"/>
                    <path fill="#D5BB9D" fill-rule="nonzero" d="M231.212 158.645L209.065 147.874 209.065 133.829 231.212 144.601z" transform="translate(-770 -152) translate(247 152) translate(523)"/>
                    <path fill="#DFB96B" fill-rule="nonzero" d="M253.359 133.386L231.204 144.465 209.065 133.37 231.204 122.308z" transform="translate(-770 -152) translate(247 152) translate(523)"/>
                    <path fill="#C5A482" fill-rule="nonzero" d="M302.082 193.211L302.082 179.151 324.228 168.109 324.228 182.439z" transform="translate(-770 -152) translate(247 152) translate(523)"/>
                    <path fill="#A8947D" fill-rule="nonzero" d="M302.082 193.211L279.935 182.439 279.935 168.395 302.082 179.167z" transform="translate(-770 -152) translate(247 152) translate(523)"/>
                    <path fill="#F2DBAB" fill-rule="nonzero" d="M324.228 168.109L302.082 179.03 279.935 167.943 302.082 156.873 324.228 167.96z" transform="translate(-770 -152) translate(247 152) translate(523)"/>
                    <path fill="#B29576" fill-rule="nonzero" d="M139.082 98.796L302.082 179.03 302.082 175.051 139.082 94.833z" transform="translate(-770 -152) translate(247 152) translate(523)"/>
                    <path fill="#C5A482" fill-rule="nonzero" d="M302.082 179.03L326 167.061 326 163.077 302.082 175.046z" transform="translate(-770 -152) translate(247 152) translate(523)"/>
                    <path fill="#E7D1A0" fill-rule="nonzero" d="M139.082 94.335L302.112 174.599 326 162.673 162.969 82.425z" transform="translate(-770 -152) translate(247 152) translate(523)"/>
                    <path fill="#B29576" fill-rule="nonzero" d="M73.527 150.216L236.527 230.435 236.527 226.456 73.527 146.237z" transform="translate(-770 -152) translate(247 152) translate(523)"/>
                    <path fill="#C5A482" fill-rule="nonzero" d="M236.527 230.435L260.446 218.478 260.446 214.482 236.527 226.438z" transform="translate(-770 -152) translate(247 152) translate(523)"/>
                    <path fill="#E7D1A0" fill-rule="nonzero" d="M73.527 146.626L236.558 226.89 260.446 214.964 97.415 134.716z" transform="translate(-770 -152) translate(247 152) translate(523)"/>
                    <path fill="#C5A482" fill-rule="nonzero" d="M116.935 144.837L94.804 155.987 94.788 141.434 116.935 130.284z" transform="translate(-770 -152) translate(247 152) translate(523)"/>
                    <path fill="#D5BB9D" fill-rule="nonzero" d="M95.674 155.987L73.527 144.837 73.527 130.284 95.674 141.45z" transform="translate(-770 -152) translate(247 152) translate(523)"/>
                    <path fill="#DFB96B" fill-rule="nonzero" d="M116.935 130.727L94.804 141.806 72.641 130.727 94.804 119.649z" transform="translate(-770 -152) translate(247 152) translate(523)"/>
                    <path fill="#C5A482" fill-rule="nonzero" d="M187.804 180.289L165.658 191.438 165.658 176.885 187.804 165.736z" transform="translate(-770 -152) translate(247 152) translate(523)"/>
                    <path fill="#D5BB9D" fill-rule="nonzero" d="M165.658 191.438L143.511 180.289 143.511 165.736 165.658 176.902z" transform="translate(-770 -152) translate(247 152) translate(523)"/>
                    <path fill="#DFB96B" fill-rule="nonzero" d="M187.804 165.293L165.658 176.371 143.511 165.293 165.658 154.214z" transform="translate(-770 -152) translate(247 152) translate(523)"/>
                    <path fill="#C5A482" fill-rule="nonzero" d="M257.788 214.345L235.641 225.117 235.641 211.073 257.788 200.301z" transform="translate(-770 -152) translate(247 152) translate(523)"/>
                    <path fill="#A8947D" fill-rule="nonzero" d="M236.527 225.117L214.38 214.345 214.38 200.301 236.527 211.073z" transform="translate(-770 -152) translate(247 152) translate(523)"/>
                    <path fill="#F2DBAB" fill-rule="nonzero" d="M258.674 200.744L236.527 211.823 214.38 200.728 236.527 189.666z" transform="translate(-770 -152) translate(247 152) translate(523)"/>
                    <path fill="#B29576" fill-rule="nonzero" d="M73.527 130.717L236.527 210.936 236.527 206.958 73.527 126.739z" transform="translate(-770 -152) translate(247 152) translate(523)"/>
                    <path fill="#C5A482" fill-rule="nonzero" d="M236.527 210.936L260.446 198.98 260.446 194.983 236.527 206.94z" transform="translate(-770 -152) translate(247 152) translate(523)"/>
                    <path fill="#E7D1A0" fill-rule="nonzero" d="M73.527 127.127L236.558 207.391 260.446 195.466 97.415 115.217z" transform="translate(-770 -152) translate(247 152) translate(523)"/>
                    <path fill="#C5A482" fill-rule="nonzero" d="M186.918 94.38L23.934 174.599 23.918 170.604 186.918 90.401z" transform="translate(-770 -152) translate(247 152) translate(523)"/>
                    <path fill="#DFBA92" fill-rule="nonzero" d="M23.918 174.599L0 162.626 0 158.645 23.918 170.602z" transform="translate(-770 -152) translate(247 152) translate(523)"/>
                    <path fill="#F2DBAB" fill-rule="nonzero" d="M186.918 90.401L23.918 170.604 0 158.645 163.031 77.993 186.918 89.903z" transform="translate(-770 -152) translate(247 152) translate(523)"/>
                    <path fill="#C5A482" fill-rule="nonzero" d="M256.016 128.059L93.016 208.278 93.016 204.299 256.016 124.08z" transform="translate(-770 -152) translate(247 152) translate(523)"/>
                    <path fill="#DFBA92" fill-rule="nonzero" d="M93.016 209.164L69.098 197.207 69.098 193.211 93.016 205.168z" transform="translate(-770 -152) translate(247 152) translate(523)"/>
                    <path fill="#F2DBAB" fill-rule="nonzero" d="M256.016 124.468L92.986 204.732 69.098 192.807 232.129 112.559z" transform="translate(-770 -152) translate(247 152) translate(523)"/>
                    <path fill="#C5A482" fill-rule="nonzero" d="M222.353 111.219L59.353 191.438 59.353 187.46 222.353 107.241z" transform="translate(-770 -152) translate(247 152) translate(523)"/>
                    <path fill="#DFBA92" fill-rule="nonzero" d="M59.353 191.438L35.435 179.481 35.435 175.485 59.353 187.442z" transform="translate(-770 -152) translate(247 152) translate(523)"/>
                    <path fill="#F2DBAB" fill-rule="nonzero" d="M222.353 107.629L59.323 187.893 35.435 175.967 198.466 95.719z" transform="translate(-770 -152) translate(247 152) translate(523)"/>
                    <path fill="#C5A482" fill-rule="nonzero" d="M293.223 146.671L130.223 226.89 130.223 222.911 293.223 142.692z" transform="translate(-770 -152) translate(247 152) translate(523)"/>
                    <path fill="#DFBA92" fill-rule="nonzero" d="M130.223 226.89L106.304 214.933 106.304 210.936 130.223 222.909z" transform="translate(-770 -152) translate(247 152) translate(523)"/>
                    <path fill="#F2DBAB" fill-rule="nonzero" d="M293.223 143.08L130.192 223.344 106.304 211.435 269.335 131.171z" transform="translate(-770 -152) translate(247 152) translate(523)"/>
                    <path fill="#C5A482" fill-rule="nonzero" d="M326 162.865L163 242.843 163 238.864 326 159.036 326 162.609z" transform="translate(-770 -152) translate(247 152) translate(523)"/>
                    <path fill="#DFBA92" fill-rule="nonzero" d="M163 242.843L139.082 230.874 139.082 226.89 163 238.859z" transform="translate(-770 -152) translate(247 152) translate(523)"/>
                    <path fill="#F2DBAB" fill-rule="nonzero" d="M326 159.036L162.969 239.298 139.082 227.386 302.112 147.124z" transform="translate(-770 -152) translate(247 152) translate(523)"/>
                    <path stroke="#FE1D00" stroke-dasharray="5" stroke-linecap="round" stroke-linejoin="round" d="M279.935 145.64l-138.196 65.296V105.164l138.196-65.281V145.64h0z" transform="translate(-770 -152) translate(247 152) translate(523)"/>
                    <path stroke="#FE1D00" stroke-dasharray="5" stroke-linecap="round" stroke-linejoin="round" d="M141.74 211.823L57.581 170.55V64.699l84.157 40.347v106.777h0z" transform="translate(-770 -152) translate(247 152) translate(523)"/>
                    <path stroke="#FE1D00" stroke-dasharray="5" stroke-linecap="round" stroke-linejoin="round" d="M58.467 66.472L195.963.886 279.935 41.4" transform="translate(-770 -152) translate(247 152) translate(523)"/>
                    <path fill="#FCF2E0" fill-rule="nonzero" d="M76.185 87.742L62.715 83.797 61.125 75.334 74.594 79.279z" transform="translate(-770 -152) translate(247 152) translate(523)"/>
                    <path fill="#5F677C" fill-rule="nonzero" d="M64.527 82.425L64.172 82.331 63.038 77.107 63.393 77.201z" transform="translate(-770 -152) translate(247 152) translate(523)"/>
                    <path fill="#5F677C" fill-rule="nonzero" d="M64.438 82.425L64.261 82.378 63.127 77.107 63.304 77.138zM65.315 82.425L65.138 82.378 64.022 77.107 64.199 77.154zM65.324 83.311L65.129 83.264 64.013 77.993 64.19 78.04zM66.21 83.311L66.033 83.264 64.899 77.993 65.076 78.041z" transform="translate(-770 -152) translate(247 152) translate(523)"/>
                    <path fill="#5F677C" fill-rule="nonzero" d="M66.29 83.311L65.935 83.217 64.819 77.993 65.173 78.087zM67.973 83.311L67.796 83.264 66.679 77.993 66.857 78.041zM67.982 84.197L67.804 84.15 66.671 78.88 66.848 78.927zM68.947 84.197L68.593 84.104 67.477 78.88 67.831 78.958zM67.184 83.311L66.83 83.217 65.696 77.993 66.05 78.071z" transform="translate(-770 -152) translate(247 152) translate(523)"/>
                    <path fill="#5F677C" fill-rule="nonzero" d="M67.184 83.311L66.83 83.218 65.696 77.993 66.068 78.087zM68.956 84.197L68.584 84.119 67.468 78.88 67.822 78.973zM69.753 84.197L69.576 84.15 68.442 78.88 68.619 78.927z" transform="translate(-770 -152) translate(247 152) translate(523)"/>
                    <path fill="#5F677C" fill-rule="nonzero" d="M69.745 84.197L69.567 84.15 68.451 78.88 68.628 78.927zM70.63 84.197L70.453 84.15 69.337 78.88 69.514 78.927z" transform="translate(-770 -152) translate(247 152) translate(523)"/>
                    <path fill="#5F677C" fill-rule="nonzero" d="M70.639 84.197L70.462 84.15 69.328 78.88 69.505 78.927zM71.605 84.197L71.25 84.119 70.134 78.88 70.489 78.973zM72.402 85.084L72.225 85.037 71.109 79.766 71.286 79.813zM73.297 85.084L73.12 85.036 71.986 79.766 72.163 79.813z" transform="translate(-770 -152) translate(247 152) translate(523)"/>
                    <path fill="#5F677C" fill-rule="nonzero" d="M73.385 85.084L73.031 84.99 71.897 79.766 72.252 79.859zM71.605 85.084L71.25 84.99 70.134 79.766 70.489 79.859zM72.5 85.084L72.145 84.99 71.011 79.766 71.366 79.859z" transform="translate(-770 -152) translate(247 152) translate(523)"/>
                    <path fill="#FCF2E0" fill-rule="nonzero" d="M135.538 116.99L118.707 108.817 118.707 101.037 135.538 109.209z" transform="translate(-770 -152) translate(247 152) translate(523)"/>
                    <path fill="#5F677C" fill-rule="nonzero" d="M198.435 7.31L184.685 14.181 184.261 13.961 198.011 7.09zM200.207 8.197L186.472 15.067 186.033 14.863 199.783 7.977zM201.092 8.197L187.342 15.067 186.918 14.863 200.653 7.977zM202.864 9.083L189.114 15.953 188.69 15.749 202.44 8.863zM152.37 91.492L138.62 98.378 138.196 98.158 151.945 91.288zM153.255 92.378L139.506 99.264 139.082 99.044 152.831 92.174zM155.027 92.394L141.278 99.264 140.853 99.045 154.603 92.174zM155.913 93.28L142.179 100.151 141.739 99.931 155.474 93.06z" transform="translate(-770 -152) translate(247 152) translate(523)"/>
                    <path fill="#000" fill-rule="nonzero" d="M189.733 226.176L326 159.036 302.105 147.124 151.041 221.487zM22.147 191.433L36.113 190.596 70.87 207.391 70.87 200.872 22.147 177.258zM92.13 226.884L106.097 226.032 140.853 242.843 140.853 236.308 92.13 212.709z" opacity=".05" transform="translate(-770 -152) translate(247 152) translate(523)"/>
                    <path stroke="#FE1D00" stroke-dasharray="5" stroke-linecap="round" stroke-linejoin="round" d="M195.777 100.151L58.467 171.054M195.793 0l-.016 99.955 84.158 46.282" transform="translate(-770 -152) translate(247 152) translate(523)"/>
                    <path fill="#FE1D00" d="M215.021 139.188l5.56-.098v5.716l-4.03.18h-1.795c-1.488 1.236-3.183 2.169-4.998 2.751-3.395 1.027-6.96-.928-8.09-4.438-.855-2.508-.754-5.265.28-7.697 0 0 3.296 11.807 13.073 3.586zM216.836 119.649s8.966-11.295-.776-14.765l-1.68-5.115 4.832-4.05 1.299 3.68.586 1.613c1.483.555 2.783 1.522 3.754 2.791.903 1.614 2.36 4.841-1.425 10.747-1.596 2.383-3.909 4.172-6.59 5.099zM197.549 117.764s-12.253-.235-12.427 10.95l-3.974 5.115-4.86-1.564 2.786-3.739 1.235-1.673c.075-1.849.527-3.663 1.33-5.335 1.872-3.612 5.527-5.988 9.625-6.257 2.388-.264 4.75.677 6.285 2.503z" transform="translate(-770 -152) translate(247 152) translate(523)"/>
                    <path fill="#FE1D00" d="M230.773 112.248c.673 3.8.571 7.7-.3 11.46-2.686 3.833-6.552 6.656-10.991 8.023-6.636 1.605-12.416.626-14.475-7.093-2.698.228-5.27 1.255-7.396 2.953-2.708 2.407-4.75 5.97-3.278 10.415.675 2.26 2.636 3.88 4.957 4.093l-2.692 8.57c-3.46-.376-6.78-1.593-9.677-3.547-1.452-4.107-1.113-8.647.935-12.486 3.326-6.628 8.346-11.667 16.454-11.378.855-1.332 2.867-4.719 2.74-7.623-.143-3.21-1.726-6.099-6.62-5.987-2.712.138-5.258 1.362-7.079 3.403l-5.432-4.943c2.892-3.167 6.266-5.844 9.993-7.928 0 0 6.636-.674 10.056 4.445 3.421 5.12 4.055 11.026-1.963 18.44.506 1.156 1.995 4.028 4.592 4.815 2.85.77 6.493.128 9.882-4.43 1.766-2.057 2.543-4.801 2.123-7.494l8.171-3.708z" transform="translate(-770 -152) translate(247 152) translate(523)"/>
                    <path fill="#FEDD00" fill-rule="nonzero" d="M105.418 115.217L97.446 111.42 97.446 84.197 105.418 87.995zM97.446 83.955L105.022 87.742 243.614 22.399 236.038 18.612z" transform="translate(-770 -152) translate(247 152) translate(523)"/>
                    <path fill="#5F677C" fill-rule="nonzero" d="M67.79 166.075l-6.243-2.954c-.236-.111-.422 0-.422.192v5.908c.02.258.18.487.422.607l6.243 2.954c.236.112.422 0 .422-.208v-5.908c-.023-.252-.183-.476-.422-.59zm.084 6.036c0 .224-.185.304-.421.192l-5.569-2.635c-.246-.118-.41-.347-.438-.607v-5.269c0-.223.202-.32.438-.208l5.569 2.635c.246.123.406.36.421.623v5.27z" transform="translate(-770 -152) translate(247 152) translate(523)"/>
                    <path fill="#5F677C" fill-rule="nonzero" d="M63.1 169.281L62.693 169.081 62.693 164.849 63.1 165.049z" transform="translate(-770 -152) translate(247 152) translate(523)"/>
                    <path fill="#5F677C" fill-rule="nonzero" d="M62.897 164.14L62.33 164.991 62.897 165.275 63.464 165.559zM65.767 170.167L65.342 169.983 65.342 165.736 65.767 165.92z" transform="translate(-770 -152) translate(247 152) translate(523)"/>
                    <path fill="#5F677C" fill-rule="nonzero" d="M65.554 165.913L64.987 166.764 65.554 167.047 66.121 167.331zM62.011 168.774L62.011 168.395 66.44 170.674 66.44 171.054zM75.763 169.63l-6.243-2.963c-.237-.112-.422 0-.422.192v5.895c.02.259.18.489.422.61l6.243 2.963c.236.112.422 0 .422-.208v-5.928c-.034-.241-.192-.451-.422-.56zm0 6.056c0 .224-.186.305-.422.192l-5.568-2.643c-.246-.119-.411-.348-.439-.609v-5.286c0-.225.203-.32.439-.209l5.568 2.644c.247.123.407.36.422.624v5.287z" transform="translate(-770 -152) translate(247 152) translate(523)"/>
                    <path fill="#5F677C" fill-rule="nonzero" d="M73.527 172.716c-.502-.266-.837-.779-.886-1.358v-2.077l1.772.895v2.093c0 .495-.404.703-.886.447z" transform="translate(-770 -152) translate(247 152) translate(523)"/>
                    <path fill="#5F677C" fill-rule="nonzero" d="M73.651 174.599L73.403 174.469 73.403 171.94 73.651 172.051z" transform="translate(-770 -152) translate(247 152) translate(523)"/>
                    <path fill="#5F677C" fill-rule="nonzero" d="M72.641 174.18c0-.142.094-.195.218-.124l1.336.762c.122.067.204.201.218.355l-1.772-.993zM69.984 167.508v2.089c.05.578.387 1.09.893 1.355.486.255.878 0 .878-.446v-2.089l-1.771-.909zm1.568 2.902c0 .399-.314.558-.69.35-.401-.207-.668-.611-.706-1.067v-1.961l1.396.717v1.961zM70.985 173.712L70.754 173.583 70.754 171.054 70.985 171.183z" transform="translate(-770 -152) translate(247 152) translate(523)"/>
                    <path fill="#5F677C" fill-rule="nonzero" d="M69.984 173.276c0-.124.094-.177.204-.106l1.364.762c.113.076.188.207.203.355l-1.771-1.01zM83.736 174.052l-6.244-2.954c-.236-.112-.421 0-.421.192v5.908c.02.257.18.486.421.606l6.244 2.955c.22.111.422 0 .422-.208v-5.908c-.03-.25-.187-.472-.422-.591zm.084 6.036c0 .223-.185.303-.422.191l-5.568-2.634c-.246-.119-.411-.347-.439-.607v-5.27c0-.223.203-.319.439-.207l5.568 2.635c.247.123.407.36.422.622v5.27z" transform="translate(-770 -152) translate(247 152) translate(523)"/>
                    <path fill="#5F677C" fill-rule="nonzero" d="M78.763 175.01c.225-.101.48-.101.704 0 .275.147.51.362.687.626.219-.1.468-.1.687 0 .274.148.51.363.686.628.219-.102.469-.102.687 0l.172.107c-.2-1.397-1.02-2.614-2.215-3.28-1.15-.59-2.111-.16-2.214.95h.12c.329.23.571.573.686.968z" transform="translate(-770 -152) translate(247 152) translate(523)"/>
                    <path fill="#5F677C" fill-rule="nonzero" d="M79.737 178.074c-.346-.177-.579-.507-.62-.881v-.102s0-.102.124 0c.07.039.117.109.124.187v.101c.022.225.163.423.372.526.195 0 .354 0 .354-.17v-4.864s0-.101.124 0c.071.04.118.109.125.187v4.864c0 .186-.266.305-.603.152z" transform="translate(-770 -152) translate(247 152) translate(523)"/>
                </g>
            </g>
        </g>
    </g>
</svg>
