<svg xmlns="http://www.w3.org/2000/svg" xmlns:xlink="http://www.w3.org/1999/xlink" width="70" height="54" viewBox="0 0 70 54">
    <defs>
        <path id="qo0ikz3qxa" d="M0 0L69.333 0 69.333 47.111 0 47.111z"/>
    </defs>
    <g fill="none" fill-rule="evenodd">
        <g>
            <g>
                <g>
                    <g>
                        <g>
                            <g>
                                <g transform="translate(-1037 -303) translate(0 132) translate(173 85) translate(780 72) translate(80 1) translate(4 13)">
                                    <mask id="5p7cxcmx1b" fill="#fff">
                                        <use xlink:href="#qo0ikz3qxa"/>
                                    </mask>
                                    <path fill="#FD7658" d="M69.333 2.526v42.056c0 .214-.024.42-.072.617-.265 1.098-1.22 1.912-2.358 1.912H2.428C1.087 47.111 0 45.978 0 44.582V2.526C0 1.13 1.087 0 2.428 0h64.475c1.342 0 2.43 1.13 2.43 2.526" mask="url(#5p7cxcmx1b)"/>
                                </g>
                                <path fill="#F88859" d="M69.333 2.52v35.342c-4.304-.537-8.56-2.007-11.855-4.896-3.644-3.196-5.9-8.337-4.925-13.179-2.467 6.812-10.467 10.367-17.344 8.89-6.877-1.476-12.442-7.066-15.586-13.574C17.96 11.661 15.465 5.452 15.111 0H66.9c1.344 0 2.433 1.127 2.433 2.52" transform="translate(-1037 -303) translate(0 132) translate(173 85) translate(780 72) translate(80 1) translate(4 13)"/>
                                <path fill="#DE624C" fill-opacity=".69" d="M66.974 47.111H2.43c-1.343 0-2.43-1.164-2.43-2.598v-5.402c.427.676.935 1.296 1.503 1.828 2.548 2.389 6.073 3.282 9.463 3.262 3.388-.018 6.718-.857 10.045-1.542 10.65-2.194 21.58-2.84 32.39-1.916 5.466.469 11.215 1.555 15.878 4.393-.265 1.13-1.187 1.925-2.306 1.975z" transform="translate(-1037 -303) translate(0 132) translate(173 85) translate(780 72) translate(80 1) translate(4 13)"/>
                                <path fill="#FDA859" d="M14.812 16.868H6.807c-.627 0-1.135-.531-1.135-1.187v-8.37c0-.656.508-1.187 1.135-1.187h8.005c.627 0 1.135.531 1.135 1.187v8.37c0 .656-.508 1.187-1.135 1.187" transform="translate(-1037 -303) translate(0 132) translate(173 85) translate(780 72) translate(80 1) translate(4 13)"/>
                                <path fill="#FCC700" d="M14.594 16.41h-7.57c-.505 0-.915-.428-.915-.957V7.54c0-.53.41-.958.915-.958h7.57c.505 0 .916.429.916.958v7.914c0 .53-.41.958-.916.958" transform="translate(-1037 -303) translate(0 132) translate(173 85) translate(780 72) translate(80 1) translate(4 13)"/>
                                <path fill="#FDA859" d="M9.126 8.981c-.066 0-.12.057-.12.126v4.778c0 .07.054.125.12.125h3.366c.067 0 .12-.056.12-.125V9.107c0-.07-.053-.126-.12-.126H9.126zm3.366 5.944H9.126c-.548 0-.995-.467-.995-1.04V9.107c0-.573.447-1.04.995-1.04h3.366c.549 0 .996.467.996 1.04v4.778c0 .573-.447 1.04-.996 1.04z" transform="translate(-1037 -303) translate(0 132) translate(173 85) translate(780 72) translate(80 1) translate(4 13)"/>
                                <path fill="#FDA859" d="M6.109 10.239L8.569 10.239 8.569 9.324 6.109 9.324zM6.109 11.953L8.569 11.953 8.569 11.039 6.109 11.039zM6.109 13.668L8.569 13.668 8.569 12.753 6.109 12.753zM13.05 10.239L15.51 10.239 15.51 9.324 13.05 9.324zM13.05 11.953L15.51 11.953 15.51 11.039 13.05 11.039zM13.05 13.668L15.51 13.668 15.51 12.753 13.05 12.753z" transform="translate(-1037 -303) translate(0 132) translate(173 85) translate(780 72) translate(80 1) translate(4 13)"/>
                                <path fill="#FFF" d="M6.968 21.88L6.968 24.868 6.222 24.868 6.222 22.519 5.672 22.519 5.672 21.88zM10.139 23.926c0 .576-.453.976-1.162.976-.416 0-.847-.145-1.125-.367l.302-.6c.224.243.493.37.766.37.314 0 .49-.136.49-.37 0-.24-.176-.363-.494-.363h-.48v-.417l.667-.67h-1.1l-.004-.6h1.997v.451l-.77.75.143.022c.452.073.77.362.77.818M11.177 23.372c0 .682.119.967.408.967.285 0 .404-.285.404-.967 0-.686-.119-.968-.404-.968-.29 0-.408.282-.408.968m1.525 0c0 .976-.4 1.518-1.117 1.518-.725 0-1.12-.542-1.12-1.518s.395-1.513 1.12-1.513c.718 0 1.117.537 1.117 1.513M15.27 21.876L15.27 22.417 14.194 24.868 13.407 24.868 14.45 22.507 13.651 22.507 13.651 22.924 12.991 22.924 12.991 21.876zM20.815 22.878c0 .255.143.409.395.409.278 0 .428-.18.424-.422.004-.218-.126-.41-.411-.41-.253 0-.408.154-.408.423m.249 1.432c.444 0 .66-.299.652-.79-.135.201-.355.325-.664.325-.555 0-.905-.388-.905-.972 0-.63.415-1.027 1.047-1.027.754 0 1.211.563 1.211 1.48 0 .954-.506 1.576-1.296 1.576-.314 0-.67-.098-.91-.247l.277-.537c.164.124.372.192.588.192M24.226 21.88L24.226 24.868 23.48 24.868 23.48 22.519 22.93 22.519 22.93 21.88zM26.741 21.88L26.741 24.868 25.995 24.868 25.995 22.519 25.445 22.519 25.445 21.88zM29.91 23.926c0 .576-.451.976-1.16.976-.416 0-.848-.145-1.126-.367l.302-.6c.224.243.493.37.766.37.314 0 .49-.136.49-.37 0-.24-.176-.363-.494-.363h-.48v-.417l.668-.67h-1.101l-.004-.6h1.997v.451l-.77.75.143.022c.452.073.77.362.77.818M35.636 23.372c0 .682.118.967.408.967.285 0 .403-.285.403-.967 0-.686-.118-.968-.403-.968-.29 0-.408.282-.408.968m1.524 0c0 .976-.398 1.518-1.116 1.518-.726 0-1.121-.542-1.121-1.518s.395-1.513 1.12-1.513c.719 0 1.117.537 1.117 1.513M38.558 22.959c.672 0 1.108.37 1.108.903 0 .63-.46 1.04-1.165 1.04-.383 0-.824-.149-1.133-.375l.297-.605c.224.247.486.375.746.375.29 0 .452-.136.452-.38 0-.225-.162-.353-.447-.353-.151 0-.62.004-.8.017v-1.705h1.92v.63h-1.235v.457c.062-.004.2-.004.257-.004M40.587 22.878c0 .255.143.409.396.409.277 0 .428-.18.424-.422.004-.218-.127-.41-.412-.41-.253 0-.408.154-.408.423m.249 1.432c.444 0 .66-.299.652-.79-.134.201-.354.325-.664.325-.555 0-.905-.388-.905-.972 0-.63.416-1.027 1.047-1.027.755 0 1.211.563 1.211 1.48 0 .954-.505 1.576-1.296 1.576-.314 0-.67-.098-.909-.247l.277-.537c.163.124.371.192.587.192M43.827 22.745c0-.162-.118-.255-.325-.255-.233 0-.527.145-.792.379l-.28-.575c.366-.282.766-.452 1.181-.452.58 0 .999.315.999.788 0 .324-.236.66-.554.998l-.587.613h1.223v.627h-2.177l-.004-.516 1.04-1.116c.158-.17.276-.363.276-.49M51.028 22.745c0-.162-.118-.255-.326-.255-.232 0-.526.145-.79.379l-.282-.575c.367-.282.766-.452 1.182-.452.579 0 .999.315.999.788 0 .324-.236.66-.555.998l-.586.613h1.222v.627h-2.176l-.004-.516 1.039-1.116c.16-.17.277-.363.277-.49M54.472 21.876L54.472 22.417 53.396 24.868 52.609 24.868 53.653 22.507 52.853 22.507 52.853 22.924 52.193 22.924 52.193 21.876zM56.228 21.88L56.228 24.868 55.482 24.868 55.482 22.519 54.932 22.519 54.932 21.88zM58.742 21.88L58.742 24.868 57.996 24.868 57.996 22.519 57.446 22.519 57.446 21.88zM6.506 30.302L6.506 32.224 6.026 32.224 6.026 30.713 5.672 30.713 5.672 30.302zM8.124 30.302L8.124 32.224 7.644 32.224 7.644 30.713 7.29 30.713 7.29 30.302zM9.811 30.004L8.962 32.526 8.568 32.526 9.418 30.004zM10.564 30.859c0-.104-.076-.165-.21-.165-.149 0-.338.094-.508.245l-.181-.37c.236-.182.493-.292.76-.292.372 0 .643.203.643.508 0 .208-.153.425-.357.642l-.378.394h.787v.404h-1.4l-.003-.333.67-.718c.101-.11.177-.233.177-.315M12.715 31.618c0 .37-.291.628-.747.628-.268 0-.546-.093-.724-.235l.194-.387c.144.156.317.238.492.238.203 0 .315-.087.315-.238 0-.154-.112-.233-.317-.233h-.31v-.269l.43-.43h-.707l-.003-.387h1.285v.291l-.495.482.091.014c.291.046.496.233.496.526M5.887 28.509L6.079 29.089 6.271 28.509 6.477 28.509 6.177 29.311 5.97 29.311 5.672 28.509zM7.03 29.133l-.123-.356-.126.356h.249zm.069.2h-.387l-.063.176h-.24l.384-1h.24l.376 1h-.25l-.06-.176z" transform="translate(-1037 -303) translate(0 132) translate(173 85) translate(780 72) translate(80 1) translate(4 13)"/>
                                <path fill="#FFF" d="M7.534 28.509L7.534 29.133 7.858 29.133 7.858 29.311 7.334 29.311 7.334 28.509zM7.949 29.311L8.149 29.311 8.149 28.509 7.949 28.509zM9.02 29.011c0-.172-.117-.29-.28-.29h-.172v.576h.185c.157 0 .268-.115.268-.286m.277-.003c0 .298-.227.5-.564.5h-.436v-1h.447c.329 0 .553.203.553.5M9.96 28.509L9.958 28.676 9.586 28.676 9.586 28.855 9.93 28.855 9.93 29.022 9.586 29.022 9.586 29.311 9.386 29.311 9.386 28.509zM10.341 29.024h.212c.117 0 .185-.054.185-.155 0-.099-.068-.151-.185-.151h-.212v.306zm.38.485l-.164-.276h-.216v.276h-.291v-1h.501c.297 0 .465.128.465.351 0 .151-.07.263-.2.322l.234.327h-.33z" transform="translate(-1037 -303) translate(0 132) translate(173 85) translate(780 72) translate(80 1) translate(4 13)"/>
                                <path fill="#FFF" d="M11.04 29.002c0 .16.117.283.254.283.139 0 .25-.123.25-.283 0-.16-.111-.28-.25-.28s-.254.12-.254.28m.752-.002c0 .288-.214.504-.5.504-.287 0-.5-.216-.5-.504 0-.285.213-.496.5-.496.286 0 .5.212.5.496" transform="translate(-1037 -303) translate(0 132) translate(173 85) translate(780 72) translate(80 1) translate(4 13)"/>
                                <path fill="#FFF" d="M11.939 28.509L12.142 28.977 12.345 28.509 12.564 28.509 12.564 29.311 12.388 29.311 12.386 28.804 12.208 29.231 12.077 29.231 11.899 28.804 11.899 29.311 11.72 29.311 11.72 28.509zM57.03 36.226c-1.245 0-2.259 1.06-2.259 2.362s1.014 2.362 2.26 2.362c1.245 0 2.258-1.06 2.258-2.362 0-1.303-1.013-2.362-2.259-2.362m0 5.181c-1.486 0-2.696-1.265-2.696-2.82 0-1.554 1.21-2.819 2.696-2.819 1.488 0 2.697 1.265 2.697 2.82 0 1.554-1.21 2.82-2.697 2.82" transform="translate(-1037 -303) translate(0 132) translate(173 85) translate(780 72) translate(80 1) translate(4 13)"/>
                                <path fill="#FFF" d="M60.454 36.226c-1.246 0-2.26 1.06-2.26 2.362s1.014 2.362 2.26 2.362c1.246 0 2.259-1.06 2.259-2.362 0-1.303-1.013-2.362-2.26-2.362m0 5.181c-1.486 0-2.696-1.265-2.696-2.82 0-1.554 1.21-2.819 2.697-2.819s2.696 1.265 2.696 2.82c0 1.554-1.21 2.82-2.696 2.82M5.672 39.427L38.008 39.427 38.008 37.32 5.672 37.32z" transform="translate(-1037 -303) translate(0 132) translate(173 85) translate(780 72) translate(80 1) translate(4 13)"/>
                                <path fill="#FDA859" d="M48.269 48.45H34.512v1.517c0 1.86 3.254 3.366 7.27 3.366 4.012 0 7.266-1.507 7.266-3.366V48.45h-.78z" transform="translate(-1037 -303) translate(0 132) translate(173 85) translate(780 72) translate(80 1) translate(4 13)"/>
                                <path fill="#FCC700" d="M49.05 48.449c0 .02 0 .039-.003.06-.065 1.832-3.296 3.306-7.266 3.306-4.015 0-7.269-1.507-7.269-3.366 0-.204.04-.406.119-.601.61-1.572 3.58-2.766 7.15-2.766 3.568 0 6.541 1.194 7.15 2.766.07.175.11.358.116.542.003.02.003.038.003.059" transform="translate(-1037 -303) translate(0 132) translate(173 85) translate(780 72) translate(80 1) translate(4 13)"/>
                                <path fill="#FDA859" d="M47.692 48.45c0 1.512-2.647 2.738-5.911 2.738s-5.91-1.226-5.91-2.738c0-1.513 2.646-2.739 5.91-2.739 3.264 0 5.91 1.226 5.91 2.739" transform="translate(-1037 -303) translate(0 132) translate(173 85) translate(780 72) translate(80 1) translate(4 13)"/>
                                <path fill="#FCC700" d="M42.45 49.468v.575h-1.079v-.578c-.762-.05-1.5-.196-2.044-.402l.576-.538c.584.233 1.468.398 2.06.398.438 0 .714-.075.714-.214 0-.446-2.993-.176-2.993-1.108 0-.417.65-.707 1.687-.786v-.552h1.08v.55c.664.033 1.297.138 1.775.28l-.56.546c-.6-.158-1.362-.282-1.832-.282-.357 0-.592.06-.592.18 0 .436 2.992.188 2.992 1.135 0 .462-.762.733-1.784.796" transform="translate(-1037 -303) translate(0 132) translate(173 85) translate(780 72) translate(80 1) translate(4 13)"/>
                                <path fill="#FDA859" d="M50.818 46.733H37.063v1.516c0 1.86 3.253 3.367 7.268 3.367 4.012 0 7.266-1.507 7.266-3.367v-1.516h-.779z" transform="translate(-1037 -303) translate(0 132) translate(173 85) translate(780 72) translate(80 1) translate(4 13)"/>
                                <path fill="#FCC700" d="M51.6 46.732c0 .02 0 .038-.003.059-.065 1.833-3.297 3.307-7.266 3.307-4.016 0-7.269-1.507-7.269-3.366 0-.204.04-.406.119-.601.609-1.572 3.579-2.766 7.15-2.766 3.568 0 6.54 1.194 7.15 2.766.07.175.11.358.116.542.002.02.002.038.002.059" transform="translate(-1037 -303) translate(0 132) translate(173 85) translate(780 72) translate(80 1) translate(4 13)"/>
                                <path fill="#FDA859" d="M50.242 46.732c0 1.512-2.647 2.738-5.911 2.738-3.265 0-5.911-1.226-5.911-2.738s2.646-2.738 5.911-2.738c3.264 0 5.91 1.226 5.91 2.738" transform="translate(-1037 -303) translate(0 132) translate(173 85) translate(780 72) translate(80 1) translate(4 13)"/>
                                <path fill="#FCC700" d="M45 47.751v.575H43.92v-.578c-.762-.05-1.5-.196-2.044-.403l.576-.537c.584.233 1.468.399 2.06.399.438 0 .714-.076.714-.215 0-.447-2.993-.176-2.993-1.108 0-.417.65-.707 1.687-.785v-.553H45v.549c.665.034 1.298.139 1.776.281l-.56.545c-.6-.158-1.362-.282-1.833-.282-.356 0-.591.06-.591.18 0 .437 2.992.189 2.992 1.135 0 .463-.762.733-1.784.797" transform="translate(-1037 -303) translate(0 132) translate(173 85) translate(780 72) translate(80 1) translate(4 13)"/>
                                <path fill="#FDA859" d="M47.21 43.237H33.455v1.516c0 1.859 3.253 3.366 7.268 3.366 4.012 0 7.266-1.507 7.266-3.366v-1.516h-.779z" transform="translate(-1037 -303) translate(0 132) translate(173 85) translate(780 72) translate(80 1) translate(4 13)"/>
                                <path fill="#FCC700" d="M47.991 43.235c0 .021 0 .039-.002.06-.065 1.832-3.297 3.307-7.266 3.307-4.016 0-7.269-1.507-7.269-3.367 0-.204.04-.406.119-.6.609-1.573 3.579-2.766 7.15-2.766 3.567 0 6.54 1.193 7.15 2.765.07.175.11.358.116.542.002.02.002.038.002.06" transform="translate(-1037 -303) translate(0 132) translate(173 85) translate(780 72) translate(80 1) translate(4 13)"/>
                                <path fill="#FDA859" d="M46.634 43.236c0 1.512-2.647 2.738-5.911 2.738-3.265 0-5.912-1.226-5.912-2.738 0-1.513 2.647-2.739 5.912-2.739 3.264 0 5.91 1.226 5.91 2.739" transform="translate(-1037 -303) translate(0 132) translate(173 85) translate(780 72) translate(80 1) translate(4 13)"/>
                                <path fill="#FCC700" d="M41.392 44.254v.575h-1.079v-.579c-.762-.048-1.5-.195-2.044-.401l.576-.538c.584.233 1.468.398 2.06.398.438 0 .714-.074.714-.214 0-.446-2.993-.176-2.993-1.108 0-.417.65-.706 1.687-.786v-.552h1.079v.55c.665.033 1.298.138 1.776.28l-.56.546c-.6-.158-1.362-.282-1.833-.282-.356 0-.591.06-.591.18 0 .436 2.992.188 2.992 1.135 0 .462-.762.733-1.784.796" transform="translate(-1037 -303) translate(0 132) translate(173 85) translate(780 72) translate(80 1) translate(4 13)"/>
                                <path fill="#FDA859" d="M52.176 39.947H38.42v1.516c0 1.859 3.253 3.366 7.269 3.366 4.012 0 7.266-1.507 7.266-3.366v-1.516h-.779z" transform="translate(-1037 -303) translate(0 132) translate(173 85) translate(780 72) translate(80 1) translate(4 13)"/>
                                <path fill="#FCC700" d="M52.957 39.945c0 .02 0 .038-.003.06-.064 1.832-3.295 3.307-7.266 3.307-4.015 0-7.268-1.507-7.268-3.367 0-.204.04-.406.118-.6.61-1.574 3.58-2.766 7.15-2.766 3.569 0 6.541 1.192 7.15 2.765.071.174.11.358.116.542.003.02.003.038.003.06" transform="translate(-1037 -303) translate(0 132) translate(173 85) translate(780 72) translate(80 1) translate(4 13)"/>
                                <path fill="#FDA859" d="M51.6 39.945c0 1.513-2.647 2.739-5.911 2.739-3.265 0-5.911-1.226-5.911-2.739 0-1.512 2.646-2.738 5.91-2.738 3.265 0 5.911 1.226 5.911 2.738" transform="translate(-1037 -303) translate(0 132) translate(173 85) translate(780 72) translate(80 1) translate(4 13)"/>
                                <path fill="#FCC700" d="M46.358 40.964v.575h-1.08v-.579c-.762-.048-1.5-.195-2.043-.402l.575-.537c.585.233 1.469.398 2.06.398.439 0 .715-.075.715-.214 0-.447-2.993-.176-2.993-1.108 0-.417.649-.706 1.687-.786v-.552h1.079v.549c.664.034 1.297.139 1.775.282l-.56.545c-.6-.158-1.361-.283-1.832-.283-.356 0-.592.06-.592.181 0 .436 2.993.187 2.993 1.134 0 .463-.762.733-1.784.797M24.135 42.228c1.732 3.793.195 8.336-3.432 10.147-3.627 1.812-7.972.205-9.703-3.588-1.732-3.793-.196-8.336 3.431-10.147 3.627-1.811 7.972-.205 9.704 3.588" transform="translate(-1037 -303) translate(0 132) translate(173 85) translate(780 72) translate(80 1) translate(4 13)"/>
                                <path fill="#FDA859" d="M22.908 42.84c1.41 3.085.16 6.78-2.79 8.253-2.95 1.473-6.483.166-7.892-2.918-1.409-3.085-.16-6.78 2.79-8.253 2.95-1.473 6.484-.166 7.892 2.919" transform="translate(-1037 -303) translate(0 132) translate(173 85) translate(780 72) translate(80 1) translate(4 13)"/>
                                <path fill="#FCC700" d="M19.397 47.888l.535 1.173-.975.486-.538-1.18c-.735.244-1.539.279-2.223.103l.02-1.357c.746.212 1.698.15 2.234-.117.395-.197.574-.475.445-.759-.417-.911-2.87.99-3.736-.91-.389-.85-.073-1.734.792-2.363l-.514-1.127.974-.487.511 1.119c.633-.231 1.303-.301 1.868-.226l.002 1.364c-.69-.051-1.494.04-1.92.252-.321.161-.478.39-.366.635.406.889 2.88-.967 3.761.964.43.943-.006 1.839-.87 2.43" transform="translate(-1037 -303) translate(0 132) translate(173 85) translate(780 72) translate(80 1) translate(4 13)"/>
                            </g>
                        </g>
                    </g>
                </g>
            </g>
        </g>
    </g>
</svg>
