<svg xmlns="http://www.w3.org/2000/svg" width="24" height="24" viewBox="0 0 24 24">
    <g fill="none" fill-rule="evenodd">
        <g fill="#333">
            <g>
                <path d="M22.012 18.178c.003-.488-.204-.954-.567-1.28l-2.7-2.7c-.298-.358-.728-.579-1.192-.61-.874 0-1.783.976-2.51 1.718l-.41.425-.27.269-.336-.176c-2.682-1.407-4.882-3.582-6.32-6.246l-.049-.098-.17-.347.288-.259C9.099 7.678 9.92 6.79 9.929 6.076c0-.83-1.113-1.89-2.964-3.638l-.347-.328c-.304-.36-.741-.58-1.211-.61-.351.017-.69.133-.977.337-.112.073-.23.156-.342.244-.939.659-1.714 1.524-2.266 2.53l-.034.073-.088.205c-.077.264-.134.534-.17.806v.03c-.264 2.329 1.313 5.82 4.107 9.122 3.53 4.161 8.072 6.97 11.579 7.165h.317c.509.012 1.012-.102 1.465-.332 1.102-.544 2.026-1.391 2.662-2.442.232-.305.355-.678.352-1.06z" transform="translate(-994 -52) translate(994 52)"/>
            </g>
        </g>
    </g>
</svg>
