<svg xmlns="http://www.w3.org/2000/svg" xmlns:xlink="http://www.w3.org/1999/xlink" width="19" height="21" viewBox="0 0 19 21">
    <defs>
        <path id="t2a734wt1a" d="M0 0.371L18.829 0.371 18.829 19.2 0 19.2z"/>
    </defs>
    <g fill="none" fill-rule="evenodd">
        <g>
            <g>
                <g>
                    <g>
                        <path fill="#FEDD00" d="M10.713 12.479c0 .568.467 1.035 1.035 1.035.588 0 1.035-.467 1.035-1.035 0-.568-.467-1.035-1.035-1.035-.568 0-1.035.467-1.035 1.035zM8.116 7.203c0-.567-.466-1.034-1.035-1.034-.588 0-1.034.446-1.034 1.014 0 .568.466 1.035 1.034 1.035.569 0 1.035-.446 1.035-1.015z" transform="translate(-770 -1435) translate(0 1337) translate(420 80) translate(350 18)"/>
                        <g transform="translate(-770 -1435) translate(0 1337) translate(420 80) translate(350 18) translate(0 .056)">
                            <mask id="3685p28cxb" fill="#fff">
                                <use xlink:href="#t2a734wt1a"/>
                            </mask>
                            <path fill="#FEDD00" d="M11.748 14.696c-1.238 0-2.252-1.015-2.252-2.252 0-1.238 1.014-2.253 2.252-2.253 1.258 0 2.252.994 2.252 2.253 0 1.237-1.014 2.252-2.252 2.252zm-5.783-.63c-.121.122-.284.183-.426.183-.142 0-.304-.06-.426-.182-.243-.223-.243-.61 0-.852l7.751-7.731c.223-.243.608-.243.852 0 .223.243.223.629-.02.852l-7.73 7.73zm1.116-9.191c1.238 0 2.252 1.015 2.252 2.252 0 1.238-1.014 2.253-2.252 2.253-1.258 0-2.252-.995-2.252-2.253 0-1.237 1.015-2.252 2.252-2.252zm11.444 3.916l-.71-1.055c-.061-.122-.081-.243-.081-.385l.08-1.278c.041-.731-.344-1.4-.993-1.725l-1.137-.568c-.122-.061-.203-.142-.264-.264l-.568-1.137c-.324-.649-1.014-1.034-1.724-.994l-1.279.082c-.121 0-.263-.02-.365-.102L10.43.675C9.82.27 9.05.27 8.441.675l-1.055.71c-.142.061-.264.082-.406.082l-1.278-.082c-.73-.04-1.4.345-1.725.994l-.568 1.137c-.06.122-.142.203-.264.264l-1.136.568c-.65.324-1.035 1.014-.994 1.725l.08 1.278c0 .122-.02.263-.1.365L.304 8.77c-.407.609-.407 1.4 0 1.988l.71 1.055c.06.142.08.264.08.406l-.08 1.278c-.04.73.344 1.4.994 1.725l1.136.568c.122.06.203.162.264.264l.568 1.136c.324.65 1.015 1.035 1.725.995l1.278-.082c.121 0 .264.02.365.102l1.055.69c.304.202.65.304.994.304.345 0 .69-.102.995-.304l1.055-.71c.1-.061.243-.102.365-.102l1.278.081c.73.04 1.4-.345 1.725-.994l.568-1.136c.06-.122.142-.203.263-.264l1.137-.568c.649-.325 1.035-1.015.994-1.725l-.04-1.258c0-.122.02-.264.101-.365l.69-1.075c.405-.609.405-1.4 0-1.989z" mask="url(#3685p28cxb)"/>
                        </g>
                    </g>
                </g>
            </g>
        </g>
    </g>
</svg>
