<svg xmlns="http://www.w3.org/2000/svg" width="49" height="70" viewBox="0 0 49 70">
    <g fill="none" fill-rule="evenodd">
        <g>
            <g>
                <g>
                    <g>
                        <g>
                            <g>
                                <path fill="#050505" fill-opacity=".2" d="M18.235 23.34c.048-.028.094-.061.142-.09.362.42.583.964.583 1.563 0 1.325-1.074 2.398-2.398 2.398-1.325 0-2.399-1.073-2.399-2.398 0-1.323 1.072-2.396 2.394-2.398-.251.09-.5.139-.743.139.255.512 2.039 1.006 2.42.785zm17.964 1.527c-.27-.628-.696-1.14-1.21-1.517-.333-.325-.785-.623-1.367-.88l-10.42-4.625c.51-.796.967-1.554 1.36-2.184 1.567-2.503 3.356-7.392 1.08-9.994-2.322-2.657-6.349-1.235-8.05 1.295-1.555 2.31-1.86 5.12-2.55 7.774.363.008.779.052 1.242.161.494-1.881.843-3.815 1.541-5.633.537-1.4 1.376-2.716 2.75-3.396 1.67-.826 4-.273 4.609 1.573.497 1.511.062 3.295-.392 4.758-.583 1.878-1.673 3.548-2.913 5.059l-4.365-1.937c-3.475-1.542-7.363.126-8.64 3.706L2.952 35.625c-.215.6-.31 1.133-.304 1.599-.082.632-.004 1.293.265 1.921l12.278 28.621c.802 1.87 2.968 2.737 4.84 1.934l26.512-11.372c1.87-.802 2.735-2.969 1.933-4.84L36.2 24.867z" transform="translate(-1049 -516) translate(0 132) translate(173 85) translate(780 288) translate(75 1) translate(21 10)"/>
                                <path fill="#F72F15" d="M15.523 24.464c-2.002.858-4.321-.068-5.18-2.07-.86-2.002.069-4.321 2.07-5.18 2.002-.859 4.322.068 5.18 2.07.86 2.002-.068 4.32-2.07 5.18m16.849-5.356c-.333-.325-.784-.623-1.367-.881L14.897 11.08c-3.474-1.542-7.363.125-8.64 3.706L.333 31.383c-.214.6-.31 1.134-.302 1.598-.083.633-.005 1.293.264 1.923l12.277 28.621c.803 1.87 2.97 2.736 4.841 1.934l26.511-11.373c1.871-.802 2.737-2.969 1.935-4.84L33.582 20.624c-.27-.627-.696-1.139-1.21-1.516" transform="translate(-1049 -516) translate(0 132) translate(173 85) translate(780 288) translate(75 1) translate(21 10)"/>
                                <path fill="#FFF" d="M15.523 24.464c-2.002.858-4.321-.068-5.18-2.07-.86-2.002.069-4.321 2.07-5.18 2.002-.859 4.322.068 5.18 2.07.86 2.002-.068 4.32-2.07 5.18M30.125 42.91c.028-.453-.146-1.12-.521-1.999-.363-.853-.723-1.427-1.077-1.725-.356-.298-.733-.361-1.133-.19-.399.17-.615.485-.646.947-.032.462.134 1.12.498 1.973.374.88.735 1.466 1.08 1.76.346.293.725.352 1.138.177.413-.177.634-.491.66-.944zm-3.022 2.857c-.961-.465-1.743-1.403-2.344-2.814-.591-1.388-.72-2.585-.386-3.592.335-1.008 1.074-1.756 2.22-2.245 1.133-.483 2.184-.493 3.152-.032.969.462 1.748 1.385 2.338 2.77.596 1.4.728 2.607.397 3.622-.33 1.015-1.07 1.766-2.215 2.255-1.147.488-2.2.5-3.162.036zm-4.918 3.95l-2.445-.306 2.186-17.652 2.425.313-2.166 17.645zm-4.862-8.25c.028-.453-.145-1.12-.52-1.999-.358-.839-.714-1.408-1.07-1.705-.354-.298-.731-.361-1.132-.191-.4.17-.613.482-.64.935-.028.452.14 1.105.503 1.957.369.868.728 1.45 1.076 1.75.348.3.723.366 1.122.195.413-.175.634-.49.661-.942zm-3.021 2.857c-.962-.464-1.743-1.402-2.344-2.816-.585-1.37-.71-2.567-.371-3.584.337-1.018 1.073-1.768 2.206-2.251 1.147-.489 2.199-.5 3.16-.037.962.465 1.739 1.39 2.329 2.776.602 1.412.736 2.624.401 3.632-.333 1.009-1.074 1.756-2.22 2.244-1.146.489-2.2.501-3.161.036z" transform="translate(-1049 -516) translate(0 132) translate(173 85) translate(780 288) translate(75 1) translate(21 10)"/>
                                <path fill="#FEDD00" d="M13.944 22.97c-1.324 0-2.398-1.075-2.398-2.4 0-1.324 1.074-2.397 2.398-2.397 1.325 0 2.399 1.073 2.399 2.398 0 1.324-1.074 2.398-2.399 2.398m0-6.72c-2.386 0-4.322 1.935-4.322 4.322s1.936 4.322 4.322 4.322c2.387 0 4.322-1.935 4.322-4.322s-1.935-4.322-4.322-4.322" transform="translate(-1049 -516) translate(0 132) translate(173 85) translate(780 288) translate(75 1) translate(21 10)"/>
                                <path fill="#333" d="M23.026 1.425C20.704-1.232 16.677.19 14.974 2.72c-1.554 2.31-1.858 5.12-2.547 7.774.362.008.777.052 1.24.162.495-1.883.843-3.815 1.54-5.634.538-1.4 1.377-2.715 2.751-3.396C19.628.8 21.96 1.353 22.566 3.2c.498 1.511.062 3.295-.392 4.758-.654 2.112-1.95 3.963-3.383 5.618-1.236 1.428-3.602 4.737-5.594 4.737.255.512 2.038 1.007 2.42.786 2.765-1.598 4.924-5.435 6.328-7.679 1.566-2.503 3.357-7.392 1.081-9.994" transform="translate(-1049 -516) translate(0 132) translate(173 85) translate(780 288) translate(75 1) translate(21 10)"/>
                                <path fill="#E8E8E8" d="M30.517 25.222L5.559 35.729 5.815 36.337 30.773 25.831zM40.344 45.362L15.386 55.867 15.642 56.475 40.6 45.97z" transform="translate(-1049 -516) translate(0 132) translate(173 85) translate(780 288) translate(75 1) translate(21 10)"/>
                            </g>
                        </g>
                    </g>
                </g>
            </g>
        </g>
    </g>
</svg>
