<svg xmlns="http://www.w3.org/2000/svg" width="24" height="26" viewBox="0 0 24 26" id="buybox_securityIcon__3B_vW"><title>icn/safe</title><defs><filter id="filter-1"><feColorMatrix in="SourceGraphic" type="matrix" values="0 0 0 0 0.276127 0 0 0 0 0.276127 0 0 0 0 0.276127 0 0 0 1.000000 0"></feColorMatrix></filter><polygon id="path-2" points="0.000339269662 0 22.8761408 0 22.8761408 25.6 0.000339269662 25.6"></polygon></defs><g id="PDP-Contenido-sindicado/nuevo-acomodo" stroke="none" stroke-width="1" fill="none" fill-rule="evenodd"><g id="3" transform="translate(-820.000000, -749.000000)" fill="none"><g id="Group-9" transform="translate(808.000000, 553.000000)" fill="none"><g id="Group-7" transform="translate(0.000000, 119.000000)" fill="none"><g id="Group-6" transform="translate(8.000000, 74.000000)" filter="url(#filter-1)" fill="none"><g transform="translate(4.800000, 3.200000)" fill="none"><g id="Group-3" fill="none"><mask id="mask-3" fill="white"><polygon id="path-2" points="0.000339269662 0 22.8761408 0 22.8761408 25.6 0.000339269662 25.6"></polygon></mask><g id="Clip-2" fill="none"></g><path d="M11.43824,18.88912 C8.07504,18.88912 5.34864,16.16272 5.34864,12.79952 C5.34864,9.43792 8.07504,6.71152 11.43824,6.71152 C14.80144,6.71152 17.52784,9.43792 17.52784,12.79952 C17.52784,16.16272 14.80144,18.88912 11.43824,18.88912 M21.78064,5.23152 C17.74224,4.73072 13.85584,1.70832 12.23184,0.29712 C11.77744,-0.09968 11.10064,-0.09968 10.64464,0.29712 C9.02224,1.70832 5.13424,4.73072 1.09744,5.23152 C0.45424,5.31152 -0.02576,5.85392 0.00144,6.50032 C0.49904,18.77712 8.56944,24.16432 10.84464,25.44432 C11.21584,25.65232 11.66064,25.65232 12.03184,25.44432 C14.30704,24.16432 22.37744,18.77712 22.87504,6.50032 C22.90224,5.85392 22.42224,5.31152 21.78064,5.23152" id="Fill-1" fill="#464646" mask="url(#mask-3)"></path></g><polygon id="Fill-4" fill="#464646" points="14.12736 9.71952 10.49696 13.34992 8.73056 11.58192 7.47456 12.83792 9.24256 14.60592 10.51776 15.88112 11.77376 14.62352 15.40256 10.99472"></polygon></g></g></g></g></g></g></svg>