<svg xmlns="http://www.w3.org/2000/svg" width="32" height="32" viewBox="0 0 32 32"><defs><style>.a{fill:none;}.b{fill:#0075C9;}</style></defs><path class="a" d="M0,0H32V32H0Z"/><path class="b" d="M18.12,2.787A2.675,2.675,0,0,0,16.227,2H6.667A2.675,2.675,0,0,0,4,4.667V26a2.663,2.663,0,0,0,2.653,2.667H22.667A2.675,2.675,0,0,0,25.333,26V11.107a2.621,2.621,0,0,0-.787-1.88L18.12,2.787Zm.547,20.547h-8a1.333,1.333,0,1,1,0-2.667h8a1.333,1.333,0,1,1,0,2.667Zm0-5.333h-8a1.333,1.333,0,0,1,0-2.667h8a1.333,1.333,0,0,1,0,2.667ZM16,10V4l7.333,7.333h-6A1.337,1.337,0,0,1,16,10Z" transform="translate(1.333 0.667)"/></svg>