<svg xmlns="http://www.w3.org/2000/svg" width="32" height="32" viewBox="0 0 32 32"><defs><style>.a{fill:none;}.b{fill:#0075C9;}</style></defs><path class="a" d="M0,0H32V32H0Z"/><path class="b" d="M24.227,6.347A1.992,1.992,0,0,0,22.333,5H7.667A2,2,0,0,0,5.773,6.347l-2.627,7.56a2.769,2.769,0,0,0-.147.88v9.547a2,2,0,0,0,4,0v-.667H23v.667a2,2,0,0,0,4,0V14.787a2.832,2.832,0,0,0-.147-.88ZM7.667,19.667a2,2,0,1,1,2-2A2,2,0,0,1,7.667,19.667Zm14.667,0a2,2,0,1,1,2-2A2,2,0,0,1,22.333,19.667ZM5.667,13,7.36,7.907A1.351,1.351,0,0,1,8.627,7H21.373a1.351,1.351,0,0,1,1.267.907L24.333,13Z" transform="translate(1 1.667)"/></svg>