<svg xmlns="http://www.w3.org/2000/svg" xmlns:xlink="http://www.w3.org/1999/xlink" width="80" height="80" viewBox="0 0 80 80">
    <defs>
        <path id="tccpe423sa" d="M.258.888c.325-.53 1-.047 1-.047s.418.173.793 1.01c.313.699.084 1.128.084 1.128s-.52-.247-1.059-.615c-.613-.419-.92-.922-.92-.922"/>
        <path id="a5fkjd0ttc" d="M.205.93c.324-.53 1-.046 1-.046s.417.172.792 1.01c.313.698.083 1.127.083 1.127s-.519-.247-1.057-.614c-.614-.42-.921-.923-.921-.923"/>
        <path id="tcqnptfy6e" d="M1.799.657c.435-.96 1.103-.46 1.103-.46l19.246 11.095s11.012 6.324 14.79 10.018c3.78 3.694 6.906 12.17 6.906 12.17l1.316.77 3.5 4.286-3.92-3.013-7.37-3.91s-1.067-.742-2.036-1.76c-.969-1.02-11.654-5.938-11.654-5.938L.234 10.68 1.34 2.747"/>
        <path id="h6zz858otg" d="M.234.309l25.818 14.862s8.275 3.568 9.243 4.586c.969 1.018 1.49 1.64 1.49 1.64l7.572 3.957 4.866 3.501.176 4.229 1.088.627-1.045.499-6.284-4.45-2.98-.433-.954 1.3-26.274-15.58s-1.012-3.499-4.491-4.672c-3.478-1.174-4.285 1.216-4.285 1.216L.301 6.306.234.309z"/>
        <path id="w8o8qc4moi" d="M.308.487L24.33 13.356c-.238.918-.637 3.246-.637 3.246l-.004.024s-.319-.235-.568-.396C21.911 15.451 2.278 4.194 2.278 4.194L.794 3.542v-.043C.792 3.256.76 2.002.308.487z"/>
        <path id="paj4w1ea0k" d="M.028.395l23.175 13.003c-.116.628-.202 1.13-.202 1.13l-.003.024s-.32-.235-.568-.396C21.22 13.377 1.587 2.12 1.587 2.12L.102 1.468S.108 1.05.028.395"/>
        <path id="sqd3awt2um" d="M0.487 0.479L18.818 0.479 18.818 15.829 0.487 15.829z"/>
        <path id="si0oh27lio" d="M0.103 0.479L22.275 0.479 22.275 16.006 0.103 16.006z"/>
    </defs>
    <g fill="none" fill-rule="evenodd">
        <g>
            <g>
                <g>
                    <g>
                        <g transform="translate(-255 -258) translate(0 100) translate(173 85) translate(0 72) translate(82 1)">
                            <rect width="80" height="80" fill="#F7F7F7" rx="8"/>
                            <g>
                                <path fill="#A9A9AB" d="M73.35 49.696s2.075 1.559 1.906 2.385c-.86 4.229-14.036 9.148-20.23 10.14-.62.1-22.177-12.174-37.708-21.413C7.571 35.01 0 29.988 0 29.672c0-.822 20.02-11.64 20.02-11.64l53.33 31.664z" transform="translate(2 9)"/>
                                <path fill="#000002" d="M45.125 53.244l2.458-1.57 3.531-2.559s-2.137-2.856-2.857-2.57c-.72.286-3.313 3.294-3.313 3.294l.181 3.405zM12.926 34.894l2.46-1.571 3.53-2.558s-2.138-2.857-2.858-2.57c-.72.285-3.313 3.294-3.313 3.294l.18 3.405z" transform="translate(2 9)"/>
                                <path fill="#040406" d="M21.565 30.002c-.958-.553-1.834-.654-2.505-.373-.808.337-4.564 2.199-4.564 2.199l5.326 9.353s3.697-1.736 4.383-2.09c.73-.379 1.185-1.243 1.185-2.492 0-2.424-1.713-5.377-3.825-6.597" transform="translate(2 9)"/>
                                <path fill="#414143" d="M13.493 34.211c0 2.424 1.713 5.377 3.825 6.597 2.112 1.22 3.824.243 3.824-2.18 0-2.425-1.712-5.378-3.824-6.597-2.112-1.22-3.825-.244-3.825 2.18" transform="translate(2 9)"/>
                                <path fill="#2B2B2D" d="M13.62 34.445c0 2.25 1.589 4.99 3.549 6.12 1.959 1.132 3.548.226 3.548-2.023 0-2.248-1.589-4.989-3.548-6.12-1.96-1.13-3.548-.226-3.548 2.023" transform="translate(2 9)"/>
                                <path fill="#161618" d="M14.602 34.902c0 1.675 1.184 3.716 2.643 4.56 1.46.842 2.643.168 2.643-1.507 0-1.676-1.183-3.717-2.643-4.56-1.46-.843-2.643-.168-2.643 1.507" transform="translate(2 9)"/>
                                <path fill="#D5D6D5" d="M14.947 35.05c0 1.503 1.062 3.334 2.371 4.09 1.31.757 2.37.151 2.37-1.352 0-1.502-1.06-3.333-2.37-4.09-1.31-.756-2.371-.15-2.371 1.352" transform="translate(2 9)"/>
                                <path fill="#ADAFAE" d="M15.146 35.166c0 1.375.973 3.053 2.172 3.745 1.199.692 2.17.138 2.17-1.238s-.971-3.053-2.17-3.746c-1.2-.692-2.172-.137-2.172 1.239" transform="translate(2 9)"/>
                                <path fill="#7E8180" d="M15.803 35.544c0 .96.678 2.13 1.515 2.613.836.484 1.515.097 1.515-.863s-.679-2.13-1.515-2.613c-.837-.483-1.515-.097-1.515.863" transform="translate(2 9)"/>
                                <path fill="#7E8180" d="M17.622 38.81c-1.199-.693-2.172-2.37-2.172-3.746 0-.712.262-1.202.68-1.415-.592.104-.984.644-.984 1.516 0 1.377.973 3.054 2.172 3.745.578.335 1.102.376 1.491.177-.34.06-.749-.025-1.187-.278" transform="translate(2 9)"/>
                                <path fill="#7E8180" d="M17.318 33.927c-.69-.398-1.304-.381-1.702-.035.387-.189.905-.144 1.475.185 1.199.692 2.172 2.37 2.172 3.745 0 .585-.177 1.018-.47 1.274.427-.208.696-.701.696-1.423 0-1.376-.972-3.053-2.171-3.746" transform="translate(2 9)"/>
                                <path fill="#656566" d="M18.397 35.575c0 .151.107.336.24.413.132.076.24.015.24-.137 0-.152-.108-.336-.24-.413-.133-.077-.24-.015-.24.137M15.818 37.101c0 .152.107.337.239.414.133.076.239.014.239-.137 0-.152-.106-.337-.24-.413-.131-.077-.238-.016-.238.136M15.33 35.872c0 .152.106.336.239.413.132.076.24.015.24-.137 0-.151-.099-.336-.231-.412-.132-.077-.249-.016-.249.136M15.339 34.71c0 .151.107.336.239.413.132.076.24.014.24-.138 0-.15-.108-.336-.24-.412-.132-.077-.24-.016-.24.136M16.125 33.98c0 .153.107.337.239.414.133.076.24.015.24-.137 0-.151-.107-.336-.24-.412-.132-.077-.24-.016-.24.136M17.44 34.42c0 .153.106.338.239.414.132.076.239.016.239-.137 0-.15-.107-.336-.24-.412-.132-.077-.239-.015-.239.136M18.854 36.889c0 .152.108.336.24.413.132.076.239.015.239-.137 0-.151-.107-.336-.24-.413-.131-.076-.239-.015-.239.137M18.726 38.11c0 .153.107.337.24.414.132.076.24.015.24-.137 0-.151-.108-.337-.24-.413-.133-.076-.24-.015-.24.137M17.797 38.61c0 .152.107.336.239.413.133.076.24.015.24-.138 0-.15-.107-.336-.24-.412-.132-.076-.24-.016-.24.137M16.69 38.11c0 .153.107.337.24.414.132.076.238.015.238-.137 0-.151-.106-.337-.239-.413-.132-.076-.24-.015-.24.137" transform="translate(2 9)"/>
                                <path fill="#D5D6D5" d="M15.644 35.62c0 .96.679 2.129 1.515 2.612.837.483 1.515.097 1.515-.864 0-.96-.678-2.13-1.515-2.612-.836-.483-1.515-.097-1.515.863" transform="translate(2 9)"/>
                                <path fill="#2B2B2D" d="M15.878 35.754c0 .812.574 1.801 1.282 2.21.707.409 1.28.082 1.28-.73 0-.812-.573-1.803-1.28-2.211-.708-.408-1.282-.081-1.282.73" transform="translate(2 9)"/>
                                <path fill="#59595B" d="M15.99 35.933c0 .698.493 1.547 1.101 1.898.608.35 1.1.07 1.1-.627 0-.698-.492-1.547-1.1-1.898-.608-.35-1.1-.07-1.1.627" transform="translate(2 9)"/>
                                <g transform="translate(2 9) translate(15.901 34.568)">
                                    <mask id="a0a4n2kuub" fill="#fff">
                                        <use xlink:href="#tccpe423sa"/>
                                    </mask>
                                    <path d="M1.258.841S.583.358.258.888c-.157.257-.102.554-.102.554s.307.503.92.922c.54.368 1.059.615 1.059.615s.229-.43-.084-1.128c-.375-.837-.793-1.01-.793-1.01" mask="url(#a0a4n2kuub)"/>
                                </g>
                                <path fill="#040406" d="M54.005 48.71c-.959-.552-1.835-.653-2.506-.373-.807.338-4.563 2.2-4.563 2.2l5.326 9.352s3.696-1.735 4.382-2.09c.73-.377 1.185-1.242 1.185-2.491 0-2.424-1.712-5.377-3.824-6.597" transform="translate(2 9)"/>
                                <path fill="#414143" d="M45.933 52.92c0 2.424 1.713 5.377 3.824 6.596 2.113 1.22 3.825.244 3.825-2.18 0-2.423-1.712-5.378-3.825-6.596-2.111-1.22-3.824-.244-3.824 2.18" transform="translate(2 9)"/>
                                <path fill="#2B2B2D" d="M46.06 53.154c0 2.249 1.589 4.989 3.549 6.12 1.96 1.131 3.548.226 3.548-2.023s-1.589-4.988-3.548-6.12c-1.96-1.132-3.549-.226-3.549 2.023" transform="translate(2 9)"/>
                                <path fill="#161618" d="M47.042 53.61c0 1.676 1.183 3.718 2.643 4.56 1.46.842 2.643.168 2.643-1.507 0-1.675-1.183-3.717-2.643-4.56-1.46-.842-2.643-.167-2.643 1.508" transform="translate(2 9)"/>
                                <path fill="#D5D6D5" d="M47.386 53.759c0 1.503 1.062 3.333 2.371 4.09 1.31.756 2.371.15 2.371-1.352 0-1.503-1.061-3.334-2.37-4.09-1.31-.756-2.372-.15-2.372 1.352" transform="translate(2 9)"/>
                                <path fill="#ADAFAE" d="M47.586 53.874c0 1.377.972 3.053 2.172 3.746 1.199.692 2.17.138 2.17-1.238s-.971-3.053-2.17-3.745c-1.2-.693-2.172-.139-2.172 1.237" transform="translate(2 9)"/>
                                <path fill="#7E8180" d="M48.243 54.254c0 .96.677 2.129 1.514 2.612.837.484 1.515.097 1.515-.863s-.678-2.13-1.515-2.614c-.837-.482-1.514-.096-1.514.865" transform="translate(2 9)"/>
                                <path fill="#7E8180" d="M50.062 57.518c-1.2-.692-2.172-2.37-2.172-3.745 0-.712.262-1.202.68-1.415-.592.103-.984.644-.984 1.516 0 1.376.972 3.054 2.172 3.746.577.334 1.102.374 1.491.177-.341.059-.748-.026-1.187-.28" transform="translate(2 9)"/>
                                <path fill="#7E8180" d="M49.757 52.637c-.69-.399-1.304-.383-1.701-.036.388-.188.905-.145 1.474.185 1.2.692 2.172 2.37 2.172 3.745 0 .584-.176 1.018-.47 1.274.428-.209.697-.702.697-1.423 0-1.376-.972-3.053-2.172-3.745" transform="translate(2 9)"/>
                                <path fill="#656566" d="M50.837 54.283c0 .152.107.337.24.414.131.076.238.014.238-.137 0-.152-.107-.337-.238-.413-.133-.077-.24-.016-.24.136M48.257 55.81c0 .152.107.336.24.413.132.076.24.015.24-.137 0-.151-.108-.336-.24-.412-.133-.077-.24-.016-.24.136M47.769 54.58c0 .152.107.337.24.414.132.076.238.015.238-.137 0-.151-.097-.337-.23-.413-.131-.077-.248-.015-.248.136M47.778 53.418c0 .152.108.336.24.413.132.076.239.015.239-.137 0-.151-.107-.336-.239-.412-.132-.077-.24-.016-.24.136M48.565 52.69c0 .152.106.336.24.413.131.076.238.015.238-.137 0-.15-.107-.336-.239-.412-.133-.077-.24-.016-.24.136M49.879 53.13c0 .152.107.336.24.414.132.076.239.014.239-.138 0-.15-.107-.336-.24-.412-.132-.077-.24-.016-.24.136M51.294 55.598c0 .151.107.336.24.413.132.076.239.015.239-.137 0-.152-.107-.336-.24-.413-.132-.077-.24-.015-.24.137M51.166 56.82c0 .151.107.336.24.413.132.076.239.015.239-.137 0-.152-.107-.337-.24-.413-.132-.077-.239-.015-.239.136M50.237 57.318c0 .152.107.337.239.414.132.076.24.015.24-.137 0-.152-.108-.337-.24-.413-.132-.077-.24-.016-.24.136M49.13 56.82c0 .151.107.336.24.413.131.076.238.015.238-.137 0-.152-.107-.337-.239-.413-.132-.077-.24-.015-.24.136" transform="translate(2 9)"/>
                                <path fill="#D5D6D5" d="M48.084 54.328c0 .96.678 2.13 1.515 2.613.837.483 1.515.096 1.515-.864s-.678-2.13-1.515-2.613c-.837-.483-1.515-.096-1.515.864" transform="translate(2 9)"/>
                                <path fill="#2B2B2D" d="M48.318 54.463c0 .812.574 1.8 1.282 2.21.707.409 1.28.081 1.28-.73 0-.813-.573-1.802-1.28-2.21-.708-.41-1.282-.082-1.282.73" transform="translate(2 9)"/>
                                <path fill="#59595B" d="M48.43 54.643c0 .696.493 1.546 1.1 1.897.608.35 1.101.07 1.101-.627 0-.698-.493-1.547-1.1-1.898-.608-.35-1.1-.07-1.1.628" transform="translate(2 9)"/>
                                <g transform="translate(2 9) translate(48.395 53.235)">
                                    <mask id="nmasn0qi5d" fill="#fff">
                                        <use xlink:href="#a5fkjd0ttc"/>
                                    </mask>
                                    <path d="M1.204.884S.53.4.204.93c-.157.256-.102.553-.102.553s.307.503.92.923c.54.367 1.058.614 1.058.614s.23-.43-.083-1.127c-.375-.838-.793-1.01-.793-1.01" mask="url(#nmasn0qi5d)"/>
                                </g>
                                <path fill="#F6B100" d="M72.695 43.41c.09.126.17.254.247.382.217.36.368.714.477 1.059.207-.367.419-.732.59-1.115.141-.316.258-.635.387-.949l-.003-.003-.148-4.516-3.349-4.461-.333-.203c-.331-.203-.984-.57-.984-.57s-4.612-8.57-5.45-9.924c-.84-1.353-1.68-3.24-3.972-4.838-2.288-1.595-4.591-3.043-4.591-3.043-1.589-.963-15.777-9.132-23.315-13.47l-.003-.002-2.665-1.54c-.305-.176-.594-.242-.838-.208-.015 0-.027.002-.038.005-.186.033-.343.122-.463.265-.1.123-.179.28-.22.478l-1.156 1.602-.39 8.34.069 5.996-.555.114s.185 2.456.316 3.058c.018.083.039.164.06.245.143.512.399.998 1.043 1.499.748.581 3.8 2.688 3.8 2.688s.018-.474.167-1.07c.34-1.38 1.368-3.407 4.456-1.625 2.033 1.175 3.114 3.01 3.69 4.653.316.903.48 1.75.564 2.394.095.72.089 1.183.089 1.183l1.48.653s19.599 11.314 20.845 12.032c1.243.719 2.682 1.848 2.682 1.848l.364-2.396c.036-.242.092-.459.166-.655.668-1.73 2.793-1.578 5.595.616.566.444 1.02.948 1.386 1.479" transform="translate(2 9)"/>
                                <path fill="#D3CABB" d="M69.379 32.277c-.8.647-2.036 1.639-3.28 2.613-1.498 1.177-3.01 2.326-3.773 2.8-.289.178-.662.39-1.094.625-.858.468-1.955 1.029-3.12 1.607-1.7.84-3.538 1.72-4.981 2.399-.56.265-1.061.501-1.473.692l-.396-.236-5.687-11.022 6-3.49 4.927-2.865 3.1-1.803 3.543-2.063 1.822 3.14 4.412 7.603z" transform="translate(2 9)"/>
                                <path fill="#FFF" d="M67.078 33.137l.777-.71s-.806-1.857-1.756-3.644c-1.252-2.355-2.463-4.617-2.985-5.624-.23-.444-.475-.838-.724-1.188l-5.737 3.31c.148.209.327.39.522.513.744.467 2.018 1.278 2.83 1.885 1.352 1.013 3.202 3.055 3.202 3.055l3.871 2.403z" transform="translate(2 9)"/>
                                <path fill="#9E9382" d="M49.995 40.503L50.651 38.713 57.127 35.71 59.398 36.435 67.063 30.704 69.378 32.276 62.276 38.268 51.66 43.013 51.262 42.777z" transform="translate(2 9)"/>
                                <path fill="#616060" d="M64.967 24.673l-1.822-3.139-3.544 2.063 1.631 14.718c.433-.235.805-.447 1.094-.626.763-.473 2.275-1.622 3.774-2.8l-1.133-10.216zm-6.855 15.249c-1.7.84-3.538 1.72-4.98 2.399l-1.556-14.056 4.926-2.865 1.61 14.522z" transform="translate(2 9)"/>
                                <path fill="#6A6455" d="M62.923 21.746l-.322.103 6.013 10.363c-1.76 1.426-5.656 4.548-7.05 5.413-1.938 1.2-7.555 3.866-10.302 5.152l.398.236c2.552-1.192 8.64-4.068 10.668-5.325 1.393-.864 4.951-3.714 6.713-5.14l-6.118-10.802z" transform="translate(2 9)"/>
                                <path fill="#363638" d="M63.608 39.246l6.242-6.156-.472-.814c-1.761 1.426-5.657 4.548-7.051 5.412-2.026 1.257-8.115 4.133-10.667 5.325l.944.489 11.004-4.256z" transform="translate(2 9)"/>
                                <path fill="#FFD15A" d="M62.923 21.746s-1.428 1.508-6.504 4.316c-6.724 3.72-10.772 5.436-10.772 5.436l-5.56-2.847-8.709-5.422-5.01-3.117-15.25-9.535-.346-.215L28.244.28c.12-.144.277-.233.463-.266.01-.003.023-.005.038-.005.158-.022.334 0 .522.061.101.036.209.084.316.147l2.666 1.54.002.003c7.538 4.337 21.726 12.506 23.314 13.469 0 0 2.303 1.448 4.592 3.043 2.292 1.598 1.926 2.12 2.766 3.474" transform="translate(2 9)"/>
                                <path fill="#FFAD2E" d="M60.157 18.272l-19.112 11.03 4.151 2.583s4.048-1.717 10.773-5.436c5.077-2.806 7.177-4.912 7.177-4.912-.745-1.2-1.28-1.988-2.989-3.265M29.267.07c-1.679 1.03-4.17 2.501-7.473 4.329-4.858 2.688-8.434 4.808-10.676 6.178l-.346-.214L28.244.28c.12-.143.278-.233.462-.266.012-.003.024-.006.039-.006.158-.02.335 0 .522.062" transform="translate(2 9)"/>
                                <path fill="#E18802" d="M58.13 53.823l-.176-4.226-4.063-4.975-.333-.203c-.331-.205-.984-.569-.984-.569s-4.882-9.633-5.722-10.986c-.838-1.353-1.411-2.183-3.7-3.777-2.29-1.598-5.535-3.505-5.535-3.505-1.884-1.142-20.75-12.003-25.984-15.013-.748-.432-1.396-.21-1.56.536l-.438 2.012-1.105 7.931.068 6-.068.203s-.302 2.366-.17 2.968c.131.602.357 1.16 1.102 1.744.308.24 1.006.736 1.72 1.239.369-.336.798-.626 1.247-.828.207-.094.42-.173.623-.276l.168-.096c.484-.557 1.194-.79 1.897-.649.661-.206 1.555-.096 2.769.604 2.033 1.174 3.112 3.011 3.687 4.65.062.176.119.352.167.522.506 1.69.486 3.055.486 3.055l1.484.652S43.344 52.09 44.553 52.872c.321.208.569.396.569.396l.003-.024c.015-.089-.056-.723.453-2.427.069-.234.414-.613.488-.807.668-1.732 4.493.079 7.295 2.275.54.42.975.9 1.332 1.404.203.077.402.16.593.26.025 0 .05.002.075 0l1.136.002c.417-.002 1.2.101 1.642-.118l-.01-.01z" transform="translate(2 9)"/>
                                <g transform="translate(2 9) translate(8.296 10.37)">
                                    <mask id="qk6i8he7df" fill="#fff">
                                        <use xlink:href="#tcqnptfy6e"/>
                                    </mask>
                                    <path d="M35.334 29.852c.969 1.019 2.037 1.76 2.037 1.76l7.368 3.91 3.92 3.014-3.499-4.285-1.316-.771s-3.126-8.476-6.905-12.17c-3.779-3.694-14.79-10.018-14.79-10.018L2.901.198s-.668-.5-1.103.459c-.022.08-.46 2.09-.46 2.09L.235 10.679 23.68 23.915s10.685 4.918 11.654 5.937" mask="url(#qk6i8he7df)"/>
                                </g>
                                <g transform="translate(2 9) translate(8.296 20.74)">
                                    <mask id="5sbvpiwf4h" fill="#fff">
                                        <use xlink:href="#h6zz858otg"/>
                                    </mask>
                                    <path d="M49.399 33.084l-.176-4.229-4.866-3.5-7.571-3.958s-.522-.622-1.491-1.64c-.968-1.018-9.243-4.586-9.243-4.586L.234.31.3 6.306l3.873 5.285s.807-2.39 4.285-1.216c3.479 1.173 4.49 4.672 4.49 4.672l26.275 15.58.954-1.3 2.98.433 6.284 4.45 1.045-.499-1.088-.627z" mask="url(#5sbvpiwf4h)"/>
                                </g>
                                <g transform="translate(2 9) translate(21.432 36.642)">
                                    <mask id="wcbfqyeogj" fill="#fff">
                                        <use xlink:href="#w8o8qc4moi"/>
                                    </mask>
                                    <path d="M24.33 13.356c-.238.918-.637 3.246-.637 3.246l-.004.024s-.319-.235-.568-.396C21.911 15.451 2.278 4.194 2.278 4.194L.794 3.542S.814 2.177.308.487L24.33 13.356z" mask="url(#wcbfqyeogj)"/>
                                </g>
                                <g transform="translate(2 9) translate(22.123 38.716)">
                                    <mask id="s0z8d6uepl" fill="#fff">
                                        <use xlink:href="#paj4w1ea0k"/>
                                    </mask>
                                    <path d="M22.43 14.156c.249.16.568.396.568.396l.003-.024s.086-.502.202-1.13L.028.395c.08.656.074 1.073.074 1.073l1.485.652S21.219 13.377 22.43 14.156" mask="url(#s0z8d6uepl)"/>
                                </g>
                                <path fill="#E0C700" d="M38.458 48.257l6.448 3.723c.118-.734.54-3.08 1.203-3.832.607-.687 1.545-.798 2.79-.327l.798.301 1.328-1.638-.367-2.805c-.102-.239-1.16-2.71-2.027-4.286-.287-.521-.693-1.291-1.143-2.146-.98-1.864-2.203-4.185-2.82-5.094-.963-1.421-2.887-2.75-4.64-3.863-.662-.42-1.147-.724-1.5-.943-.152-.094-.336-.102-.495-.021-.16.08-.262.236-.275.414l-.59 7.924V42.1l1.059.611.23.88v4.665zm6.678 4.2l-6.976-4.028v-4.818l-.189-.702-1.101-.637v-6.619l.591-7.934c.02-.284.185-.53.436-.658.253-.13.546-.116.787.033.355.219.84.524 1.503.944 1.78 1.13 3.733 2.482 4.729 3.948.625.923 1.851 3.252 2.836 5.122.449.852.854 1.621 1.14 2.141.915 1.662 2.037 4.306 2.048 4.332l.01.04.387 2.951-1.544 1.904-1-.377c-1.133-.428-1.937-.347-2.46.246-.716.811-1.161 3.863-1.165 3.893l-.032.218z" transform="translate(2 9)"/>
                                <path fill="#909092" d="M45.524 49.908c.183.1.118.253.414.387.665-1.73 3.103-1.61 5.907.586.565.443.944 1.147 1.31 1.678.087.126.245.054.322.182l.472-.324s-.705-1.763-2.985-3.08c-2.281-1.316-2.64-1.286-3.423-1.297-.786-.014-1.774.848-2.017 1.868" transform="translate(2 9)"/>
                                <path fill="#F63D00" d="M8.53 21.05s.917.333 1.026 1.127c.11.794.187 5.549.187 5.549l-1.145-.679-.068-5.997z" transform="translate(2 9)"/>
                                <path fill="#B02300" d="M9.216 22.024c.102.747.177 5.002.186 5.5l.341.202s-.078-4.754-.187-5.549c-.109-.794-1.026-1.127-1.026-1.127v.022c.274.173.621.48.686.952" transform="translate(2 9)"/>
                                <g transform="translate(2 9) translate(56.691 42.864)">
                                    <mask id="l56ecvyrcn" fill="#fff">
                                        <use xlink:href="#sqd3awt2um"/>
                                    </mask>
                                    <path fill="#363638" d="M18.818 1.966s-.092 2.224-.385 3.115c-.289.891-.493 1.058-.493 1.058s-3.572 3.454-5.348 4.572C9.93 12.383.633 15.775.49 15.826l-.003.003.052-.724.283-4.018c.122-.015.246-.036.375-.063.28-.059.581-.148.927-.262 0 0 6.914-2.152 8.846-3.29 2.185-1.288 7.2-6.412 7.2-6.412l.502-.58.146 1.486z" mask="url(#l56ecvyrcn)"/>
                                </g>
                                <path fill="#2B2B2D" d="M57.707 57.463c-.054.163-.108.31-.156.438-.2.521-.348.757-.37.789l-.003.003s-.27.295-.655.123c-.382-.173-1.937-.719-1.937-.719s.143-2.616-1.249-4.93c-.078-.128-.16-.256-.247-.381l.375-.57.763.525 2.244 1.064 1.407-.08.01.163.064 1.35s.043 1.33-.246 2.225" transform="translate(2 9)"/>
                                <g transform="translate(2 9) translate(53.235 42.864)">
                                    <mask id="x71lyvxwcp" fill="#fff">
                                        <use xlink:href="#si0oh27lio"/>
                                    </mask>
                                    <path fill="#171719" d="M22.275 1.966s-.093 2.224-.385 3.115c-.289.891-.494 1.058-.494 1.058s-3.571 3.454-5.347 4.572c-2.662 1.672-11.959 5.064-12.102 5.115l-.003.003s-.27.296-.656.123c-.381-.173-1.937-.72-1.937-.72s.143-2.616-1.248-4.929c0 0 1.236 1.058 1.478 2.781.24 1.723.28 1.857.28 1.857s1.088.34 2.135.164c.107-.015.213-.039.32-.069.093-.027.188-.06.278-.095 1.178-.486 9.001-3.25 9.97-4 .969-.754 4.217-2.795 6.204-4.701 1.132-1.087 1.361-3.505 1.361-3.505V.48l.146 1.487z" mask="url(#x71lyvxwcp)"/>
                                </g>
                                <path fill="#2B2B2D" d="M45.384 50.334c.183.101.805-.562 1.1-.427.468-.617 2.417-.795 5.221 1.4.565.443 1.02.949 1.385 1.479.087.126.17.254.248.382l.471-.324s-.705-1.763-2.985-3.08c-2.28-1.316-2.639-1.286-3.424-1.298-.784-.013-1.773.849-2.016 1.868" transform="translate(2 9)"/>
                                <path fill="#909092" d="M21.718 35.17s-.124-.263-.455-.793c-.332-.53-1.1-1.937-3.656-3.413-2.557-1.477-3.454-.472-3.454-.472l-4.41-2.766-1.146-.68-.005-.509-.884.866s.52 2.213.651 2.816c.132.602.358 1.16 1.104 1.743.401.313 1.469 1.067 2.371 1.697.527-.85 1.304-1.547 2.105-2.152.42-.317.935-.351 1.414-.212.634-.115 1.458.042 2.531.662 2.033 1.174 3.114 3.01 3.69 4.65l24.121 12.916c.063-.098.135-.19.215-.275l.028-.056-24.22-14.022z" transform="translate(2 9)"/>
                                <path fill="#2B2B2D" d="M45.869 50.43c.158-.213.36-.397.615-.523L21.382 35.412s-.123-.263-.453-.793c-.334-.53-1.1-1.937-3.657-3.413-2.558-1.475-3.455-.47-3.455-.47l-4.408-2.767-1.148-.68-.554.113s.184 2.457.316 3.059c.134.602.357 1.16 1.105 1.744.746.581 3.798 2.688 3.798 2.688s.02-.515.184-1.147c.361-1.378 1.41-3.297 4.439-1.547 2.033 1.174 3.115 3.01 3.69 4.652L45.56 50.898c.006-.014.27-.418.308-.467" transform="translate(2 9)"/>
                                <path fill="#1D1D1F" d="M13.11 33.746c-.163.632-.184 1.147-.184 1.147s-3.052-2.107-3.798-2.688c-.748-.584-.971-1.142-1.105-1.744-.131-.602-.316-3.058-.316-3.058s.4 2.867 1.305 3.836c.409.432 2.218 1.479 4.099 2.507" transform="translate(2 9)"/>
                                <path fill="#FEF7E5" d="M8.579 21.913L8.958 22.132 9.012 24.387 8.596 24.147z" transform="translate(2 9)"/>
                                <path fill="#FE9529" d="M8.579 24.643L8.958 24.861 9.012 27.117 8.596 26.876z" transform="translate(2 9)"/>
                                <path fill="#2B2B2D" d="M37.018 37.477l1.493.862s.254.182.254.538v1.257s.01.291-.28.123l-1.467-.847v-1.933z" transform="translate(2 9)"/>
                                <path fill="#0C0C0E" d="M38.195 39.858L37.583 39.505 37.583 38.071 38.195 38.424z" transform="translate(2 9)"/>
                                <path fill="#7A6457" d="M49.2 41.823l-.778.712-3.637-1.796s-.43-.475-1.025-1.08c-.64-.649-1.475-1.449-2.176-1.973-.56-.42-1.344-.939-2.018-1.37l-.81-.517c-.483-.3-.874-.954-.924-1.532l.277-5.93c-.042-.478.265-.696.661-.472.65.367.82.48 2.212 1.422.205.14.483.31.805.534.843.593 1.982 1.56 2.906 3.344.185.354.453.865.78 1.48.6 1.134 1.393 2.618 2.204 4.144.95 1.788 1.523 3.034 1.523 3.034" transform="translate(2 9)"/>
                                <path fill="#2F2E2E" d="M45.474 34.646l-1.714 5.013c-.64-.65-1.475-1.449-2.176-1.973-.56-.42-1.344-.939-2.018-1.37l2.221-6.495c.844.593 1.981 1.56 2.906 3.343.185.356.453.865.781 1.482" transform="translate(2 9)"/>
                                <path fill="#6A6455" d="M48.59 42.24l-3.635-1.794s-1.85-2.042-3.203-3.055c-.81-.607-2.085-1.418-2.829-1.884-.48-.303-.874-.955-.923-1.534l.278-5.932c-.007-.077-.001-.145.01-.208-.128.083-.2.258-.18.502l-.277 5.932c.05.579.442 1.23.923 1.534.744.466 2.018 1.277 2.83 1.884 1.352 1.013 3.202 3.055 3.202 3.055l3.635 1.794.778-.711-.044-.099-.565.517z" transform="translate(2 9)"/>
                                <path fill="#FFC03B" d="M74.245 38.268s-5.096 5.066-7.135 6.29c-2.475 1.487-10.814 4.061-10.814 4.061l-4.062-4.974s8.207-3.792 10.764-5.377c1.825-1.132 6.853-5.178 6.853-5.178l4.394 5.178z" transform="translate(2 9)"/>
                                <path fill="#363638" d="M56.472 53.805s8.897-2.977 11.364-4.46c2.056-1.234 6.707-5.998 6.707-5.998l-.298-5.08s-5.096 5.066-7.135 6.29c-2.475 1.488-10.814 4.062-10.814 4.062l.176 5.186z" transform="translate(2 9)"/>
                                <path fill="#909092" d="M58.816 53.626s6.913-2.152 8.846-3.292c2.184-1.286 7.289-6.239 7.289-6.239l.413-.75-.85-.496.029.498s-4.842 4.867-6.914 6.077c-2.13 1.243-9.686 3.586-9.686 3.586-.946.316-1.98.225-2.856-.253l-1.626-1.181.004.64.066.106 2.125 1.282c1.226.533 1.892.444 3.16.022" transform="translate(2 9)"/>
                                <path fill="#7F7F81" d="M61.56 47.104l.328 4.287s5.095-1.79 5.843-2.313c1.057-.737 3.87-3.293 3.87-3.293l-.317-4.469s-2.709 2.882-4.545 3.791c-1.344.667-3.436 1.455-5.178 1.997" transform="translate(2 9)"/>
                                <path fill="#373739" d="M71.041 43.528s-.038.04-.113.113l-.057.057-.25.245c-.054.05-.11.104-.17.164-.012.009-.024.02-.035.036-.04.035-.078.074-.12.112-.534.51-1.287 1.205-2.005 1.792-.09.074-.176.144-.262.211-.084.066-.168.132-.249.192-.08.061-.16.121-.24.175-.057.042-.114.08-.168.116-.021.015-.041.03-.062.042-.075.05-.15.095-.218.137-.125.075-.351.179-.644.308l-.086.035c-.155.066-.325.135-.507.209-.012.006-.026.012-.042.015l-.407.164-.213.08c-.006.006-.014.009-.02.009-.18.068-.361.14-.543.209-.241.092-.483.181-.716.268-.04.018-.083.032-.121.048l-.403.145-.137.054c-.42.152-.77.278-.969.352-.03.009-.056.018-.077.027l-.108.038-.03-.273-.13-1.253c1.448-.452 3.165-1.088 4.4-1.663.137-.062.264-.125.39-.185.369-.181.775-.45 1.186-.76 1.096-.826 2.226-1.937 2.733-2.452.11-.114.19-.2.238-.248l.025-.024c.01-.014.017-.02.017-.02l.113 1.525z" transform="translate(2 9)"/>
                                <path fill="#373739" d="M71.378 45.573s-2.515 2.537-3.952 3.392c-.09.053-.23.122-.409.203-.056.026-.119.053-.18.08-1.396.603-4.403 1.678-4.403 1.678l-.159-1.526c1.38-.43 2.999-1.028 4.215-1.58.203-.09.393-.182.572-.268.32-.158.665-.38 1.017-.632 1.532-1.112 3.186-2.873 3.186-2.873l.113 1.526z" transform="translate(2 9)"/>
                                <path fill="#131315" d="M71.041 43.528s-1.63 1.643-3.012 2.73c-.335.266-.657.495-.937.662-.125.075-.351.179-.644.308-1.415.605-4.349 1.653-4.349 1.653l-.03-.273c.847-.305 3.333-1.214 4.358-1.68.152-.071.272-.13.349-.177.361-.215.784-.534 1.222-.892 1.312-1.073 2.728-2.5 2.728-2.5l-.078-1.064.28-.293.113 1.526z" transform="translate(2 9)"/>
                                <path fill="#131315" d="M68.028 46.258c-.083.066-.167.131-.247.191-.081.062-.161.123-.242.176-.056.042-.113.08-.167.116-.02.015-.041.03-.062.042-.075.05-.15.095-.218.137-.125.075-.351.18-.644.307l-.02-.298-.09-1.237c.137-.062.265-.125.39-.184.37-.183.776-.45 1.187-.76l.083 1.112.03.398zM68.171 48.127l-1.153 1.04-.126.114-.056-.033-.253-.143-.093-1.285c.203-.089.393-.182.572-.268.32-.158.665-.379 1.017-.632l.092 1.207z" transform="translate(2 9)"/>
                                <path fill="#131315" d="M71.266 44.048s-.105.111-.281.29l.078 1.065s-2.516 2.537-3.95 3.393c-.611.365-3.738 1.507-4.706 1.858l.028.272s4.267-1.527 4.992-1.96c1.434-.857 3.95-3.394 3.95-3.394l-.111-1.524z" transform="translate(2 9)"/>
                                <path fill="#BEBB7F" d="M58.504 49.962c.9-.249 2.001-.671 2.885-1.033l-.09-1.664s-.858.404-2.376.879c-1.39.435-2.357.686-2.357.686l.078 1.61c.324-.073.907-.215 1.86-.478M58.504 50.39c-.974.27-1.526.403-1.84.473l.071 1.496s.893 0 2.862-.722c1.908-.7 1.9-.72 1.9-.72l-.085-1.57c-.887.366-2.001.792-2.908 1.043" transform="translate(2 9)"/>
                                <path fill="#FCFCF9" d="M60.084 48.466l-.038-.7c-.319.115-.694.243-1.123.378-1.39.435-2.357.686-2.357.686l.04.83c.18-.049.376-.101.593-.162.901-.248 2.003-.67 2.885-1.032M60.193 50.453l-.034-.614c-.565.212-1.143.41-1.655.551-.975.27-1.526.403-1.84.473l.04.811c.42-.107.945-.265 1.589-.5 1.908-.7 1.9-.72 1.9-.72" transform="translate(2 9)"/>
                                <path fill="#BEBB7F" d="M72.41 42.114c.577-.484 1.204-1.152 1.766-1.747l-.052-1.723s-.543.632-1.517 1.503c-.89.8-1.155 1.09-1.155 1.09l.117 1.63c.21-.159.228-.241.84-.753M72.427 42.552c-.626.524-.624.59-.826.74l.109 1.512s.227-.016 1.484-1.255c1.22-1.201 1.136-1.177 1.136-1.177l-.045-1.625c-.565.598-1.275 1.318-1.858 1.805" transform="translate(2 9)"/>
                                <path fill="#FCFCF9" d="M73.617 39.959l-.022-.752c-.25.252-.577.573-.988.94-.89.8-1.155 1.091-1.155 1.091l.055.765c.089-.08.198-.176.343-.297.579-.484 1.205-1.152 1.767-1.747M73.771 41.964l-.018-.665c-.442.451-.915.91-1.326 1.254-.626.522-.624.588-.827.74l.055.755c.223-.186.536-.469.98-.907 1.22-1.2 1.136-1.177 1.136-1.177" transform="translate(2 9)"/>
                                <path fill="#FAEABD" d="M66.31 53.32v1.527c0 .23.242.379.447.275l3.234-1.636c.316-.16.516-.484.516-.839V51.08c0-.231-.245-.38-.45-.274l-3.24 1.679c-.312.161-.508.483-.508.834" transform="translate(2 9)"/>
                                <path fill="#F4CC5E" d="M66.69 55.04c-.149 0-.269-.12-.269-.268v-1.467c0-.328.18-.625.472-.776l3.111-1.612c.04-.02.08-.03.123-.03.148 0 .267.12.267.268v1.505c0 .332-.183.63-.479.78l-3.105 1.571c-.039.019-.08.03-.12.03" transform="translate(2 9)"/>
                                <path fill="#F0960A" d="M52.604 43.502L52.234 43.645 50.917 42.873 45.196 31.887 45.575 31.754 51.262 42.777zM63.146 21.537L62.924 21.746 69.04 32.549 69.641 33.259 69.85 33.09 69.378 32.276z" transform="translate(2 9)"/>
                                <path fill="#E18802" d="M55.806 42.003L58.326 44.421 60.925 46.354 61.561 46.544 58.428 44.048 56.169 41.724z" transform="translate(2 9)"/>
                                <path fill="#FFD54D" d="M56.169 41.724L58.429 44.048 61.561 46.545 67.185 44.134 71.042 40.854 68.8 37.603 66.892 35.385z" transform="translate(2 9)"/>
                                <path fill="#7F7F81" d="M67.177 45.155L66.619 45.464 66.892 49.281 67.4 49.106 68.481 48.303 68.193 44.494z" transform="translate(2 9)"/>
                                <path fill="#000" d="M66.775 36.28l-.142-.145c-.073-.074-.26-.054-.407.044l-2.19 1.435c-.274.18-.355.429-.174.534l.152.087c.085.05.248.024.379-.06l2.157-1.392c.247-.16.345-.381.225-.503" transform="translate(2 9)"/>
                                <path fill="#FFD54D" d="M65.971 36.264L66.139 36.181 66.801 36.716 66.652 36.826zM65.513 36.531L65.682 36.448 66.343 36.983 66.194 37.094zM65.056 36.799L65.224 36.716 65.885 37.25 65.737 37.361zM64.598 37.066L64.766 36.983 65.427 37.518 65.279 37.628zM64.162 37.349L64.33 37.266 64.991 37.801 64.843 37.911zM63.774 37.675L63.942 37.591 64.603 38.127 64.454 38.237z" transform="translate(2 9)"/>
                                <path fill="#000" d="M60.178 40.19l-.137-.16c-.068-.08-.235-.089-.367-.018l-2.171 1.157c-.307.165-.438.452-.273.617l.14.139c.082.08.258.076.408-.01l2.214-1.25c.225-.126.303-.335.186-.474" transform="translate(2 9)"/>
                                <path fill="#FFD54D" d="M59.445 40.056L59.597 40.001 60.226 40.636 60.091 40.729zM59.022 40.247L59.179 40.191 59.801 40.847 59.66 40.944zM58.582 40.447L58.745 40.388 59.359 41.066 59.211 41.167zM58.125 40.655L58.294 40.593 58.899 41.296 58.745 41.4zM57.668 40.891L57.844 40.827 58.44 41.556 58.278 41.666zM57.231 41.196L57.414 41.128 58.005 41.893 57.834 42.008z" transform="translate(2 9)"/>
                                <path fill="#E18802" d="M26.853 30.321l6.2 3.58c.59.34 1.389-.14 1.499-.902l.825-5.723c.147-1.018-.264-1.961-1.051-2.416l-6.2-3.58c-.59-.34-1.389.14-1.499.902l-.825 5.723c-.147 1.018.263 1.961 1.051 2.416" transform="translate(2 9)"/>
                                <path fill="#FFC54D" d="M33.273 33.69l-6.2-3.58c-.787-.455-1.199-1.398-1.051-2.416l.825-5.723c.033-.228.129-.43.26-.593-.243.18-.43.463-.48.803l-.826 5.724c-.146 1.018.264 1.962 1.052 2.416l6.2 3.58c.413.238.928.072 1.239-.31-.303.223-.692.287-1.019.099" transform="translate(2 9)"/>
                                <path fill="#C47000" d="M25.801 28.482l.826-5.723c.11-.762.909-1.242 1.498-.902l6.2 3.58c.6.346.98.976 1.062 1.705.094-.965-.308-1.848-1.062-2.282l-6.2-3.58c-.589-.34-1.387.14-1.498.902l-.826 5.723c-.035.243-.036.481-.01.71.004-.044.004-.088.01-.133" transform="translate(2 9)"/>
                                <path fill="#FFCF6D" d="M25.851 27.565L27.229 27.989 27.415 27.052 26.103 26.751 26.195 26.287 27.36 26.503 27.545 25.566 26.381 25.35 26.472 24.892 27.751 25.174 27.937 24.237 26.405 23.724z" transform="translate(2 9)"/>
                                <path fill="#FFC54D" d="M27.319 29.72l5.517 3.185c.525.303 1.236-.125 1.334-.803l.735-5.093c.13-.906-.235-1.746-.937-2.15l-5.517-3.187c-.525-.302-1.235.126-1.334.803l-.735 5.094c-.13.906.235 1.746.937 2.15" transform="translate(2 9)"/>
                                <path fill="#EEA129" d="M27.066 29.894l5.518 3.186c.524.303 1.235-.125 1.333-.804l.735-5.093c.13-.905-.235-1.745-.937-2.15l-5.517-3.186c-.525-.302-1.236.125-1.334.803l-.734 5.094c-.13.906.234 1.745.936 2.15" transform="translate(2 9)"/>
                                <path fill="#E18802" d="M13.956 22.846l6.2 3.58c.59.34 1.389-.14 1.498-.902l.826-5.723c.146-1.019-.264-1.962-1.052-2.417l-6.2-3.58c-.59-.34-1.389.142-1.499.903l-.824 5.723c-.148 1.018.263 1.961 1.051 2.416" transform="translate(2 9)"/>
                                <path fill="#FFCF6D" d="M21.703 25.171L22.258 21.329 22.15 21.14 21.526 24.892z" transform="translate(2 9)"/>
                                <path fill="#FFC54D" d="M20.376 26.215l-6.2-3.58c-.788-.455-1.199-1.398-1.052-2.416l.826-5.723c.032-.228.128-.43.26-.593-.244.18-.431.464-.48.804l-.826 5.723c-.147 1.018.264 1.961 1.052 2.416l6.2 3.58c.413.239.929.073 1.238-.31-.302.224-.692.286-1.018.1" transform="translate(2 9)"/>
                                <path fill="#C47000" d="M12.904 21.007l.826-5.723c.11-.762.908-1.242 1.497-.902l6.201 3.58c.6.346.979.976 1.062 1.706.093-.967-.31-1.848-1.062-2.284l-6.2-3.58c-.59-.34-1.388.141-1.498.903l-.826 5.723c-.035.243-.036.48-.01.71.004-.045.003-.089.01-.133" transform="translate(2 9)"/>
                                <path fill="#FFC54D" d="M14.421 22.245l5.518 3.185c.525.303 1.236-.125 1.334-.803l.734-5.093c.13-.906-.234-1.745-.936-2.15l-5.518-3.187c-.525-.302-1.235.126-1.333.803l-.735 5.094c-.13.906.235 1.745.936 2.15" transform="translate(2 9)"/>
                                <path fill="#EEA129" d="M14.168 22.419l5.518 3.186c.525.302 1.236-.126 1.334-.803l.734-5.093c.131-.907-.235-1.746-.936-2.151L15.3 14.372c-.525-.303-1.235.125-1.333.803l-.735 5.094c-.13.905.235 1.745.936 2.15" transform="translate(2 9)"/>
                                <path fill="#2B2B2D" d="M11.477 11.939L11.425 12.228 11.309 12.857 11.237 13.254 11.118 13.887 11.039 14.329 10.923 14.962 10.859 15.291 10.755 15.869 10.706 16.138 10.687 16.314 10.616 16.973 10.568 17.426 10.5 18.082 10.447 18.542 10.38 19.198 10.316 19.793 10.245 20.449 10.151 21.325 9.136 20.775 9.271 19.965 9.38 19.321 9.477 18.741 9.586 18.1 9.661 17.655 9.766 17.018 9.84 16.576 9.844 16.557 9.972 15.947 10.061 15.516 10.181 14.947 10.249 14.617 10.38 13.992 10.474 13.553 10.601 12.932 10.684 12.543 10.814 11.913 10.882 11.595z" transform="translate(2 9)"/>
                                <path fill="#E18802" d="M57.985 18.59c.285-.164.249-.452-.08-.642l-28.672-16.6c-.329-.191-.827-.212-1.112-.048-.285.165-.25.453.08.643l28.671 16.602c.33.19.827.21 1.113.046M55.589 19.974c.285-.165.25-.452-.08-.643l-28.672-16.6c-.329-.192-.827-.212-1.112-.047-.284.164-.25.452.08.642l28.672 16.602c.328.19.827.21 1.112.046M53.193 21.357c.285-.165.25-.452-.08-.643l-28.671-16.6c-.33-.191-.827-.212-1.112-.048-.286.165-.25.453.08.643L52.08 21.311c.329.19.827.21 1.112.046M50.798 22.74c.285-.164.249-.452-.08-.642L22.046 5.496c-.329-.19-.827-.21-1.112-.046-.285.164-.25.453.08.642l28.671 16.602c.33.19.828.21 1.113.046M48.402 24.123c.285-.164.25-.452-.08-.642L19.651 6.88c-.33-.191-.828-.211-1.113-.047-.285.164-.25.452.08.643L47.29 24.077c.329.19.827.21 1.112.046M46.007 25.506c.285-.164.249-.452-.08-.642L17.255 8.262c-.329-.19-.827-.21-1.112-.046-.285.165-.25.453.08.642l28.671 16.603c.33.189.827.21 1.113.045M43.61 26.89c.286-.165.25-.453-.079-.643L14.86 9.646c-.33-.191-.828-.211-1.113-.047-.285.165-.25.453.08.643l28.672 16.601c.328.19.827.21 1.112.047" transform="translate(2 9)"/>
                                <path fill="#FFD54D" d="M57.985 18.38c.285-.165.249-.452-.08-.643l-28.672-16.6c-.329-.192-.827-.212-1.112-.048-.285.165-.25.453.08.643l28.671 16.602c.33.19.827.21 1.113.045M55.589 19.763c.285-.165.25-.452-.08-.643L26.837 2.52c-.329-.19-.827-.211-1.112-.046-.284.164-.25.452.08.642l28.672 16.602c.328.19.827.21 1.112.046M53.193 21.146c.285-.165.25-.452-.08-.643l-28.671-16.6c-.33-.192-.827-.212-1.112-.047-.286.164-.25.452.08.642L52.08 21.1c.329.19.827.21 1.112.046M50.798 22.529c.285-.165.249-.452-.08-.643L22.046 5.285c-.329-.19-.827-.211-1.112-.046-.285.164-.25.452.08.642l28.671 16.602c.33.19.828.21 1.113.046M48.402 23.912c.285-.164.25-.452-.08-.643L19.651 6.67c-.33-.192-.828-.212-1.113-.047-.285.165-.25.452.08.642L47.29 23.866c.329.19.827.21 1.112.046M46.007 25.295c.285-.165.249-.452-.08-.642L17.255 8.052c-.329-.191-.827-.212-1.112-.047-.285.164-.25.453.08.643l28.671 16.601c.33.19.827.21 1.113.046M43.61 26.678c.286-.164.25-.452-.079-.642L14.86 9.434c-.33-.19-.828-.21-1.113-.046-.285.165-.25.453.08.642l28.672 16.603c.328.19.827.21 1.112.045" transform="translate(2 9)"/>
                                <path fill="#414143" d="M75.214 43.831s.187 2.1-.223 3.118c-.41 1.017-4.23 3.808-4.23 3.808v-.144c0-.27-.287-.44-.523-.31l-3.772 2.064c-.27.147-.436.429-.436.735v.193s-1.956.82-4.192 1.434c-2.235.615-3.883.833-3.883.833l-.06-1.524s8.228-2.47 10.366-3.947c2.397-1.657 6.953-6.26 6.953-6.26" transform="translate(2 9)"/>
                                <path fill="#414143" d="M57.896 54.038l.059 1.524s-1.14.024-1.724-.019c-.584-.043-1.59-.661-1.59-.661s-.417-.991-.753-1.34l-.551-.582-.431-.997-.81-1.146c.53.165 1.486 1.704 1.486 1.704s2.231 1.373 2.784 1.458c.746.114 1.087.177 1.53.059" transform="translate(2 9)"/>
                                <path fill="#5E5E5F" d="M11.425 12.228L11.309 12.857 10.684 12.542 10.814 11.913zM11.238 13.254L11.118 13.887 10.474 13.554 10.601 12.931zM11.039 14.329L10.923 14.962 10.249 14.617 10.38 13.992zM10.859 15.291L10.755 15.868 10.061 15.516 10.182 14.947zM10.687 16.314L10.616 16.973 9.84 16.576 9.844 16.557 9.972 15.947zM10.567 17.426L10.5 18.081 9.661 17.655 9.766 17.018zM10.447 18.542L10.38 19.197 9.477 18.74 9.586 18.1zM10.328 19.8L10.26 20.456 10.245 20.448 9.271 19.965 9.38 19.321 10.316 19.793z" transform="translate(2 9)"/>
                            </g>
                        </g>
                    </g>
                </g>
            </g>
        </g>
    </g>
</svg>
