<svg xmlns="http://www.w3.org/2000/svg" width="112" height="150" viewBox="0 0 112 150">
    <g fill="none" fill-rule="evenodd">
        <g fill-rule="nonzero">
            <g>
                <g>
                    <path fill="#0F0F6A" d="M21.991 129.133h-.063c-.066-.034-.09-.111-.054-.173l2.494-4.156c.036-.06.117-.082.181-.048.065.033.088.109.052.169l-2.475 4.142c-.026.047-.082.073-.139.064l.004.002z" transform="translate(-251 -164) translate(20 164) translate(231)"/>
                    <path fill="#C18C37" d="M106.837 34.984L111.166 129.936 77.282 149.896 8.412 108.95 13.331 8.7 26.434 11.24 35.739 0z" transform="translate(-251 -164) translate(20 164) translate(231)"/>
                    <path fill="#D11D00" d="M106.807 35.148L96.412 47.156 79.833 43.881 77.037 149.902 111.168 129.965z" transform="translate(-251 -164) translate(20 164) translate(231)"/>
                    <path fill="#FE1D00" d="M80.566 43.72L13.366 8.688 8.416 108.947 77.769 149.902z" transform="translate(-251 -164) translate(20 164) translate(231)"/>
                    <path fill="#730E00" d="M50.684 37.873c.143.984.758 1.748 1.368 1.669.61-.079.991-.95.843-1.97-.149-1.02-.758-1.749-1.368-1.67-.61.079-.992.97-.843 1.97zM32.665 27.004c.143.984.753 1.733 1.362 1.66.61-.074.981-.947.838-1.936-.143-.99-.758-1.738-1.363-1.665-.604.074-1.007.946-.837 1.94z" transform="translate(-251 -164) translate(20 164) translate(231)"/>
                    <path fill="#BC1D00" d="M111.166 129.965L93.567 123.853 77.041 149.901z" transform="translate(-251 -164) translate(20 164) translate(231)"/>
                    <path fill="#FECE0F" d="M35.204 0L35.204 20.434 79.836 43.66 96.416 46.935 106.807 34.928z" transform="translate(-251 -164) translate(20 164) translate(231)"/>
                    <path fill="#550E00" d="M24.813 117.953L24.813 77.583 54.345 93.535 54.345 135.284z" transform="translate(-251 -164) translate(20 164) translate(231)"/>
                    <path fill="#B8BCFF" d="M25.338 117.899L25.338 77.528 36.073 83.325 36.073 124.198z" transform="translate(-251 -164) translate(20 164) translate(231)"/>
                    <path fill="#E0E0E0" d="M36.023 124.202L35.535 124.395 35.535 83.171 36.065 83.171 35.804 84.339z" transform="translate(-251 -164) translate(20 164) translate(231)"/>
                    <path fill="#FFF" d="M24.853 117.899L24.853 77.528 35.588 83.325 35.588 124.198zM43.536 128.995L43.536 87.745 54.27 93.552 54.25 135.285z" transform="translate(-251 -164) translate(20 164) translate(231)"/>
                    <path fill="#971D00" d="M23.84 76.006v42.45l31.484 18.469V93.013L23.84 76.006zm30.509 59.275l-29.533-17.328V77.568l29.531 15.957.002 41.756z" transform="translate(-251 -164) translate(20 164) translate(231)"/>
                    <path fill="#FAFAFA" d="M24.853 116.014L35.588 107.788 35.588 105.735 24.853 113.985zM24.853 103.95L35.588 95.724 35.588 95.035 24.853 103.279zM24.853 100.634L35.588 92.408 35.588 90.356 24.853 98.606zM24.859 87.334L32.39 81.556 30.826 80.71 24.859 85.299zM43.536 122.427L54.26 114.463 54.26 112.419 43.536 120.403zM43.536 114.371L54.265 106.063 54.265 105.379 43.536 113.698zM43.541 99.541L52.621 92.577 51.058 91.73 43.542 97.507z" transform="translate(-251 -164) translate(20 164) translate(231)"/>
                    <path fill="#FEDD00" d="M14.159 59.24L6.293 66.16 10.234 68.248 18.09 61.333z" transform="translate(-251 -164) translate(20 164) translate(231)"/>
                    <path fill="#FFF" d="M18.092 61.332L10.226 68.251 14.172 70.344 22.028 63.429z" transform="translate(-251 -164) translate(20 164) translate(231)"/>
                    <path fill="#FEDD00" d="M22.028 63.428L14.162 70.348 18.103 72.44 25.958 65.521z" transform="translate(-251 -164) translate(20 164) translate(231)"/>
                    <path fill="#FFF" d="M25.825 65.525L17.959 72.444 21.9 74.532 29.756 67.617z" transform="translate(-251 -164) translate(20 164) translate(231)"/>
                    <path fill="#FEDD00" d="M29.727 67.615L21.861 74.534 25.807 76.627 33.663 69.713z" transform="translate(-251 -164) translate(20 164) translate(231)"/>
                    <path fill="#FFF" d="M33.634 69.711L25.768 76.631 29.709 78.723 37.564 71.804z" transform="translate(-251 -164) translate(20 164) translate(231)"/>
                    <path fill="#FEDD00" d="M37.536 71.808L29.67 78.727 33.61 80.815 41.466 73.9z" transform="translate(-251 -164) translate(20 164) translate(231)"/>
                    <path fill="#FFF" d="M41.432 73.899L33.571 80.823 37.512 82.911 45.368 75.997z" transform="translate(-251 -164) translate(20 164) translate(231)"/>
                    <path fill="#FEDD00" d="M45.344 75.996L37.478 82.915 41.419 85.008 49.274 78.093z" transform="translate(-251 -164) translate(20 164) translate(231)"/>
                    <path fill="#FFF" d="M49.246 78.092L41.38 85.011 45.326 87.104 53.176 80.185z" transform="translate(-251 -164) translate(20 164) translate(231)"/>
                    <path fill="#FEDD00" d="M53.146 80.188L45.285 87.108 49.226 89.196 57.082 82.281z" transform="translate(-251 -164) translate(20 164) translate(231)"/>
                    <path fill="#FFF" d="M57.053 82.28L49.187 89.199 53.128 91.292 60.983 84.377z" transform="translate(-251 -164) translate(20 164) translate(231)"/>
                    <path fill="#FEDD00" d="M60.955 84.376L53.089 91.296 57.035 93.388 64.89 86.469z" transform="translate(-251 -164) translate(20 164) translate(231)"/>
                    <path fill="#FFF" d="M64.862 86.473L56.996 93.392 60.936 95.48 68.792 88.565z" transform="translate(-251 -164) translate(20 164) translate(231)"/>
                    <path fill="#FEDD00" d="M68.766 88.569L60.9 95.483 64.841 97.576 72.696 90.662z" transform="translate(-251 -164) translate(20 164) translate(231)"/>
                    <path fill="#FFF" d="M72.665 90.66L64.799 97.58 68.745 99.673 76.595 92.758z" transform="translate(-251 -164) translate(20 164) translate(231)"/>
                    <path fill="#FECE0F" d="M6.29 66.166c.057 1.066.616 2.055 1.529 2.703.392.268.895.354 1.364.234.47-.12.854-.433 1.043-.85l-3.935-2.087z" transform="translate(-251 -164) translate(20 164) translate(231)"/>
                    <path fill="#D0DDFF" d="M10.221 68.252c.057 1.066.616 2.055 1.528 2.704.391.268.892.356 1.362.238.469-.118.854-.428 1.046-.843l-3.936-2.099z" transform="translate(-251 -164) translate(20 164) translate(231)"/>
                    <path fill="#FECE0F" d="M14.15 70.344c.057 1.066.616 2.055 1.528 2.704.393.267.895.353 1.365.233.47-.12.853-.433 1.043-.85l-3.936-2.087z" transform="translate(-251 -164) translate(20 164) translate(231)"/>
                    <path fill="#D0DDFF" d="M18.08 72.43c.057 1.065.616 2.054 1.529 2.703.39.268.892.356 1.36.238.47-.118.855-.428 1.047-.843l-3.935-2.099z" transform="translate(-251 -164) translate(20 164) translate(231)"/>
                    <path fill="#FECE0F" d="M21.862 74.521c.057 1.066.616 2.055 1.529 2.704.392.267.895.354 1.364.233.47-.12.854-.433 1.043-.85l-3.936-2.087z" transform="translate(-251 -164) translate(20 164) translate(231)"/>
                    <path fill="#D0DDFF" d="M25.765 76.608c.057 1.066.616 2.055 1.528 2.703.391.269.893.356 1.362.239.469-.118.854-.429 1.046-.844l-3.936-2.098z" transform="translate(-251 -164) translate(20 164) translate(231)"/>
                    <path fill="#FECE0F" d="M29.67 78.7c.056 1.065.615 2.054 1.528 2.703.392.268.895.354 1.364.234.47-.12.854-.433 1.043-.85L29.67 78.7z" transform="translate(-251 -164) translate(20 164) translate(231)"/>
                    <path fill="#D0DDFF" d="M33.573 80.785c.054 1.065.61 2.053 1.521 2.703.395.27.9.354 1.372.231.471-.123.855-.44 1.04-.86l-3.933-2.074z" transform="translate(-251 -164) translate(20 164) translate(231)"/>
                    <path fill="#FECE0F" d="M37.472 82.862c.058 1.065.616 2.054 1.528 2.703.39.27.894.36 1.364.241.47-.117.857-.43 1.048-.846l-3.94-2.098z" transform="translate(-251 -164) translate(20 164) translate(231)"/>
                    <path fill="#D0DDFF" d="M41.375 84.963c.059 1.065.617 2.053 1.528 2.704.393.275.902.367 1.378.246.475-.12.864-.439 1.051-.862l-3.957-2.088z" transform="translate(-251 -164) translate(20 164) translate(231)"/>
                    <path fill="#FECE0F" d="M45.305 87.05c.055 1.066.614 2.055 1.528 2.703.391.27.894.36 1.364.241.471-.118.857-.43 1.049-.846l-3.941-2.098z" transform="translate(-251 -164) translate(20 164) translate(231)"/>
                    <path fill="#D0DDFF" d="M49.182 89.14c.056 1.066.615 2.055 1.528 2.704.393.27.897.357 1.368.236.47-.12.856-.434 1.045-.852l-3.941-2.088z" transform="translate(-251 -164) translate(20 164) translate(231)"/>
                    <path fill="#FECE0F" d="M53.086 91.246c.057 1.066.616 2.055 1.528 2.704.391.268.892.356 1.362.238.469-.118.854-.429 1.046-.843l-3.936-2.099z" transform="translate(-251 -164) translate(20 164) translate(231)"/>
                    <path fill="#D0DDFF" d="M56.99 93.318c.056 1.066.615 2.055 1.527 2.704.393.268.895.354 1.365.234.47-.12.853-.433 1.043-.85l-3.936-2.088z" transform="translate(-251 -164) translate(20 164) translate(231)"/>
                    <path fill="#FECE0F" d="M60.893 95.405c.057 1.066.616 2.055 1.529 2.703.39.269.892.357 1.36.239.47-.118.855-.429 1.047-.843l-3.936-2.1z" transform="translate(-251 -164) translate(20 164) translate(231)"/>
                    <path fill="#D0DDFF" d="M64.796 97.495c.057 1.066.616 2.055 1.529 2.704.392.268.895.354 1.364.234.47-.12.854-.433 1.043-.85l-3.936-2.088z" transform="translate(-251 -164) translate(20 164) translate(231)"/>
                    <path fill="#0F0F6A" d="M3.464 123.074c-.021.004-.043.004-.064 0-.066-.035-.09-.112-.053-.173l2.487-4.157c.036-.06.117-.08.181-.047.065.033.088.109.052.168l-2.487 4.16c-.027.033-.07.052-.116.049z" transform="translate(-251 -164) translate(20 164) translate(231)"/>
                    <path fill="#C18C37" d="M7.415 119.548L0.928 123.045 0 133.028 3.83 135.264 11.615 130.677 11.059 119.944 9.579 120.23 8.529 118.969z" transform="translate(-251 -164) translate(20 164) translate(231)"/>
                    <path fill="#FE1D00" d="M0.928 123.045L2.041 125.049 3.956 124.025 3.826 135.264 0 133.028z" transform="translate(-251 -164) translate(20 164) translate(231)"/>
                    <path fill="#D11D00" d="M3.958 124.025L11.06 119.942 11.616 130.674 3.83 135.264z" transform="translate(-251 -164) translate(20 164) translate(231)"/>
                    <path fill="#0F0F6A" d="M6.895 124.552c-.043.271-.212.468-.376.443-.164-.026-.26-.257-.218-.528.043-.27.213-.463.377-.438.164.026.243.257.217.523zM9.208 123.218c-.043.266-.213.468-.372.442-.159-.025-.26-.26-.217-.527.043-.266.212-.463.376-.443.164.02.26.262.213.528z" transform="translate(-251 -164) translate(20 164) translate(231)"/>
                    <path fill="#BC1D00" d="M0 133.028L1.979 132.339 3.83 135.264z" transform="translate(-251 -164) translate(20 164) translate(231)"/>
                    <path fill="#0F0F6A" d="M6.583 124.598c-.072 0-.13-.054-.13-.121v-6.895c.004-.059.049-.108.11-.121.066-.015.132.02.154.079l2.302 5.564c.013.03.012.063-.002.093s-.04.053-.072.064c-.033.014-.07.014-.104 0-.033-.012-.059-.037-.071-.069l-2.053-4.924v6.215c-.007.064-.065.114-.134.115z" transform="translate(-251 -164) translate(20 164) translate(231)"/>
                    <path fill="#0F0F6A" d="M6.716 124.54c-.072 0-.13-.054-.13-.121l-.15-5.585c0-.068.058-.125.131-.128.073 0 .134.053.138.12l.149 5.586c0 .068-.057.124-.13.128h-.008z" transform="translate(-251 -164) translate(20 164) translate(231)"/>
                    <path fill="#FEDD00" d="M10.247 113.54s-2.402 9.3-3.41 14.283c-1.009 4.984.589 17.887.589 17.887.38.501 1.005.793 1.664.778 1.173 0 2.44-15.4 2.44-15.4s1.591-11.328 2.403-11.17c.769.269 1.58.418 2.402.442 2.376-.418 5.771-2.354 5.638-4.643-.164-2.956-2.652-3.113-2.652-3.113-1.615-.138-3.237-.189-4.858-.152-.503.158-4.216 1.088-4.216 1.088z" transform="translate(-251 -164) translate(20 164) translate(231)"/>
                    <path fill="#F5D000" d="M15.827 116.894s-.807 10.174.366 12.2c1.172 2.024 7.717 8.17 7.717 8.17s1.92.241 1.416-.985c-.504-1.227-5.033-8.733-5.033-8.733l1.681-11.82-3.712-4.201-2.435 5.369z" transform="translate(-251 -164) translate(20 164) translate(231)"/>
                    <path fill="#35C9BA" d="M7.542 98.586s1.008-1.709 2.514-1.709c1.506 0 11.366 2.033 12.04 2.661.673.628 5.41 8.979 5.41 11.781 0 2.803-.986 12.47-.986 12.47s-1.841.312-2.345-.467c-.504-.78-1.002-10.422-1.002-10.422s-2.684-9.027-2.684-8.56c0 .469-12.947-5.754-12.947-5.754z" transform="translate(-251 -164) translate(20 164) translate(231)"/>
                    <path fill="#35C9BA" d="M10.417 98.549l9.833 2.54 1.39 2.29s.837 10.887.333 12.312c-.504 1.425-6.03 2-8.04 1.694-2.01-.306-3.687-3.89-3.687-3.89l-1.03-15.53 1.2.584z" transform="translate(-251 -164) translate(20 164) translate(231)"/>
                    <path fill="#35C9BA" d="M7.542 98.573s-2.769 4.689-2.955 7.963c.008 3.466.22 6.928.637 10.372.602.355 1.354.412 2.01.152 1.002-.463.668-9.175 1.173-10.264.504-1.088 3.712-7.934 3.712-7.934s-1.226-2.17-4.577-.289z" transform="translate(-251 -164) translate(20 164) translate(231)"/>
                    <path fill="#F9AF9A" d="M16.904 93.89c.002 1.476-.954 2.809-2.424 3.375-1.469.566-3.16.254-4.285-.79-1.125-1.045-1.46-2.616-.851-3.98.61-1.364 2.044-2.253 3.635-2.25 2.167.002 3.922 1.632 3.925 3.644z" transform="translate(-251 -164) translate(20 164) translate(231)"/>
                    <path fill="#F9AF9A" d="M11.669 95.017l1.341 3.75c.79.62 1.908.728 2.817.27l.425-.211-1.114-4.078-3.47.269z" transform="translate(-251 -164) translate(20 164) translate(231)"/>
                    <path fill="#000" d="M23.608 137.077c.233.74.351 1.509.35 2.28-.18.363-.747 2.128.261 2.299 1.008.17 1.65-.704 1.756-1.626-.111-1.275-.374-2.535-.782-3.757l-1.585.804z" transform="translate(-251 -164) translate(20 164) translate(231)"/>
                    <path fill="#F9AF9A" d="M8.724 142.617c-.53-.073-1.093-.221-1.67-.325.192 2.033.361 3.418.361 3.418.13 1.275.563 1.168 1.703.833.36-.103.742-1.67 1.093-3.852-.496.004-.992-.02-1.485-.074h-.002z" transform="translate(-251 -164) translate(20 164) translate(231)"/>
                    <path fill="#E0E4FF" d="M6.726 142.637c.986.73 2.265 1.027 3.506.813.276-.06.556-.605.573-1.099.006-.232-.021-.464-.08-.69-.031-.136-.132-.25-.27-.305-.137-.056-.295-.046-.424.025-.561.347-1.226.52-1.9.492-.667-.112-1.173-.623-1.236-1.25h-.222c-.279.449-.333.988-.149 1.477.026.099.059.196.1.29l.102.247z" transform="translate(-251 -164) translate(20 164) translate(231)"/>
                    <path fill="#AA6396" d="M25.175 136.258c-.122-.305-.488-.985-.975-1.847-.301.413-.64.8-1.014 1.158-.24.178-.514.315-.806.404.806.777 1.357 1.295 1.357 1.295s1.941.232 1.438-1.01z" transform="translate(-251 -164) translate(20 164) translate(231)"/>
                    <path fill="#E0E4FF" d="M21.33 135.333l.712.984s2.085.902 2.6-1.536l-.664-1.25-.233.044s.117 1.21-.853 1.403c-.451.122-.926.153-1.39.089l-.171.266z" transform="translate(-251 -164) translate(20 164) translate(231)"/>
                    <path fill="#000" d="M9.335 148.192c.059-.67.111-1.331.165-2 .018-.104.009-.21-.027-.31-.148.116-.336.177-.53.173-.516.024-1.033-.014-1.538-.113-.127.711-.524 1.357-1.12 1.821-.586.483-1.086 1.05-1.48 1.68-.073.112-.09.249-.042.373.074.143.281.178.456.183.774-.008 1.534-.2 2.207-.557.675-.363 1.314-.781 1.91-1.25z" transform="translate(-251 -164) translate(20 164) translate(231)"/>
                    <path fill="#F9AF9A" d="M17.37 94.035c0 .783-.355 1.413-.8 1.413-.446 0-.802-.63-.802-1.413 0-.782.361-1.412.801-1.412.44 0 .802.635.802 1.412z" transform="translate(-251 -164) translate(20 164) translate(231)"/>
                    <path fill="#000" d="M12.978 90.261c-1.616.001-3.067.92-3.66 2.316.785.347 1.645.524 2.515.517.307 0 3.118-.354 2.996-.813.15.567.384 1.112.694 1.62.017-.574.455-1.063 1.06-1.182h.101c-.543-1.47-2.032-2.457-3.706-2.458z" transform="translate(-251 -164) translate(20 164) translate(231)"/>
                    <path fill="#818FFF" d="M26.491 126.064L20 129.561 19.077 139.545 22.907 141.786 30.694 137.196 30.137 126.463 28.657 126.749 27.602 125.488z" transform="translate(-251 -164) translate(20 164) translate(231)"/>
                    <path fill="#F1F1FF" d="M20.009 129.561L21.122 131.571 23.037 130.541 22.915 141.785 19.085 139.545z" transform="translate(-251 -164) translate(20 164) translate(231)"/>
                    <path fill="#E0E4FF" d="M23.006 130.541L30.114 126.463 30.67 137.196 22.884 141.786z" transform="translate(-251 -164) translate(20 164) translate(231)"/>
                    <path fill="#0F0F6A" d="M25.928 131.073c-.048.267-.212.464-.376.443-.164-.02-.26-.261-.218-.527.043-.266.213-.464.377-.443.164.02.259.261.217.527zM28.24 129.743c-.042.266-.212.463-.376.438-.164-.026-.26-.257-.212-.523.048-.266.212-.468.371-.443.159.026.26.257.218.528z" transform="translate(-251 -164) translate(20 164) translate(231)"/>
                    <path fill="#E0E4FF" d="M19.086 139.545L21.06 138.86 22.916 141.785z" transform="translate(-251 -164) translate(20 164) translate(231)"/>
                    <path fill="#0F0F6A" d="M25.627 131.157c-.076 0-.138-.058-.138-.128v-6.896c.004-.058.05-.108.112-.12.063-.01.125.023.149.078l2.312 5.545c.014.031.014.067-.001.098-.015.03-.044.054-.078.064-.033.012-.07.01-.102-.003-.032-.014-.056-.04-.068-.07L25.76 124.8v6.22c.005.035-.006.07-.03.097-.026.026-.062.041-.1.041l-.003-.001z" transform="translate(-251 -164) translate(20 164) translate(231)"/>
                    <path fill="#0F0F6A" d="M25.763 131.098c-.072 0-.13-.055-.13-.121l-.154-5.585c0-.069.057-.125.13-.129.035 0 .068.013.092.036.025.022.038.053.038.085l.154 5.585c0 .068-.057.125-.13.129z" transform="translate(-251 -164) translate(20 164) translate(231)"/>
                    <path fill="#F9AF9A" d="M24.296 123.518c.056.19.045.392-.031.576-.282.558-.429 1.166-.43 1.783 0 .133.233.654.35.251.059-.192.117-.207.17-.202.052.005.185.257.419.276.08 0 .18-.187.271-.197.091-.01.408.23.494.212.217-.055.159-.207.196-.217.038-.01.53.585.53-.04.073-.654-.083-1.312-.445-1.876.005-.076.018-.152.037-.226.02-.292-.914.167-1.561-.34zM5.543 116.401c.068.187.068.39 0 .576-.284.558-.432 1.166-.435 1.783 0 .133.233.655.356.252.058-.193.11-.207.164-.202.053.005.185.256.42.275.084 0 .184-.187.275-.197.092-.01.408.231.494.212.218-.054.16-.207.197-.217.038-.01.53.587.504-.04.06-.653-.097-1.308-.45-1.876.006-.076.02-.152.042-.226.019-.316-.914.153-1.567-.34z" transform="translate(-251 -164) translate(20 164) translate(231)"/>
                    <g fill="#FFF">
                        <path d="M5.148 4.949c-.002.264-.03.528-.085.787L1.437 4.017c.022.491.173.97.44 1.394.24.392.6.709 1.035.91.055.031.111.06.17.084.09.042.186.072.286.089.182.002.361.035.53.098.085.042.162.097.228.162.152.168.27.362.345.57.096.198.165.405.17.414-.415.231-1.03.153-1.857-.242-.796-.38-1.442-.986-1.846-1.728-.476-.842-.722-1.779-.716-2.73-.1-.765.156-1.534.705-2.113C1.42.526 2.143.483 2.688.821c.753.373 1.366.95 1.756 1.655.455.756.697 1.607.704 2.473zM1.466 2.915l2.493 1.177c.003-.829-.478-1.594-1.257-2-.668-.309-1.087-.044-1.236.823" transform="translate(-251 -164) translate(20 164) translate(231) translate(31.836 58.18)"/>
                    </g>
                    <g fill="#FFF">
                        <path d="M1.172.592l.123 7.934c-.054.61.156 1.217.584 1.684-.175.354-.489.428-.928.216-.53-.251-.812-.856-.827-1.797L0 .749 1.172.592z" transform="translate(-251 -164) translate(20 164) translate(231) translate(37.525 57.09)"/>
                    </g>
                    <g fill="#FFF">
                        <path d="M5.15 4.927c-.004.264-.033.528-.085.788L1.443 4c.02.492.17.972.435 1.399.25.392.619.709 1.06.91.07.03.117.06.164.084.093.04.19.069.292.084.17.008.34.04.499.098.084.044.16.098.228.162.156.166.273.36.345.57.095.203.164.405.17.414-.408.231-1.03.153-1.857-.242-.796-.38-1.442-.985-1.846-1.728C.461 4.908.217 3.97.222 3.02.12 2.259.377 1.49.927.914 1.419.51 2.142.466 2.688.804c.765.375 1.388.96 1.782 1.675.442.75.676 1.592.68 2.448zM1.47 2.898l2.509 1.173C3.97 3.253 3.493 2.5 2.726 2.1c-.674-.316-1.06-.05-1.237.818" transform="translate(-251 -164) translate(20 164) translate(231) translate(39.235 61.713)"/>
                    </g>
                    <g fill="#FFF">
                        <path d="M1.171.592l.09 5.944 1.767-1.753 1.416.685-1.777 1.714 2.19 5.112-1.14-.542c-.194-.102-.34-.267-.41-.463-.053-.121-1.39-3.256-1.458-3.424l-.53.493.03 2.26-1.182-.56L.023.733 1.171.592z" transform="translate(-251 -164) translate(20 164) translate(231) translate(44.913 60.624)"/>
                        <path d="M6.842 4.732L6.873 6.6l1.395.66v1.21l-1.395-.66.048 2.955c-.013.359.05.717.185 1.053.132.242.349.433.615.542.242.129.53.157.796.079v1.384c-.414-.05-.812-.178-1.172-.374-.49-.246-.886-.626-1.135-1.089-.29-.541-.44-1.138-.435-1.743L5.727 7.23 4.29 6.556l.827-.812.59.28V4.718l1.134.014z" transform="translate(-251 -164) translate(20 164) translate(231) translate(44.913 60.624)"/>
                    </g>
                    <g fill="#FFF">
                        <path d="M2.514 1.773c.346.166.655.39.912.66 0 0-.09 0-.202.232-.101.32-.118.658-.048.985-.205-.286-.475-.526-.79-.704h-.044c-.264-.138-.594-.098-.811.098-.224.284-.331.633-.303.984l.06 3.773L.103 7.24 0 .56l1.183.562v.725c.334-.332.88-.387 1.283-.128l.05.053zM7.462 8.673c-.05.629.1 1.257.43 1.808-.095.167-.202.242-.318.242-.122-.002-.242-.03-.35-.084l-.064-.035c-.195-.112-.354-.27-.461-.458-.13-.204-.225-.425-.282-.656-.112.173-.312.28-.53.285-.29.01-.577-.051-.832-.177-.542-.255-.994-.648-1.303-1.133-.324-.513-.493-1.098-.489-1.693 0-.749.197-1.227.63-1.439.632-.194 1.325-.1 1.868.257.178.09.343.2.493.325.015-.72-.436-1.377-1.145-1.669-.281-.152-.597-.24-.922-.256h-.192s-.37-1.27.482-1.182c.311.052.61.152.886.295.657.293 1.19.782 1.512 1.389.425.877.625 1.835.583 2.798l.004 1.383zm-1.193-1.02v-.596c-.144-.108-.297-.207-.456-.295-.934-.443-1.395-.28-1.385.492-.023.527.294 1.015.806 1.242.705.335 1.06.054 1.06-.847" transform="translate(-251 -164) translate(20 164) translate(231) translate(53.771 67.616)"/>
                    </g>
                    <g fill="#FFF">
                        <path d="M3.915 8.013c0 .088.366 1.788 1.32 2.24.23.11.495.135.743.07v1.117c-.25.054-.511.028-.742-.074h-.037c-.698-.425-1.167-1.108-1.288-1.876-.18-.479-.178-1 .004-1.477zM1.967 2.444c.107.05.21.107.308.173.443.329.784.762.986 1.255-.178-.14-.372-.262-.579-.363-.53-.266-1.326-.369-1.32 1.064l-.6.556L0 4.223l.424-.419.185-.187C.604 3.3.67 2.988.8 2.697c.14-.224.447-.59 1.167-.253z" transform="translate(-251 -164) translate(20 164) translate(231) translate(21.658 50.56)"/>
                        <path d="M3.262.59c.743.542 1.297 1.275 1.59 2.109.53 1.393.669 2.694-.248 3.447.14.533.382 1.037.716 1.488.166.2.373.368.61.493.303.163.689.098.912-.153.287-.352.4-.802.307-1.236l1.252.276c.12.748.12 1.508 0 2.256-.419.459-1.138.562-1.687.242-1.278-.65-2.128-1.845-2.27-3.191-.114-.074-.233-.142-.356-.202-.231-.14-.514-.183-.782-.121-.414.142-.721.596-.476 1.664.103.536.375 1.031.781 1.424l-.39 1.37c-.598-.567-1.108-1.207-1.517-1.902-.22-.779-.183-1.6.105-2.36.398-.725.966-1.112 1.814-.708.26.133.5.299.711.492.275-.338.417-.753.403-1.177-.025-.779-.412-1.51-1.06-2.004-.092-.07-.192-.132-.298-.183-.238-.151-.552-.151-.79 0L1.733.97C2.174.673 2.718.538 3.26.592L3.262.59z" transform="translate(-251 -164) translate(20 164) translate(231) translate(21.658 50.56)"/>
                        <path d="M6.477 2.054l.213.887.095.399c.245.302.444.633.594.985.295.645.223 1.385-.192 1.97-.24.28-.655.368-1.002.212.064-.06 1.353-1.143-.169-3.015l-.25-1.226.711-.212z" transform="translate(-251 -164) translate(20 164) translate(231) translate(21.658 50.56)"/>
                    </g>
                    <path fill="#FEDD00" d="M41.89 57.693c1.134.01 2.243-.299 3.183-.887 5.521-3.333 7.177-15.504 7.516-18.685.021-.197-.044-.393-.181-.543-.137-.15-.334-.243-.546-.256-.422-.028-.793.255-.843.645-.328 3.005-1.926 14.661-6.794 17.612-1.147.707-2.596.843-3.872.363-7.425-2.428-6.895-20.848-5.956-28.64.024-.19-.034-.381-.163-.531-.128-.15-.316-.246-.52-.267-.428-.051-.82.228-.876.625-.53 4.476-2.583 27.044 6.99 30.176.661.23 1.357.361 2.063.388z" transform="translate(-251 -164) translate(20 164) translate(231)"/>
                    <path fill="#FE1D00" d="M28.689 133.998l-.489.089c.029.142-.02.287-.13.39-.138.17-.391.216-.589.108-.128-.08-.225-.195-.276-.33.3-.254.35-.676.117-.985-.13-.203-.349-.345-.6-.39-.22.062-.424.166-.598.305l.328.35c.147-.108.346-.132.517-.062.172.07.287.223.3.397-.01.143-.067.28-.164.39-.39-.124-.818.052-.981.404-.122.21-.143.459-.059.684.166.148.363.262.578.335l.165-.437c-.145-.05-.256-.162-.297-.3-.086-.199-.005-.426.191-.538.136-.063.29-.084.44-.059.078.378.452.64.865.605.253-.008.49-.115.652-.295.059-.216.069-.44.03-.66z" transform="translate(-251 -164) translate(20 164) translate(231)"/>
                    <path fill="#FE1D00" d="M27.777 133.322c.578.33.048.837.048.837.153-.014.294-.085.39-.197.164-.155.198-.39.085-.58-.058-.084-.136-.155-.227-.207l-.032-.098-.08-.222-.286.157.102.31zM26.711 133.798c-.088-.118-.224-.198-.376-.222-.223-.048-.454.04-.574.222-.049.088-.076.186-.079.285l.238.143-.238-.143-.074.079-.164.171.286.158.239-.242c.009-.63.742-.451.742-.451zM26.93 134.885c-.06.132-.06.282 0 .414.062.198.25.34.472.354.107-.003.213-.03.307-.078v-.321c-.582.32-.779-.369-.779-.369z" transform="translate(-251 -164) translate(20 164) translate(231)"/>
                    <path fill="#FE1D00" d="M27.716 135.259L27.705 135.579 27.811 135.604 28.054 135.648 28.054 135.339z" transform="translate(-251 -164) translate(20 164) translate(231)"/>
                </g>
            </g>
        </g>
    </g>
</svg>
