<svg xmlns="http://www.w3.org/2000/svg" width="61.008" height="22.19" viewBox="0 0 61.008 22.19"><defs><style>.a{fill:#f71963;}</style></defs><path class="a" d="M217.258,186.14H197.877a1.993,1.993,0,0,0-1.762,2.926l1.939,3.671H194.54a1.292,1.292,0,0,0-1.143,1.895l6.235,11.8a1.292,1.292,0,0,0,2.284,0l1.693-3.188,2.125,4.022a1.994,1.994,0,0,0,3.524,0l9.714-18.28A1.941,1.941,0,0,0,217.258,186.14Zm-8.706,7.81-4.189,7.884a.86.86,0,0,1-1.52,0l-4.148-7.851a.86.86,0,0,1,.758-1.263h8.36a.837.837,0,0,1,.739,1.23Zm29.32.67h-2.12v7.266a.25.25,0,0,1-.25.25h-1.635a.25.25,0,0,1-.25-.25V194.62h-2.132a.24.24,0,0,1-.25-.237V193.1a.24.24,0,0,1,.25-.237h6.386a.251.251,0,0,1,.262.237v1.286A.251.251,0,0,1,237.872,194.62Zm6.805,7.463a16.371,16.371,0,0,1-2.519.162c-1.61,0-3.033-.412-3.033-2.683v-4.146c0-2.271,1.435-2.671,3.045-2.671a16.171,16.171,0,0,1,2.507.162c.175.025.25.088.25.25v1.162a.25.25,0,0,1-.25.25h-2.631c-.587,0-.8.2-.8.849v1.136h3.33a.25.25,0,0,1,.25.25v1.186a.25.25,0,0,1-.25.25h-3.33v1.323c0,.649.212.849.8.849h2.631a.25.25,0,0,1,.25.25v1.161c0,.161-.075.236-.25.261Zm9.416.05h-1.984a.331.331,0,0,1-.324-.187l-1.72-2.731-1.559,2.671c-.088.15-.175.25-.311.25h-1.847a.165.165,0,0,1-.187-.162.23.23,0,0,1,.025-.088l2.7-4.508-2.731-4.281a.176.176,0,0,1-.025-.075.18.18,0,0,1,.187-.162h2.009c.137,0,.237.125.311.237l1.6,2.521,1.545-2.521a.4.4,0,0,1,.311-.237h1.847a.18.18,0,0,1,.187.162.177.177,0,0,1-.025.075l-2.718,4.307,2.835,4.482a.28.28,0,0,1,.037.125C254.256,202.083,254.194,202.133,254.094,202.133Zm-25.849-9.248a.193.193,0,0,0-.189.155l-1.812,6.7c-.025.137-.062.187-.175.187s-.15-.052-.175-.187l-1.814-6.707a.193.193,0,0,0-.189-.155h-1.783a.193.193,0,0,0-.188.236s2.213,7.69,2.237,7.765a1.878,1.878,0,0,0,1.924,1.354,1.937,1.937,0,0,0,1.923-1.352c.035-.1,2.2-7.768,2.2-7.768a.193.193,0,0,0-.188-.236Z" transform="translate(-193.248 -186.14)"/><path class="a" d="M217.258,186.14H197.877a1.993,1.993,0,0,0-1.762,2.926l1.939,3.671H194.54a1.292,1.292,0,0,0-1.143,1.895l6.235,11.8a1.292,1.292,0,0,0,2.284,0l1.693-3.188,2.125,4.022a1.994,1.994,0,0,0,3.524,0l9.714-18.28A1.941,1.941,0,0,0,217.258,186.14Zm-8.706,7.81-4.189,7.884a.86.86,0,0,1-1.52,0l-4.148-7.851a.86.86,0,0,1,.758-1.263h8.36a.837.837,0,0,1,.739,1.23Z" transform="translate(-193.248 -186.14)"/></svg>