<svg xmlns="http://www.w3.org/2000/svg" width="40.208" height="28.146" viewBox="0 0 40.208 28.146"><defs><style>.a{fill:#fff;}.b{fill:#0075C9;}</style></defs><g transform="translate(-84.55 -85.039)"><path class="a" d="M123.918,89.434a5.036,5.036,0,0,0-3.555-3.555c-3.136-.84-15.709-.84-15.709-.84s-12.573,0-15.709.84a5.036,5.036,0,0,0-3.555,3.555c-.84,3.136-.84,9.678-.84,9.678s0,6.542.84,9.678a5.035,5.035,0,0,0,3.555,3.555c3.136.84,15.709.84,15.709.84s12.573,0,15.709-.84a5.035,5.035,0,0,0,3.555-3.555c.84-3.136.84-9.678.84-9.678S124.758,92.57,123.918,89.434Z"/><path class="b" d="M133.144,121.4l10.446-6.031-10.446-6.031Z" transform="translate(-32.51 -16.256)"/></g></svg>