<svg xmlns="http://www.w3.org/2000/svg" width="32" height="32" viewBox="0 0 32 32"><defs><style>.a{fill:none;}.b{fill:#525252;}</style></defs><rect class="a" width="32" height="32"/><g transform="translate(3.467 2.667)"><path class="b" d="M109.423,66.506a.5.5,0,0,0,.495-.495V64.2c0-.074-.006-.146-.011-.219l.152.152a.495.495,0,0,0,.7,0l.16-.16c-.005.075-.011.15-.011.227v1.81a.5.5,0,0,0,.495.495h1.809a3.141,3.141,0,0,0,3.137-3.137v-1.81a.5.5,0,0,0-.495-.495h-1.809a3.113,3.113,0,0,0-1.159.225,3.135,3.135,0,0,0-.847-2.87l-1.28-1.28a.494.494,0,0,0-.7,0l-1.28,1.279a3.135,3.135,0,0,0-.848,2.867,3.11,3.11,0,0,0-1.151-.222h-1.81a.5.5,0,0,0-.495.495v1.81a3.141,3.141,0,0,0,3.137,3.137h1.809Zm5.936-4.452v1.315a2.15,2.15,0,0,1-2.148,2.147H111.9V64.2a2.15,2.15,0,0,1,2.148-2.148Zm-5.881-2.935.93-.93.93.93a2.151,2.151,0,0,1,0,3.037l-.93.93-.93-.93A2.15,2.15,0,0,1,109.479,59.118Zm-4.013,4.251V62.053h1.315a2.15,2.15,0,0,1,2.148,2.148v1.315h-1.315A2.15,2.15,0,0,1,105.466,63.369Zm0,0" transform="translate(-99.035 -54.026)"/><path class="b" d="M20.537,14.939l1.707-6.4a.5.5,0,0,0,.017-.128.991.991,0,0,0-.989-.99h-.989a.984.984,0,0,0-.495.136V.495A.5.5,0,0,0,19.293,0H.495A.5.5,0,0,0,0,.495V23.25a.5.5,0,0,0,.3.455L3.75,25.189a.5.5,0,0,0,.2.04h7.591a9.276,9.276,0,0,0,14.236-7.855v-.051C25.772,15.846,22.718,15.207,20.537,14.939ZM20.282,8.41h.972l-1.821,6.829h0a0,0,0,0,1,0,0l-.295,1.132a.5.5,0,0,0,.354.6.516.516,0,0,0,.125.016.5.5,0,0,0,.478-.37l.187-.716c3.377.4,4.5,1.18,4.5,1.416,0,.487-2.825,1.629-8.3,1.629s-8.3-1.142-8.3-1.629,2.825-1.629,8.3-1.629c.293,0,.573.011.858.019l-.093.368a.5.5,0,0,0,.359.6.486.486,0,0,0,.121.015.5.5,0,0,0,.48-.374l.242-.963,1.819-6.822A.517.517,0,0,0,20.282,8.41ZM3.451,23.983.989,22.924V.989H3.451Zm6.771.257H4.455V.989H18.8V10.2l-1.206,4.523c-.365-.011-.735-.019-1.113-.019-3.215,0-9.293.547-9.293,2.619v.051a9.311,9.311,0,0,0,.051.967c.01.094.03.186.043.28.03.222.059.443.1.66.026.123.063.242.093.364.046.182.089.365.145.542.045.141.1.278.153.416s.109.3.172.449.14.3.213.441c.064.129.125.259.195.384.083.149.174.292.265.436.073.116.145.234.224.346.1.138.2.271.3.4.088.113.176.226.269.335s.21.236.319.351.221.229.337.34C10.124,24.137,10.169,24.192,10.222,24.24Zm6.257,1.438A8.255,8.255,0,0,1,11.9,24.3c-.063-.042-.123-.086-.185-.129-.142-.1-.281-.2-.415-.31-.049-.039-.1-.077-.148-.118q-.264-.221-.509-.463l-.089-.091c-.161-.164-.316-.332-.462-.509l-.027-.031q-.237-.289-.448-.6l-.05-.075a8.318,8.318,0,0,1-.711-1.307c-.016-.038-.033-.076-.049-.114-.093-.223-.178-.451-.251-.684-.009-.029-.017-.059-.026-.089-.064-.211-.119-.427-.166-.645-.009-.044-.02-.087-.029-.131-.023-.113-.035-.229-.053-.344,1.9.986,5.825,1.285,8.194,1.285s6.295-.3,8.194-1.285A8.308,8.308,0,0,1,16.479,25.677Zm0,0"/></g></svg>