<svg xmlns="http://www.w3.org/2000/svg" width="32" height="32" viewBox="0 0 32 32"><defs><style>.a{fill:none;}.b{fill:#525252;}</style></defs><rect class="a" width="32" height="32"/><g transform="translate(5.334 0.669)"><path class="b" d="M49.976,36.322a7.206,7.206,0,0,0-6.47-7.195v-.566a4.093,4.093,0,0,0-3.951-6.977,4.765,4.765,0,0,0-8.958.268,3.448,3.448,0,0,0-1.7.243,3.714,3.714,0,0,0-2.353,3.348A3.646,3.646,0,0,0,27.6,28.077a3.723,3.723,0,0,0,.345.305V44.289a2.742,2.742,0,0,0,2.3,2.7v1.722a.528.528,0,0,0,.528.528h9.9a.528.528,0,0,0,.528-.528V46.991a2.742,2.742,0,0,0,2.3-2.7v-.772A7.206,7.206,0,0,0,49.976,36.322Zm-6.47-3.667a3.745,3.745,0,0,1,0,7.334ZM29.3,23.072a2.416,2.416,0,0,1,1.553-.1.528.528,0,0,0,.644-.4,3.711,3.711,0,0,1,7.222-.149.528.528,0,0,0,.746.341,3.033,3.033,0,0,1,1.908-.267h0a3.041,3.041,0,0,1-.569,6.029h0a1.382,1.382,0,0,0-.984.4,1.317,1.317,0,0,0-.388.939v6.07a.807.807,0,0,1-.889.8.845.845,0,0,1-.724-.861V28.236a1.373,1.373,0,0,0-.543-1.089,1.3,1.3,0,0,0-1.149-.223,3.742,3.742,0,0,1-2.875-.379.528.528,0,0,0-.731.2A2.616,2.616,0,0,1,27.6,25.459,2.694,2.694,0,0,1,29.3,23.072Zm2,25.113V47.029h8.847v1.156Zm9.464-2.212H30.684A1.687,1.687,0,0,1,29,44.289V28.964a3.662,3.662,0,0,0,4.162-1.272,4.8,4.8,0,0,0,3.242.252.258.258,0,0,1,.227.047.309.309,0,0,1,.123.246v7.638a1.909,1.909,0,0,0,1.681,1.912c.052,0,.1.007.154.007v3.731a.528.528,0,1,0,1.056,0V37.479a1.843,1.843,0,0,0,.224-.169,1.867,1.867,0,0,0,.61-1.379v-6.07a.266.266,0,0,1,.079-.191.346.346,0,0,1,.249-.094h0a4.094,4.094,0,0,0,1.642-.345V44.289a1.687,1.687,0,0,1-1.684,1.685Zm2.74-3.52V41.066a4.8,4.8,0,0,0,0-9.487V30.192a6.179,6.179,0,0,1,0,12.262Z" transform="translate(-26.544 -18.574)"/><path class="b" d="M44.51,60.417a.528.528,0,0,0-.528.528v9.8a.528.528,0,1,0,1.056,0v-9.8a.528.528,0,0,0-.528-.528Z" transform="translate(-38.722 -47.797)"/><path class="b" d="M55.76,60.417a.528.528,0,0,0-.528.528v9.8a.528.528,0,1,0,1.056,0v-9.8a.528.528,0,0,0-.528-.528Z" transform="translate(-46.579 -47.797)"/></g></svg>