<svg xmlns="http://www.w3.org/2000/svg" width="32" height="32" viewBox="0 0 32 32"><defs><style>.a{fill:none;}.b{fill:#525252;}</style></defs><rect class="a" width="32" height="32"/><g transform="translate(3.335 2.667)"><path class="b" d="M2.686,26.674A2.705,2.705,0,0,1,0,23.979V10.463A2.363,2.363,0,0,1,.652,8.824L3.008,6.357V4.932H2.42a.492.492,0,0,1-.484-.492V.486A.486.486,0,0,1,2.42,0H15.031a.487.487,0,0,1,.484.484V4.439a.494.494,0,0,1-.484.492h-.588V6.357L16.8,8.824a2.365,2.365,0,0,1,.654,1.639v8.58a4.46,4.46,0,0,1,1.2-1.123.008.008,0,0,0,.008-.008,4.757,4.757,0,0,1,6.572,6.574s0,.008-.01.008a4.748,4.748,0,0,1-1.4,1.41h-.012a4.749,4.749,0,0,1-6.457-1.25,2.7,2.7,0,0,1-2.6,2.02Zm15.869-2.082a3.8,3.8,0,0,0,4.2.789L17.766,20.4A3.805,3.805,0,0,0,18.555,24.592Zm-17.2-15.1a1.39,1.39,0,0,0-.389.969V23.979A1.719,1.719,0,0,0,2.686,25.7H14.758a1.72,1.72,0,0,0,1.725-1.719V10.463a1.421,1.421,0,0,0-.385-.969L13.75,7.035H3.7Zm17.2,9.742a3.811,3.811,0,0,0-.273.307l5.324,5.322a3.732,3.732,0,0,0,.307-.273,3.618,3.618,0,0,0,.273-.307l-5.322-5.322A3.328,3.328,0,0,0,18.555,19.236Zm1.162-.789L24.7,23.432a3.784,3.784,0,0,0-4.984-4.984ZM3.975,6.066h9.5V4.932h-9.5Zm9.75-2.111h.822V.971h-.822Zm-1.8,0h.838V.971H11.92Zm-1.807,0h.838V.971h-.838Zm-1.809,0h.84V.971H8.3Zm-1.8,0h.84V.971H6.5Zm-1.807,0h.838V.971H4.693Zm-1.791,0h.822V.971H2.9ZM3.555,16.77a5.17,5.17,0,1,1,5.17,5.17A5.17,5.17,0,0,1,3.555,16.77Zm.969,0a4.2,4.2,0,1,0,4.2-4.2A4.2,4.2,0,0,0,4.523,16.77Z"/></g></svg>