<svg xmlns="http://www.w3.org/2000/svg" width="32" height="32" viewBox="0 0 32 32"><defs><style>.a{fill:none;}.b{fill:#525252;}</style></defs><rect class="a" width="32" height="32"/><g transform="translate(10.665 1.334)"><path class="b" d="M54.386,20.13a3.133,3.133,0,0,1-1.118-2.4V14.808H53.4a.491.491,0,0,0,.491-.491V12.263a.491.491,0,0,0-.491-.491H47.874a.491.491,0,0,0-.491.491v2.053a.491.491,0,0,0,.491.491H48v2.921a3.133,3.133,0,0,1-1.118,2.4,4.114,4.114,0,0,0-1.468,3.154V39.4a1.71,1.71,0,0,0,1.708,1.708h7.021A1.71,1.71,0,0,0,55.854,39.4V23.285a4.114,4.114,0,0,0-1.467-3.154ZM46.4,27.173h8.471V32.86H46.4Zm1.966-14.418h4.54v1.07h-4.54Zm3.92,2.053V15.6a3.911,3.911,0,0,0-2.233.471,4.317,4.317,0,0,1-1.067.4V14.808Zm-4.767,6.074a4.113,4.113,0,0,0,1.468-3.154v-.248a5.221,5.221,0,0,0,1.531-.543,2.952,2.952,0,0,1,1.769-.349v1.14a4.113,4.113,0,0,0,1.466,3.154,3.133,3.133,0,0,1,1.118,2.4V26.19H46.4V23.285A3.133,3.133,0,0,1,47.518,20.883Zm6.627,19.24H47.125A.726.726,0,0,1,46.4,39.4V33.843h8.471V39.4A.726.726,0,0,1,54.146,40.123Z" transform="translate(-45.417 -11.772)"/><path class="b" d="M55.522,55.543a.9.9,0,1,0-.9-.9A.9.9,0,0,0,55.522,55.543Zm0-.983a.084.084,0,1,1-.084.084A.084.084,0,0,1,55.522,54.56Z" transform="translate(-52.038 -41.959)"/><path class="b" d="M64.815,46.213a1.065,1.065,0,1,0-1.065-1.065A1.065,1.065,0,0,0,64.815,46.213Zm0-1.147a.081.081,0,1,1-.058.024.082.082,0,0,1,.058-.024Z" transform="translate(-58.602 -35.009)"/><path class="b" d="M54.63,97.408a1.381,1.381,0,1,0,1.381,1.381A1.381,1.381,0,0,0,54.63,97.408Zm0,1.778a.4.4,0,1,1,.4-.4A.4.4,0,0,1,54.63,99.186Z" transform="translate(-51.05 -73.359)"/><path class="b" d="M70.676,95.583a.8.8,0,1,0,.8.8A.8.8,0,0,0,70.676,95.583Zm0,.983a.181.181,0,1,1,.181-.181.181.181,0,0,1-.181.181Z" transform="translate(-63.007 -72.047)"/></g></svg>