<svg xmlns="http://www.w3.org/2000/svg" width="32" height="32" viewBox="0 0 32 32"><defs><style>.a{fill:none;}.b{fill:#525252;}</style></defs><rect class="a" width="32" height="32"/><g transform="translate(7.785 2.666)"><path class="b" d="M50.721,19.978,47.1,15.864V13.99a.491.491,0,0,0-.491-.491h-.819V12.264a.491.491,0,0,0-.491-.491h-4.68a.491.491,0,0,0-.491.491V13.5h-.819a.491.491,0,0,0-.491.491v1.874L35.2,19.978a1.833,1.833,0,0,0-.457,1.21V39.271a1.837,1.837,0,0,0,1.835,1.835H49.343a1.837,1.837,0,0,0,1.835-1.835V21.189a1.833,1.833,0,0,0-.457-1.21ZM35.73,30.512H50.195V36.9H35.73Zm5.384-17.756h3.7V13.5h-3.7Zm5.008,1.725v1.076H39.8V14.481Zm-10.18,6.146,3.592-4.086h6.857l3.592,4.086a.85.85,0,0,1,.212.562v8.341H35.73V21.189a.85.85,0,0,1,.211-.562Zm13.4,19.5H36.582a.853.853,0,0,1-.852-.852V37.884H50.195v1.388a.853.853,0,0,1-.852.853Z" transform="translate(-34.747 -11.773)"/><path class="b" d="M71.074,44.779h2.645a.491.491,0,0,0,.491-.491V38.636a.492.492,0,0,0-.122-.324l-2.645-3.019a.491.491,0,0,0-.861.324v8.671A.491.491,0,0,0,71.074,44.779Zm.491-7.856,1.662,1.9V43.8H71.566Z" transform="translate(-60.519 -28.567)"/></g></svg>